{
.appVersion = "1131";
DisplayStrings = (
"²"
);
date = "2020-04-14 12:45:11 +0000";
familyName = Alsace;
featurePrefixes = (
{
automatic = 1;
code = "languagesystem DFLT dflt;\012";
name = Languagesystems;
}
);
features = (
{
automatic = 1;
code = "feature ordn;\012feature salt;\012feature ss01;\012feature ss02;\012";
name = aalt;
},
{
automatic = 1;
code = "sub [zero one two three four five six seven eight nine] [O]' by ordmasculine;\012";
name = ordn;
},
{
automatic = 1;
code = "sub chequeredFlag by chequeredFlag.ss01;\012";
name = salt;
},
{
automatic = 1;
code = "sub chequeredFlag by chequeredFlag.ss01;\012";
name = ss01;
},
{
automatic = 1;
code = "sub chequeredFlag by chequeredFlag.ss02;\012";
name = ss02;
}
);
fontMaster = (
{
alignmentZones = (
"{760, 10}",
"{-10, 10}"
);
ascender = 900;
capHeight = 760;
descender = -200;
guideLines = (
{
locked = 1;
position = "{620, 539}";
},
{
locked = 1;
position = "{620, 444}";
},
{
locked = 1;
position = "{609, 185}";
},
{
locked = 1;
position = "{609, 260}";
},
{
position = "{595, 810}";
},
{
position = "{594, 917}";
},
{
locked = 1;
position = "{836, 629}";
},
{
locked = 1;
position = "{798, 131}";
}
);
id = "C60226DB-E4D3-4E89-B452-CA8BAB7E3EC0";
visible = 1;
weight = Bold;
xHeight = 500;
}
);
glyphs = (
{
color = 3;
glyphname = A;
lastChange = "2020-07-16 13:27:07 +0000";
layers = (
{
anchors = (
{
name = bottom;
position = "{418, 0}";
},
{
name = ogonek;
position = "{748, 10}";
},
{
name = top;
position = "{418, 760}";
}
);
layerId = "C60226DB-E4D3-4E89-B452-CA8BAB7E3EC0";
paths = (
{
closed = 1;
nodes = (
"208 760 LINE",
"95 760 LINE",
"95 0 LINE",
"208 0 LINE"
);
},
{
closed = 1;
nodes = (
"741 278 LINE",
"95 278 LINE",
"95 173 LINE",
"741 173 LINE"
);
},
{
closed = 1;
nodes = (
"628 0 LINE",
"741 0 LINE",
"741 760 LINE",
"628 760 LINE"
);
},
{
closed = 1;
nodes = (
"741 760 LINE",
"95 760 LINE",
"95 655 LINE",
"741 655 LINE"
);
},
{
closed = 1;
nodes = (
"317 0 LINE",
"430 0 LINE",
"430 627 LINE",
"317 527 LINE"
);
},
{
closed = 1;
nodes = (
"467 760 LINE",
"99 310 LINE",
"191 262 LINE",
"561 714 LINE"
);
}
);
width = 836;
},
{
associatedMasterId = "C60226DB-E4D3-4E89-B452-CA8BAB7E3EC0";
background = {
paths = (
{
closed = 1;
nodes = (
"161 314 LINE",
"487 745 LINE",
"427 790 LINE",
"102 359 LINE"
);
},
{
closed = 1;
nodes = (
"161 314 LINE",
"487 745 LINE",
"427 790 LINE",
"102 359 LINE"
);
}
);
};
layerId = "FE62E11B-9866-4AE6-BF82-FE2210466D0F";
name = "Apr 14 20, 23:06";
paths = (
{
closed = 1;
nodes = (
"555 0 LINE",
"640 0 LINE",
"640 760 LINE",
"555 760 LINE"
);
},
{
closed = 1;
nodes = (
"100 685 LINE",
"640 685 LINE",
"640 760 LINE",
"100 760 LINE"
);
},
{
closed = 1;
nodes = (
"185 760 LINE",
"100 760 LINE",
"100 0 LINE",
"185 0 LINE"
);
},
{
closed = 1;
nodes = (
"100 178 LINE",
"640 178 LINE",
"640 253 LINE",
"100 253 LINE"
);
},
{
closed = 1;
nodes = (
"161 314 LINE",
"475 729 LINE",
"381 729 LINE",
"161 437 LINE"
);
},
{
closed = 1;
nodes = (
"435 700 LINE",
"350 620 LINE",
"350 0 LINE",
"435 0 LINE"
);
},
{
closed = 1;
nodes = (
"310 600 LINE",
"225 490 LINE",
"225 0 LINE",
"310 0 LINE"
);
}
);
width = 740;
},
{
associatedMasterId = "C60226DB-E4D3-4E89-B452-CA8BAB7E3EC0";
background = {
paths = (
{
closed = 1;
nodes = (
"161 314 LINE",
"487 745 LINE",
"427 790 LINE",
"102 359 LINE"
);
},
{
closed = 1;
nodes = (
"161 314 LINE",
"487 745 LINE",
"427 790 LINE",
"102 359 LINE"
);
}
);
};
layerId = "070AB05A-1C61-4EAA-A2E3-F5C4945C53AE";
name = "Apr 15 20, 10:44";
paths = (
{
closed = 1;
nodes = (
"555 0 LINE",
"640 0 LINE",
"640 760 LINE",
"555 760 LINE"
);
},
{
closed = 1;
nodes = (
"100 685 LINE",
"640 685 LINE",
"640 760 LINE",
"100 760 LINE"
);
},
{
closed = 1;
nodes = (
"185 760 LINE",
"100 760 LINE",
"100 0 LINE",
"185 0 LINE"
);
},
{
closed = 1;
nodes = (
"100 178 LINE",
"640 178 LINE",
"640 253 LINE",
"100 253 LINE"
);
},
{
closed = 1;
nodes = (
"161 314 LINE",
"475 729 LINE",
"381 729 LINE",
"161 437 LINE"
);
},
{
closed = 1;
nodes = (
"435 700 LINE",
"350 620 LINE",
"350 0 LINE",
"435 0 LINE"
);
},
{
closed = 1;
nodes = (
"310 600 LINE",
"225 490 LINE",
"225 0 LINE",
"310 0 LINE"
);
}
);
width = 740;
},
{
associatedMasterId = "C60226DB-E4D3-4E89-B452-CA8BAB7E3EC0";
layerId = "00E88D50-FFDF-4F26-9622-DC622795DA9A";
name = "Apr 15 20, 11:24";
paths = (
{
closed = 1;
nodes = (
"557 0 LINE",
"640 0 LINE",
"640 760 LINE",
"557 760 LINE"
);
},
{
closed = 1;
nodes = (
"100 687 LINE",
"640 687 LINE",
"640 760 LINE",
"100 760 LINE"
);
},
{
closed = 1;
nodes = (
"183 760 LINE",
"100 760 LINE",
"100 0 LINE",
"183 0 LINE"
);
},
{
closed = 1;
nodes = (
"100 179 LINE",
"640 179 LINE",
"640 252 LINE",
"100 252 LINE"
);
},
{
closed = 1;
nodes = (
"160 314 LINE",
"474 729 LINE",
"382 729 LINE",
"114 373 LINE"
);
},
{
closed = 1;
nodes = (
"433 700 LINE",
"350 620 LINE",
"350 0 LINE",
"433 0 LINE"
);
},
{
closed = 1;
nodes = (
"308 600 LINE",
"225 490 LINE",
"225 0 LINE",
"308 0 LINE"
);
}
);
width = 740;
},
{
associatedMasterId = "C60226DB-E4D3-4E89-B452-CA8BAB7E3EC0";
layerId = "E7A79090-1E76-43E9-A621-D44E827EE37C";
name = "Apr 15 20, 15:45";
paths = (
{
closed = 1;
nodes = (
"567 0 LINE",
"650 0 LINE",
"650 760 LINE",
"567 760 LINE"
);
},
{
closed = 1;
nodes = (
"100 687 LINE",
"650 687 LINE",
"650 760 LINE",
"100 760 LINE"
);
},
{
closed = 1;
nodes = (
"183 760 LINE",
"100 760 LINE",
"100 0 LINE",
"183 0 LINE"
);
},
{
closed = 1;
nodes = (
"100 179 LINE",
"650 179 LINE",
"650 252 LINE",
"100 252 LINE"
);
},
{
closed = 1;
nodes = (
"160 314 LINE",
"474 729 LINE",
"382 729 LINE",
"114 373 LINE"
);
},
{
closed = 1;
nodes = (
"453 720 LINE",
"370 620 LINE",
"370 0 LINE",
"453 0 LINE"
);
},
{
closed = 1;
nodes = (
"318 600 LINE",
"235 490 LINE",
"235 0 LINE",
"318 0 LINE"
);
}
);
width = 750;
},
{
associatedMasterId = "C60226DB-E4D3-4E89-B452-CA8BAB7E3EC0";
layerId = "812E712F-3672-46C0-893D-9307743BA34C";
name = "Apr 16 20, 17:24";
paths = (
{
closed = 1;
nodes = (
"178 760 LINE",
"95 760 LINE",
"95 0 LINE",
"178 0 LINE"
);
},
{
closed = 1;
nodes = (
"654 259 LINE",
"95 259 LINE",
"95 186 LINE",
"654 186 LINE"
);
},
{
closed = 1;
nodes = (
"571 0 LINE",
"654 0 LINE",
"654 760 LINE",
"571 760 LINE"
);
},
{
closed = 1;
nodes = (
"654 760 LINE",
"95 760 LINE",
"95 687 LINE",
"654 687 LINE"
);
},
{
closed = 1;
nodes = (
"333 0 LINE",
"416 0 LINE",
"416 620 LINE",
"333 620 LINE"
);
},
{
closed = 1;
nodes = (
"214 0 LINE",
"297 0 LINE",
"297 473 LINE",
"214 473 LINE"
);
},
{
closed = 1;
nodes = (
"452 760 LINE",
"95 344 LINE",
"150 296 LINE",
"508 713 LINE"
);
}
);
width = 749;
}
);
unicode = "0041,0061";
},
{
color = 3;
glyphname = B;
lastChange = "2020-07-16 13:27:07 +0000";
layers = (
{
anchors = (
{
name = bottom;
position = "{407, 0}";
},
{
name = top;
position = "{407, 760}";
}
);
layerId = "C60226DB-E4D3-4E89-B452-CA8BAB7E3EC0";
paths = (
{
closed = 1;
nodes = (
"208 760 LINE",
"95 760 LINE",
"95 0 LINE",
"208 0 LINE"
);
},
{
closed = 1;
nodes = (
"270 399 LINE",
"748 399 LINE",
"748 504 LINE",
"270 504 LINE"
);
},
{
closed = 1;
nodes = (
"635 760 LINE",
"522 760 LINE",
"522 399 LINE",
"635 399 LINE"
);
},
{
closed = 1;
nodes = (
"564 760 LINE",
"95 760 LINE",
"95 655 LINE",
"564 655 LINE"
);
},
{
closed = 1;
nodes = (
"95 105 LINE",
"95 0 LINE",
"748 0 LINE",
"748 105 LINE"
);
},
{
closed = 1;
nodes = (
"748 504 LINE",
"635 504 LINE",
"635 0 LINE",
"748 0 LINE"
);
},
{
closed = 1;
nodes = (
"421 480 LINE",
"309 449 LINE",
"519 10 LINE",
"629 45 LINE"
);
},
{
closed = 1;
nodes = (
"469 760 LINE",
"130 346 LINE",
"142 204 LINE",
"559 714 LINE"
);
}
);
width = 828;
},
{
associatedMasterId = "C60226DB-E4D3-4E89-B452-CA8BAB7E3EC0";
layerId = "04890A7A-A918-48F0-8FAF-A89A40F737CF";
name = "Apr 14 20, 23:06";
width = 740;
},
{
associatedMasterId = "C60226DB-E4D3-4E89-B452-CA8BAB7E3EC0";
layerId = "C7764B8A-D98E-42DE-9E14-69257B87F944";
name = "Apr 15 20, 15:45";
width = 740;
},
{
associatedMasterId = "C60226DB-E4D3-4E89-B452-CA8BAB7E3EC0";
layerId = "9594DAC8-B5CA-420D-A3EA-FC55A0645B64";
name = "Apr 16 20, 17:24";
paths = (
{
closed = 1;
nodes = (
"95 760 LINE",
"95 0 LINE",
"178 0 LINE",
"178 760 LINE"
);
},
{
closed = 1;
nodes = (
"95 559 LINE",
"95 486 LINE",
"665 486 LINE",
"665 559 LINE"
);
},
{
closed = 1;
nodes = (
"665 0 LINE",
"665 559 LINE",
"582 559 LINE",
"582 0 LINE"
);
},
{
closed = 1;
nodes = (
"95 73 LINE",
"95 0 LINE",
"665 0 LINE",
"665 73 LINE"
);
},
{
closed = 1;
nodes = (
"493 545 LINE",
"214 62 LINE",
"286 19 LINE",
"565 503 LINE"
);
}
);
width = 750;
},
{
associatedMasterId = "C60226DB-E4D3-4E89-B452-CA8BAB7E3EC0";
layerId = "6EBD1761-0736-4F4B-BC58-09C5E6B15AC2";
name = "Apr 23 20, 15:11";
paths = (
{
closed = 1;
nodes = (
"95 760 LINE",
"95 0 LINE",
"178 0 LINE",
"178 760 LINE"
);
},
{
closed = 1;
nodes = (
"95 574 LINE",
"95 501 LINE",
"685 501 LINE",
"685 574 LINE"
);
},
{
closed = 1;
nodes = (
"685 0 LINE",
"685 574 LINE",
"602 574 LINE",
"602 0 LINE"
);
},
{
closed = 1;
nodes = (
"95 73 LINE",
"95 0 LINE",
"685 0 LINE",
"685 73 LINE"
);
},
{
closed = 1;
nodes = (
"512 545 LINE",
"244 44 LINE",
"313 10 LINE",
"580 510 LINE"
);
},
{
closed = 1;
nodes = (
"493 501 LINE",
"576 501 LINE",
"576 760 LINE",
"493 760 LINE"
);
},
{
closed = 1;
nodes = (
"95 687 LINE",
"576 687 LINE",
"576 760 LINE",
"95 760 LINE"
);
}
);
width = 775;
}
);
leftMetricsKey = A;
unicode = "0042,0062";
},
{
color = 3;
glyphname = C;
lastChange = "2020-07-16 13:27:07 +0000";
layers = (
{
anchors = (
{
name = bottom;
position = "{385, 0}";
},
{
name = top;
position = "{385, 760}";
}
);
background = {
paths = (
{
closed = 1;
nodes = (
"95 655 LINE",
"685 655 LINE",
"685 760 LINE",
"95 760 LINE"
);
},
{
closed = 1;
nodes = (
"208 760 LINE",
"95 760 LINE",
"95 0 LINE",
"208 0 LINE"
);
},
{
closed = 1;
nodes = (
"95 0 LINE",
"690 0 LINE",
"690 105 LINE",
"95 105 LINE"
);
},
{
closed = 1;
nodes = (
"178 497 LINE",
"115 397 LINE",
"408 9 LINE",
"508 60 LINE"
);
},
{
closed = 1;
nodes = (
"430 760 LINE",
"317 760 LINE",
"317 170 LINE",
"430 110 LINE"
);
}
);
};
layerId = "C60226DB-E4D3-4E89-B452-CA8BAB7E3EC0";
paths = (
{
closed = 1;
nodes = (
"95 655 LINE",
"685 655 LINE",
"685 760 LINE",
"95 760 LINE"
);
},
{
closed = 1;
nodes = (
"208 760 LINE",
"95 760 LINE",
"95 0 LINE",
"208 0 LINE"
);
},
{
closed = 1;
nodes = (
"95 0 LINE",
"690 0 LINE",
"690 105 LINE",
"95 105 LINE"
);
},
{
closed = 1;
nodes = (
"178 497 LINE",
"115 397 LINE",
"408 9 LINE",
"508 60 LINE"
);
},
{
closed = 1;
nodes = (
"430 760 LINE",
"317 760 LINE",
"317 170 LINE",
"430 110 LINE"
);
}
);
width = 755;
},
{
associatedMasterId = "C60226DB-E4D3-4E89-B452-CA8BAB7E3EC0";
layerId = "877B6364-B5D5-41FD-8426-578C37283D7D";
name = "Apr 14 20, 23:06";
paths = (
{
closed = 1;
nodes = (
"100 685 LINE",
"640 685 LINE",
"640 760 LINE",
"100 760 LINE"
);
},
{
closed = 1;
nodes = (
"185 760 LINE",
"100 760 LINE",
"100 0 LINE",
"185 0 LINE"
);
},
{
closed = 1;
nodes = (
"100 0 LINE",
"640 0 LINE",
"640 75 LINE",
"100 75 LINE"
);
},
{
closed = 1;
nodes = (
"165 467 LINE",
"165 327 LINE",
"405 9 LINE",
"473 60 LINE"
);
},
{
closed = 1;
nodes = (
"310 260 LINE",
"225 260 LINE",
"225 0 LINE",
"310 0 LINE"
);
}
);
width = 740;
},
{
associatedMasterId = "C60226DB-E4D3-4E89-B452-CA8BAB7E3EC0";
layerId = "E9D88C6A-FF37-44CC-8796-DEB0325938A6";
name = "Apr 15 20, 10:44";
paths = (
{
closed = 1;
nodes = (
"100 685 LINE",
"640 685 LINE",
"640 760 LINE",
"100 760 LINE"
);
},
{
closed = 1;
nodes = (
"185 760 LINE",
"100 760 LINE",
"100 0 LINE",
"185 0 LINE"
);
},
{
closed = 1;
nodes = (
"100 0 LINE",
"640 0 LINE",
"640 75 LINE",
"100 75 LINE"
);
},
{
closed = 1;
nodes = (
"165 467 LINE",
"165 327 LINE",
"405 9 LINE",
"473 60 LINE"
);
},
{
closed = 1;
nodes = (
"310 260 LINE",
"225 260 LINE",
"225 0 LINE",
"310 0 LINE"
);
}
);
width = 740;
},
{
associatedMasterId = "C60226DB-E4D3-4E89-B452-CA8BAB7E3EC0";
layerId = "26849582-2854-46FE-8950-1A969D173AE8";
name = "Apr 15 20, 11:24";
paths = (
{
closed = 1;
nodes = (
"100 687 LINE",
"640 687 LINE",
"640 760 LINE",
"100 760 LINE"
);
},
{
closed = 1;
nodes = (
"183 760 LINE",
"100 760 LINE",
"100 0 LINE",
"183 0 LINE"
);
},
{
closed = 1;
nodes = (
"100 0 LINE",
"640 0 LINE",
"640 73 LINE",
"100 73 LINE"
);
},
{
closed = 1;
nodes = (
"163 467 LINE",
"165 327 LINE",
"405 9 LINE",
"471 60 LINE"
);
},
{
closed = 1;
nodes = (
"309 260 LINE",
"226 260 LINE",
"226 0 LINE",
"309 0 LINE"
);
}
);
width = 740;
},
{
associatedMasterId = "C60226DB-E4D3-4E89-B452-CA8BAB7E3EC0";
layerId = "E9FF5D54-1714-403B-B26C-C958A012937E";
name = "Apr 15 20, 15:45";
paths = (
{
closed = 1;
nodes = (
"100 687 LINE",
"640 687 LINE",
"640 760 LINE",
"100 760 LINE"
);
},
{
closed = 1;
nodes = (
"183 760 LINE",
"100 760 LINE",
"100 0 LINE",
"183 0 LINE"
);
},
{
closed = 1;
nodes = (
"100 0 LINE",
"640 0 LINE",
"640 73 LINE",
"100 73 LINE"
);
},
{
closed = 1;
nodes = (
"173 467 LINE",
"133 382 LINE",
"415 9 LINE",
"481 60 LINE"
);
},
{
closed = 1;
nodes = (
"309 280 LINE",
"226 280 LINE",
"226 0 LINE",
"309 0 LINE"
);
}
);
width = 710;
},
{
associatedMasterId = "C60226DB-E4D3-4E89-B452-CA8BAB7E3EC0";
layerId = "E54E432D-048E-471E-BEE2-0ED83225BEFC";
name = "Apr 16 20, 17:24";
paths = (
{
closed = 1;
nodes = (
"95 687 LINE",
"615 687 LINE",
"615 760 LINE",
"95 760 LINE"
);
},
{
closed = 1;
nodes = (
"178 760 LINE",
"95 760 LINE",
"95 0 LINE",
"178 0 LINE"
);
},
{
closed = 1;
nodes = (
"95 0 LINE",
"615 0 LINE",
"615 73 LINE",
"95 73 LINE"
);
},
{
closed = 1;
nodes = (
"146 497 LINE",
"117 397 LINE",
"410 9 LINE",
"476 60 LINE"
);
}
);
width = 687;
}
);
leftMetricsKey = A;
unicode = "0043,0063";
},
{
color = 3;
glyphname = Ccedilla;
lastChange = "2020-07-16 13:27:07 +0000";
layers = (
{
anchors = (
{
name = bottom;
position = "{365, 0}";
},
{
name = top;
position = "{365, 760}";
}
);
components = (
{
name = C;
}
);
layerId = "C60226DB-E4D3-4E89-B452-CA8BAB7E3EC0";
paths = (
{
closed = 1;
nodes = (
"436 97 LINE",
"323 97 LINE",
"323 -153 LINE",
"436 -153 LINE"
);
}
);
width = 755;
}
);
unicode = "00C7,00E7";
},
{
color = 3;
glyphname = D;
lastChange = "2020-07-22 12:31:47 +0000";
layers = (
{
anchors = (
{
name = bottom;
position = "{410, 0}";
},
{
name = center;
position = "{410, 380}";
},
{
name = top;
position = "{410, 760}";
}
);
layerId = "C60226DB-E4D3-4E89-B452-CA8BAB7E3EC0";
paths = (
{
closed = 1;
nodes = (
"755 0 LINE",
"755 310 LINE",
"642 310 LINE",
"642 0 LINE"
);
},
{
closed = 1;
nodes = (
"740 0 LINE",
"740 105 LINE",
"95 105 LINE",
"95 0 LINE"
);
},
{
closed = 1;
nodes = (
"95 760 LINE",
"95 0 LINE",
"208 0 LINE",
"208 760 LINE"
);
},
{
closed = 1;
nodes = (
"387 655 LINE",
"387 760 LINE",
"95 760 LINE",
"95 655 LINE"
);
},
{
closed = 1;
nodes = (
"317 724 LINE",
"317 0 LINE",
"430 0 LINE",
"430 629 LINE"
);
},
{
closed = 1;
nodes = (
"659 257 LINE",
"755 310 LINE",
"387 760 LINE",
"292 708 LINE"
);
},
{
closed = 1;
nodes = (
"740 173 LINE",
"740 278 LINE",
"95 278 LINE",
"95 173 LINE"
);
}
);
width = 830;
},
{
associatedMasterId = "C60226DB-E4D3-4E89-B452-CA8BAB7E3EC0";
layerId = "5C272C60-AF66-45C0-B9DE-E8FF6A7A3431";
name = "Apr 14 20, 23:06";
paths = (
{
closed = 1;
nodes = (
"555 0 LINE",
"640 0 LINE",
"640 760 LINE",
"555 760 LINE"
);
},
{
closed = 1;
nodes = (
"100 485 LINE",
"640 485 LINE",
"640 560 LINE",
"100 560 LINE"
);
},
{
closed = 1;
nodes = (
"185 560 LINE",
"100 560 LINE",
"100 0 LINE",
"185 0 LINE"
);
},
{
closed = 1;
nodes = (
"100 0 LINE",
"640 0 LINE",
"640 75 LINE",
"100 75 LINE"
);
},
{
closed = 1;
nodes = (
"360 215 LINE",
"640 215 LINE",
"640 290 LINE",
"360 290 LINE"
);
},
{
closed = 1;
nodes = (
"458 19 LINE",
"532 62 LINE",
"253 545 LINE",
"179 503 LINE"
);
}
);
width = 740;
},
{
associatedMasterId = "C60226DB-E4D3-4E89-B452-CA8BAB7E3EC0";
layerId = "4A7868BC-F1C3-468D-B8F7-0B34E6927617";
name = "Apr 15 20, 10:44";
paths = (
{
closed = 1;
nodes = (
"555 0 LINE",
"640 0 LINE",
"640 760 LINE",
"555 760 LINE"
);
},
{
closed = 1;
nodes = (
"100 485 LINE",
"640 485 LINE",
"640 560 LINE",
"100 560 LINE"
);
},
{
closed = 1;
nodes = (
"185 560 LINE",
"100 560 LINE",
"100 0 LINE",
"185 0 LINE"
);
},
{
closed = 1;
nodes = (
"100 0 LINE",
"640 0 LINE",
"640 75 LINE",
"100 75 LINE"
);
},
{
closed = 1;
nodes = (
"360 215 LINE",
"640 215 LINE",
"640 290 LINE",
"360 290 LINE"
);
},
{
closed = 1;
nodes = (
"458 19 LINE",
"532 62 LINE",
"253 545 LINE",
"179 503 LINE"
);
}
);
width = 740;
},
{
associatedMasterId = "C60226DB-E4D3-4E89-B452-CA8BAB7E3EC0";
layerId = "44D7F215-9D1B-400B-A327-3320720D3A6A";
name = "Apr 15 20, 11:24";
paths = (
{
closed = 1;
nodes = (
"557 0 LINE",
"640 0 LINE",
"640 760 LINE",
"557 760 LINE"
);
},
{
closed = 1;
nodes = (
"100 486 LINE",
"640 486 LINE",
"640 559 LINE",
"100 559 LINE"
);
},
{
closed = 1;
nodes = (
"183 559 LINE",
"100 559 LINE",
"100 0 LINE",
"183 0 LINE"
);
},
{
closed = 1;
nodes = (
"100 0 LINE",
"640 0 LINE",
"640 73 LINE",
"100 73 LINE"
);
},
{
closed = 1;
nodes = (
"360 216 LINE",
"640 216 LINE",
"640 289 LINE",
"360 289 LINE"
);
},
{
closed = 1;
nodes = (
"459 19 LINE",
"531 62 LINE",
"252 545 LINE",
"180 503 LINE"
);
}
);
width = 740;
},
{
associatedMasterId = "C60226DB-E4D3-4E89-B452-CA8BAB7E3EC0";
layerId = "ABE4245C-1D63-4D9B-B7BE-32CDAFE45822";
name = "Apr 15 20, 15:45";
paths = (
{
closed = 1;
nodes = (
"557 0 LINE",
"640 0 LINE",
"640 760 LINE",
"557 760 LINE"
);
},
{
closed = 1;
nodes = (
"80 486 LINE",
"640 486 LINE",
"640 559 LINE",
"80 559 LINE"
);
},
{
closed = 1;
nodes = (
"163 559 LINE",
"80 559 LINE",
"80 0 LINE",
"163 0 LINE"
);
},
{
closed = 1;
nodes = (
"80 0 LINE",
"640 0 LINE",
"640 73 LINE",
"80 73 LINE"
);
},
{
closed = 1;
nodes = (
"360 216 LINE",
"640 216 LINE",
"640 289 LINE",
"360 289 LINE"
);
},
{
closed = 1;
nodes = (
"459 19 LINE",
"531 62 LINE",
"252 545 LINE",
"180 503 LINE"
);
}
);
width = 740;
},
{
associatedMasterId = "C60226DB-E4D3-4E89-B452-CA8BAB7E3EC0";
background = {
paths = (
{
closed = 1;
nodes = (
"203 459 LINE",
"120 459 LINE",
"120 0 LINE",
"203 0 LINE"
);
},
{
closed = 1;
nodes = (
"680 73 LINE",
"120 73 LINE",
"120 0 LINE",
"680 0 LINE"
);
},
{
closed = 1;
nodes = (
"597 0 LINE",
"680 0 LINE",
"680 760 LINE",
"597 760 LINE"
);
},
{
closed = 1;
nodes = (
"680 459 LINE",
"120 459 LINE",
"120 386 LINE",
"680 386 LINE"
);
},
{
closed = 1;
nodes = (
"476 49 LINE",
"578 49 LINE",
"317 421 LINE",
"216 421 LINE"
);
},
{
closed = 1;
nodes = (
"680 259 LINE",
"400 259 LINE",
"400 186 LINE",
"680 186 LINE"
);
}
);
};
layerId = "C56B4C7D-1F61-46FF-91D8-3490EB79DD36";
name = "Apr 16 20, 17:24";
paths = (
{
closed = 1;
nodes = (
"572 0 LINE",
"655 0 LINE",
"655 760 LINE",
"572 760 LINE"
);
},
{
closed = 1;
nodes = (
"85 486 LINE",
"655 486 LINE",
"655 559 LINE",
"85 559 LINE"
);
},
{
closed = 1;
nodes = (
"168 559 LINE",
"85 559 LINE",
"85 0 LINE",
"168 0 LINE"
);
},
{
closed = 1;
nodes = (
"85 0 LINE",
"655 0 LINE",
"655 73 LINE",
"85 73 LINE"
);
},
{
closed = 1;
nodes = (
"365 216 LINE",
"655 216 LINE",
"655 289 LINE",
"365 289 LINE"
);
},
{
closed = 1;
nodes = (
"464 19 LINE",
"536 62 LINE",
"257 545 LINE",
"185 503 LINE"
);
}
);
width = 750;
},
{
associatedMasterId = "C60226DB-E4D3-4E89-B452-CA8BAB7E3EC0";
layerId = "A7B43AEF-CB1F-4A11-A81D-1C2F8D489F1F";
name = "Apr 23 20, 23:15";
paths = (
{
closed = 1;
nodes = (
"95 687 LINE",
"531 687 LINE",
"531 760 LINE",
"95 760 LINE"
);
},
{
closed = 1;
nodes = (
"178 760 LINE",
"95 760 LINE",
"95 0 LINE",
"178 0 LINE"
);
},
{
closed = 1;
nodes = (
"95 0 LINE",
"745 0 LINE",
"745 73 LINE",
"95 73 LINE"
);
},
{
closed = 1;
nodes = (
"95 222 LINE",
"645 222 LINE",
"645 295 LINE",
"95 295 LINE"
);
},
{
closed = 1;
nodes = (
"666 46 LINE",
"745 73 LINE",
"531 760 LINE",
"452 730 LINE"
);
},
{
closed = 1;
nodes = (
"302 0 LINE",
"385 0 LINE",
"385 760 LINE",
"302 760 LINE"
);
}
);
width = 785;
},
{
associatedMasterId = "C60226DB-E4D3-4E89-B452-CA8BAB7E3EC0";
layerId = "433D687B-135B-4552-8F02-44B3740442C4";
name = "Apr 23 20, 23:48";
paths = (
{
closed = 1;
nodes = (
"95 687 LINE",
"434 687 LINE",
"434 760 LINE",
"95 760 LINE"
);
},
{
closed = 1;
nodes = (
"178 760 LINE",
"95 760 LINE",
"95 0 LINE",
"178 0 LINE"
);
},
{
closed = 1;
nodes = (
"95 0 LINE",
"715 0 LINE",
"715 73 LINE",
"95 73 LINE"
);
},
{
closed = 1;
nodes = (
"95 186 LINE",
"715 186 LINE",
"715 259 LINE",
"95 259 LINE"
);
},
{
closed = 1;
nodes = (
"302 0 LINE",
"385 0 LINE",
"385 760 LINE",
"302 760 LINE"
);
},
{
closed = 1;
nodes = (
"673 0 LINE",
"756 0 LINE",
"756 333 LINE",
"673 333 LINE"
);
},
{
closed = 1;
nodes = (
"692 280 LINE",
"756 333 LINE",
"434 760 LINE",
"368 709 LINE"
);
}
);
width = 816;
}
);
leftMetricsKey = A;
unicode = "0044,0064";
},
{
color = 3;
glyphname = E;
lastChange = "2020-07-16 13:27:07 +0000";
layers = (
{
anchors = (
{
name = bottom;
position = "{380, 0}";
},
{
name = ogonek;
position = "{680, 10}";
},
{
name = top;
position = "{380, 760}";
},
{
name = topleft;
position = "{25, 760}";
}
);
layerId = "C60226DB-E4D3-4E89-B452-CA8BAB7E3EC0";
paths = (
{
closed = 1;
nodes = (
"110 439 LINE",
"675 439 LINE",
"675 544 LINE",
"110 544 LINE"
);
},
{
closed = 1;
nodes = (
"95 655 LINE",
"685 655 LINE",
"685 760 LINE",
"95 760 LINE"
);
},
{
closed = 1;
nodes = (
"208 760 LINE",
"95 760 LINE",
"95 0 LINE",
"208 0 LINE"
);
},
{
closed = 1;
nodes = (
"95 0 LINE",
"690 0 LINE",
"690 105 LINE",
"95 105 LINE"
);
},
{
closed = 1;
nodes = (
"178 497 LINE",
"115 397 LINE",
"408 9 LINE",
"508 60 LINE"
);
},
{
closed = 1;
nodes = (
"430 760 LINE",
"317 760 LINE",
"317 170 LINE",
"430 110 LINE"
);
}
);
width = 760;
},
{
associatedMasterId = "C60226DB-E4D3-4E89-B452-CA8BAB7E3EC0";
layerId = "81A34514-6F9E-463A-AB8E-00E4634C75C2";
name = "Apr 14 20, 23:06";
paths = (
{
closed = 1;
nodes = (
"100 685 LINE",
"640 685 LINE",
"640 760 LINE",
"100 760 LINE"
);
},
{
closed = 1;
nodes = (
"185 760 LINE",
"100 760 LINE",
"100 0 LINE",
"185 0 LINE"
);
},
{
closed = 1;
nodes = (
"100 0 LINE",
"640 0 LINE",
"640 75 LINE",
"100 75 LINE"
);
},
{
closed = 1;
nodes = (
"100 505 LINE",
"640 505 LINE",
"640 580 LINE",
"100 580 LINE"
);
},
{
closed = 1;
nodes = (
"390 760 LINE",
"305 760 LINE",
"305 150 LINE",
"390 150 LINE"
);
},
{
closed = 1;
nodes = (
"165 467 LINE",
"165 327 LINE",
"405 9 LINE",
"473 60 LINE"
);
}
);
width = 740;
},
{
associatedMasterId = "C60226DB-E4D3-4E89-B452-CA8BAB7E3EC0";
layerId = "16B4713B-4A56-4E34-8BDF-37D4376B6FD1";
name = "Apr 15 20, 10:44";
paths = (
{
closed = 1;
nodes = (
"100 685 LINE",
"640 685 LINE",
"640 760 LINE",
"100 760 LINE"
);
},
{
closed = 1;
nodes = (
"185 760 LINE",
"100 760 LINE",
"100 0 LINE",
"185 0 LINE"
);
},
{
closed = 1;
nodes = (
"100 0 LINE",
"640 0 LINE",
"640 75 LINE",
"100 75 LINE"
);
},
{
closed = 1;
nodes = (
"100 505 LINE",
"640 505 LINE",
"640 580 LINE",
"100 580 LINE"
);
},
{
closed = 1;
nodes = (
"390 760 LINE",
"305 760 LINE",
"305 150 LINE",
"390 150 LINE"
);
},
{
closed = 1;
nodes = (
"165 467 LINE",
"165 327 LINE",
"405 9 LINE",
"473 60 LINE"
);
}
);
width = 740;
},
{
associatedMasterId = "C60226DB-E4D3-4E89-B452-CA8BAB7E3EC0";
layerId = "45B85FF7-C9E4-46AA-82D6-4130E1076209";
name = "Apr 15 20, 11:24";
paths = (
{
closed = 1;
nodes = (
"100 687 LINE",
"640 687 LINE",
"640 760 LINE",
"100 760 LINE"
);
},
{
closed = 1;
nodes = (
"183 760 LINE",
"100 760 LINE",
"100 0 LINE",
"183 0 LINE"
);
},
{
closed = 1;
nodes = (
"100 0 LINE",
"640 0 LINE",
"640 73 LINE",
"100 73 LINE"
);
},
{
closed = 1;
nodes = (
"100 506 LINE",
"640 506 LINE",
"640 579 LINE",
"100 579 LINE"
);
},
{
closed = 1;
nodes = (
"389 760 LINE",
"306 760 LINE",
"306 150 LINE",
"389 150 LINE"
);
},
{
closed = 1;
nodes = (
"163 467 LINE",
"165 327 LINE",
"405 9 LINE",
"471 60 LINE"
);
}
);
width = 740;
},
{
associatedMasterId = "C60226DB-E4D3-4E89-B452-CA8BAB7E3EC0";
layerId = "08BAA0D0-9E16-4202-9D95-AF2C1C5FCCDF";
name = "Apr 15 20, 15:45";
paths = (
{
closed = 1;
nodes = (
"100 687 LINE",
"640 687 LINE",
"640 760 LINE",
"100 760 LINE"
);
},
{
closed = 1;
nodes = (
"183 760 LINE",
"100 760 LINE",
"100 0 LINE",
"183 0 LINE"
);
},
{
closed = 1;
nodes = (
"100 0 LINE",
"640 0 LINE",
"640 73 LINE",
"100 73 LINE"
);
},
{
closed = 1;
nodes = (
"100 506 LINE",
"640 506 LINE",
"640 579 LINE",
"100 579 LINE"
);
},
{
closed = 1;
nodes = (
"389 760 LINE",
"306 760 LINE",
"306 170 LINE",
"389 170 LINE"
);
},
{
closed = 1;
nodes = (
"151 497 LINE",
"122 397 LINE",
"415 9 LINE",
"481 60 LINE"
);
}
);
width = 730;
},
{
associatedMasterId = "C60226DB-E4D3-4E89-B452-CA8BAB7E3EC0";
layerId = "2E07F2F9-4805-4DCF-BED3-DDE5BF7E63EB";
name = "Apr 16 20, 17:24";
paths = (
{
closed = 1;
nodes = (
"95 687 LINE",
"615 687 LINE",
"615 760 LINE",
"95 760 LINE"
);
},
{
closed = 1;
nodes = (
"178 760 LINE",
"95 760 LINE",
"95 0 LINE",
"178 0 LINE"
);
},
{
closed = 1;
nodes = (
"95 0 LINE",
"615 0 LINE",
"615 73 LINE",
"95 73 LINE"
);
},
{
closed = 1;
nodes = (
"95 501 LINE",
"615 501 LINE",
"615 574 LINE",
"95 574 LINE"
);
},
{
closed = 1;
nodes = (
"384 760 LINE",
"301 760 LINE",
"301 170 LINE",
"384 170 LINE"
);
},
{
closed = 1;
nodes = (
"146 497 LINE",
"117 397 LINE",
"410 9 LINE",
"476 60 LINE"
);
}
);
width = 700;
}
);
leftMetricsKey = A;
unicode = "0045,0065";
},
{
color = 3;
glyphname = F;
lastChange = "2020-07-16 13:27:07 +0000";
layers = (
{
anchors = (
{
name = bottom;
position = "{378, 0}";
},
{
name = top;
position = "{378, 760}";
}
);
layerId = "C60226DB-E4D3-4E89-B452-CA8BAB7E3EC0";
paths = (
{
closed = 1;
nodes = (
"95 655 LINE",
"680 655 LINE",
"680 760 LINE",
"95 760 LINE"
);
},
{
closed = 1;
nodes = (
"208 760 LINE",
"95 760 LINE",
"95 0 LINE",
"208 0 LINE"
);
},
{
closed = 1;
nodes = (
"95 434 LINE",
"670 434 LINE",
"670 539 LINE",
"95 539 LINE"
);
},
{
closed = 1;
nodes = (
"430 760 LINE",
"317 760 LINE",
"317 0 LINE",
"430 0 LINE"
);
}
);
width = 745;
},
{
associatedMasterId = "C60226DB-E4D3-4E89-B452-CA8BAB7E3EC0";
layerId = "AD4A54D3-EB48-4620-8946-37F15872CC1C";
name = "Apr 14 20, 23:06";
width = 740;
},
{
associatedMasterId = "C60226DB-E4D3-4E89-B452-CA8BAB7E3EC0";
layerId = "D4C0D4F3-E18C-47C8-A86A-8161FA1197A6";
name = "Apr 15 20, 15:45";
width = 740;
},
{
associatedMasterId = "C60226DB-E4D3-4E89-B452-CA8BAB7E3EC0";
layerId = "535449B6-2B69-4D37-88FB-1DAE1DE08744";
name = "Apr 16 20, 17:24";
paths = (
{
closed = 1;
nodes = (
"95 687 LINE",
"615 687 LINE",
"615 760 LINE",
"95 760 LINE"
);
},
{
closed = 1;
nodes = (
"178 760 LINE",
"95 760 LINE",
"95 0 LINE",
"178 0 LINE"
);
},
{
closed = 1;
nodes = (
"95 501 LINE",
"615 501 LINE",
"615 574 LINE",
"95 574 LINE"
);
},
{
closed = 1;
nodes = (
"384 760 LINE",
"301 760 LINE",
"301 0 LINE",
"384 0 LINE"
);
}
);
width = 690;
}
);
leftMetricsKey = A;
unicode = "0046,0066";
},
{
color = 3;
glyphname = G;
lastChange = "2020-07-16 13:27:07 +0000";
layers = (
{
anchors = (
{
name = bottom;
position = "{410, 0}";
},
{
name = top;
position = "{410, 760}";
}
);
layerId = "C60226DB-E4D3-4E89-B452-CA8BAB7E3EC0";
paths = (
{
closed = 1;
nodes = (
"607 0 LINE",
"720 0 LINE",
"720 562 LINE",
"607 562 LINE"
);
},
{
closed = 1;
nodes = (
"95 655 LINE",
"720 655 LINE",
"720 760 LINE",
"95 760 LINE"
);
},
{
closed = 1;
nodes = (
"208 760 LINE",
"95 760 LINE",
"95 0 LINE",
"208 0 LINE"
);
},
{
closed = 1;
nodes = (
"95 0 LINE",
"720 0 LINE",
"720 105 LINE",
"95 105 LINE"
);
},
{
closed = 1;
nodes = (
"520 457 LINE",
"720 457 LINE",
"720 562 LINE",
"520 562 LINE"
);
},
{
closed = 1;
nodes = (
"307 11 LINE",
"619 525 LINE",
"520 562 LINE",
"210 52 LINE"
);
},
{
closed = 1;
nodes = (
"720 278 LINE",
"95 278 LINE",
"95 173 LINE",
"720 173 LINE"
);
}
);
width = 815;
}
);
leftMetricsKey = A;
rightMetricsKey = A;
unicode = "0047,0067";
},
{
color = 3;
glyphname = H;
lastChange = "2020-07-16 13:27:07 +0000";
layers = (
{
anchors = (
{
name = bottom;
position = "{418, 0}";
},
{
name = center;
position = "{418, 380}";
},
{
name = top;
position = "{418, 760}";
},
{
name = topleft;
position = "{40, 760}";
}
);
layerId = "C60226DB-E4D3-4E89-B452-CA8BAB7E3EC0";
paths = (
{
closed = 1;
nodes = (
"627 0 LINE",
"740 0 LINE",
"740 760 LINE",
"627 760 LINE"
);
},
{
closed = 1;
nodes = (
"95 365 LINE",
"740 365 LINE",
"740 470 LINE",
"95 470 LINE"
);
},
{
closed = 1;
nodes = (
"208 760 LINE",
"95 760 LINE",
"95 0 LINE",
"208 0 LINE"
);
},
{
closed = 1;
nodes = (
"95 0 LINE",
"313 0 LINE",
"313 105 LINE",
"95 105 LINE"
);
},
{
closed = 1;
nodes = (
"313 0 LINE",
"571 414 LINE",
"475 448 LINE",
"218 36 LINE"
);
}
);
width = 835;
}
);
leftMetricsKey = A;
rightMetricsKey = A;
unicode = "0048,0068";
},
{
color = 3;
glyphname = I;
lastChange = "2020-07-16 13:27:07 +0000";
layers = (
{
anchors = (
{
name = bottom;
position = "{356, 0}";
},
{
name = ogonek;
position = "{636, 10}";
},
{
name = top;
position = "{356, 760}";
},
{
name = topleft;
position = "{25, 760}";
}
);
layerId = "C60226DB-E4D3-4E89-B452-CA8BAB7E3EC0";
paths = (
{
closed = 1;
nodes = (
"70 655 LINE",
"641 655 LINE",
"641 760 LINE",
"70 760 LINE"
);
},
{
closed = 1;
nodes = (
"301 760 LINE",
"188 760 LINE",
"188 0 LINE",
"301 0 LINE"
);
},
{
closed = 1;
nodes = (
"523 760 LINE",
"410 760 LINE",
"410 0 LINE",
"523 0 LINE"
);
},
{
closed = 1;
nodes = (
"70 0 LINE",
"641 0 LINE",
"641 105 LINE",
"70 105 LINE"
);
},
{
closed = 1;
nodes = (
"188 435 LINE",
"523 435 LINE",
"523 540 LINE",
"188 540 LINE"
);
}
);
width = 711;
},
{
associatedMasterId = "C60226DB-E4D3-4E89-B452-CA8BAB7E3EC0";
layerId = "2BFCC143-5D76-4710-A9F3-25907264A695";
name = "Apr 14 20, 23:06";
width = 740;
},
{
associatedMasterId = "C60226DB-E4D3-4E89-B452-CA8BAB7E3EC0";
layerId = "52A84ACE-D139-4271-BDE9-9F5EC71E4FCC";
name = "Apr 15 20, 15:45";
width = 740;
},
{
associatedMasterId = "C60226DB-E4D3-4E89-B452-CA8BAB7E3EC0";
background = {
paths = (
{
closed = 1;
nodes = (
"371 0 LINE",
"454 0 LINE",
"454 760 LINE",
"371 760 LINE"
);
},
{
closed = 1;
nodes = (
"178 600 LINE",
"95 600 LINE",
"95 0 LINE",
"178 0 LINE"
);
}
);
};
layerId = "7F1E6544-CEBE-4026-81A9-5891AAE9B2C3";
name = "Apr 16 20, 17:24";
paths = (
{
closed = 1;
nodes = (
"95 687 LINE",
"419 687 LINE",
"419 760 LINE",
"95 760 LINE"
);
},
{
closed = 1;
nodes = (
"178 760 LINE",
"95 760 LINE",
"95 0 LINE",
"178 0 LINE"
);
},
{
closed = 1;
nodes = (
"95 0 LINE",
"419 0 LINE",
"419 73 LINE",
"95 73 LINE"
);
},
{
closed = 1;
nodes = (
"95 501 LINE",
"419 501 LINE",
"419 574 LINE",
"95 574 LINE"
);
},
{
closed = 1;
nodes = (
"419 760 LINE",
"336 760 LINE",
"336 0 LINE",
"419 0 LINE"
);
}
);
width = 514;
}
);
unicode = "0049,0069";
},
{
color = 3;
glyphname = J;
lastChange = "2020-07-16 13:27:07 +0000";
layers = (
{
anchors = (
{
name = bottom;
position = "{375, 0}";
},
{
name = top;
position = "{375, 760}";
}
);
layerId = "C60226DB-E4D3-4E89-B452-CA8BAB7E3EC0";
paths = (
{
closed = 1;
nodes = (
"105 655 LINE",
"734 655 LINE",
"734 760 LINE",
"105 760 LINE"
);
},
{
closed = 1;
nodes = (
"365 760 LINE",
"252 760 LINE",
"252 160 LINE",
"365 160 LINE"
);
},
{
closed = 1;
nodes = (
"587 760 LINE",
"474 760 LINE",
"474 0 LINE",
"587 0 LINE"
);
},
{
closed = 1;
nodes = (
"45 0 LINE",
"587 0 LINE",
"587 105 LINE",
"45 105 LINE"
);
},
{
closed = 1;
nodes = (
"245 0 LINE",
"548 371 LINE",
"488 458 LINE",
"154 50 LINE"
);
}
);
width = 764;
},
{
associatedMasterId = "C60226DB-E4D3-4E89-B452-CA8BAB7E3EC0";
layerId = "0AF38DBD-6214-4ABF-9E18-B033BC585277";
name = "Apr 14 20, 23:06";
width = 740;
},
{
associatedMasterId = "C60226DB-E4D3-4E89-B452-CA8BAB7E3EC0";
layerId = "7306A697-E3AD-48ED-91B3-110F54936B6A";
name = "Apr 15 20, 15:45";
width = 740;
},
{
associatedMasterId = "C60226DB-E4D3-4E89-B452-CA8BAB7E3EC0";
layerId = "286C0DC3-F692-4702-9BC1-5C8C8A3F02A3";
name = "Apr 16 20, 17:24";
paths = (
{
closed = 1;
nodes = (
"263 687 LINE",
"587 687 LINE",
"587 760 LINE",
"263 760 LINE"
);
},
{
closed = 1;
nodes = (
"346 760 LINE",
"263 760 LINE",
"263 110 LINE",
"346 110 LINE"
);
},
{
closed = 1;
nodes = (
"263 501 LINE",
"587 501 LINE",
"587 574 LINE",
"263 574 LINE"
);
},
{
closed = 1;
nodes = (
"587 760 LINE",
"504 760 LINE",
"504 411 LINE",
"587 411 LINE"
);
},
{
closed = 1;
nodes = (
"50 0 LINE",
"261 0 LINE",
"261 73 LINE",
"50 73 LINE"
);
},
{
closed = 1;
nodes = (
"261 0 LINE",
"587 411 LINE",
"530 456 LINE",
"204 45 LINE"
);
}
);
width = 667;
},
{
associatedMasterId = "C60226DB-E4D3-4E89-B452-CA8BAB7E3EC0";
layerId = "751D236C-D596-4506-AA60-AB773B8DA0F5";
name = "Apr 21 20, 00:58";
paths = (
{
closed = 1;
nodes = (
"380 760 LINE",
"297 760 LINE",
"297 150 LINE",
"380 150 LINE"
);
},
{
closed = 1;
nodes = (
"587 760 LINE",
"504 760 LINE",
"504 411 LINE",
"587 411 LINE"
);
},
{
closed = 1;
nodes = (
"50 0 LINE",
"261 0 LINE",
"261 73 LINE",
"50 73 LINE"
);
},
{
closed = 1;
nodes = (
"261 0 LINE",
"587 411 LINE",
"530 456 LINE",
"204 45 LINE"
);
},
{
closed = 1;
nodes = (
"147 687 LINE",
"737 687 LINE",
"737 760 LINE",
"147 760 LINE"
);
}
);
width = 787;
}
);
unicode = "004A,006A";
},
{
color = 3;
glyphname = K;
lastChange = "2020-07-16 13:27:07 +0000";
layers = (
{
anchors = (
{
name = bottom;
position = "{385, 0}";
},
{
name = top;
position = "{385, 760}";
}
);
layerId = "C60226DB-E4D3-4E89-B452-CA8BAB7E3EC0";
paths = (
{
closed = 1;
nodes = (
"208 760 LINE",
"95 760 LINE",
"95 0 LINE",
"208 0 LINE"
);
},
{
closed = 1;
nodes = (
"95 429 LINE",
"679 429 LINE",
"679 534 LINE",
"95 534 LINE"
);
},
{
closed = 1;
nodes = (
"550 760 LINE",
"159 284 LINE",
"185 161 LINE",
"677 760 LINE"
);
},
{
closed = 1;
nodes = (
"699 0 LINE",
"384 455 LINE",
"291 399 LINE",
"568 0 LINE"
);
},
{
closed = 1;
nodes = (
"679 760 LINE",
"566 760 LINE",
"566 429 LINE",
"679 429 LINE"
);
}
);
width = 774;
}
);
leftMetricsKey = A;
unicode = "004B,006B";
},
{
color = 3;
glyphname = L;
lastChange = "2020-07-16 21:56:13 +0000";
layers = (
{
anchors = (
{
name = bottom;
position = "{375, 0}";
},
{
name = center;
position = "{375, 380}";
},
{
name = top;
position = "{375, 760}";
},
{
name = topright;
position = "{710, 760}";
}
);
layerId = "C60226DB-E4D3-4E89-B452-CA8BAB7E3EC0";
paths = (
{
closed = 1;
nodes = (
"208 760 LINE",
"95 760 LINE",
"95 0 LINE",
"208 0 LINE"
);
},
{
closed = 1;
nodes = (
"95 0 LINE",
"690 0 LINE",
"690 105 LINE",
"95 105 LINE"
);
},
{
closed = 1;
nodes = (
"178 497 LINE",
"115 397 LINE",
"408 9 LINE",
"508 60 LINE"
);
},
{
closed = 1;
nodes = (
"430 760 LINE",
"317 760 LINE",
"317 170 LINE",
"430 110 LINE"
);
}
);
width = 745;
},
{
associatedMasterId = "C60226DB-E4D3-4E89-B452-CA8BAB7E3EC0";
layerId = "CA5448C5-C9A6-4274-AB22-74B8E2171087";
name = "Apr 14 20, 23:06";
width = 740;
},
{
associatedMasterId = "C60226DB-E4D3-4E89-B452-CA8BAB7E3EC0";
layerId = "9871968E-509A-43A7-BCD6-B13B3A2243A5";
name = "Apr 15 20, 15:45";
width = 740;
},
{
associatedMasterId = "C60226DB-E4D3-4E89-B452-CA8BAB7E3EC0";
layerId = "46DFC50D-9750-4339-B12A-934897371B2D";
name = "Apr 16 20, 17:24";
paths = (
{
closed = 1;
nodes = (
"178 760 LINE",
"95 760 LINE",
"95 0 LINE",
"178 0 LINE"
);
},
{
closed = 1;
nodes = (
"95 0 LINE",
"615 0 LINE",
"615 73 LINE",
"95 73 LINE"
);
},
{
closed = 1;
nodes = (
"146 497 LINE",
"117 397 LINE",
"410 9 LINE",
"476 60 LINE"
);
},
{
closed = 1;
nodes = (
"233 760 LINE",
"233 0 LINE",
"316 0 LINE",
"316 760 LINE"
);
}
);
width = 675;
}
);
leftMetricsKey = A;
unicode = "004C,006C";
},
{
color = 3;
glyphname = M;
lastChange = "2020-07-16 13:27:07 +0000";
layers = (
{
anchors = (
{
name = bottom;
position = "{449, 0}";
},
{
name = top;
position = "{449, 760}";
}
);
background = {
paths = (
{
closed = 1;
nodes = (
"734 0 LINE",
"817 0 LINE",
"817 760 LINE",
"734 760 LINE"
);
},
{
closed = 1;
nodes = (
"110 685 LINE",
"817 685 LINE",
"817 760 LINE",
"110 760 LINE"
);
},
{
closed = 1;
nodes = (
"193 760 LINE",
"110 760 LINE",
"110 0 LINE",
"193 0 LINE"
);
},
{
closed = 1;
nodes = (
"493 676 LINE",
"410 656 LINE",
"410 0 LINE",
"493 0 LINE"
);
},
{
closed = 1;
nodes = (
"343 760 LINE",
"260 760 LINE",
"260 0 LINE",
"343 0 LINE"
);
},
{
closed = 1;
nodes = (
"484 760 LINE",
"116 310 LINE",
"174 262 LINE",
"544 714 LINE"
);
}
);
};
layerId = "C60226DB-E4D3-4E89-B452-CA8BAB7E3EC0";
paths = (
{
closed = 1;
nodes = (
"208 760 LINE",
"95 760 LINE",
"95 0 LINE",
"208 0 LINE"
);
},
{
closed = 1;
nodes = (
"719 0 LINE",
"832 0 LINE",
"832 760 LINE",
"719 760 LINE"
);
},
{
closed = 1;
nodes = (
"832 760 LINE",
"95 760 LINE",
"95 655 LINE",
"832 655 LINE"
);
},
{
closed = 1;
nodes = (
"317 0 LINE",
"430 0 LINE",
"430 597 LINE",
"317 547 LINE"
);
},
{
closed = 1;
nodes = (
"467 760 LINE",
"99 310 LINE",
"191 262 LINE",
"561 714 LINE"
);
}
);
width = 927;
},
{
associatedMasterId = "C60226DB-E4D3-4E89-B452-CA8BAB7E3EC0";
layerId = "EBB66B44-EC65-4C1B-886A-C9BBB3CB9301";
name = "Apr 14 20, 23:06";
paths = (
{
closed = 1;
nodes = (
"555 0 LINE",
"640 0 LINE",
"640 760 LINE",
"555 760 LINE"
);
},
{
closed = 1;
nodes = (
"100 685 LINE",
"640 685 LINE",
"640 760 LINE",
"100 760 LINE"
);
},
{
closed = 1;
nodes = (
"185 760 LINE",
"100 760 LINE",
"100 0 LINE",
"185 0 LINE"
);
},
{
closed = 1;
nodes = (
"435 660 LINE",
"350 620 LINE",
"350 0 LINE",
"435 0 LINE"
);
},
{
closed = 1;
nodes = (
"310 760 LINE",
"225 760 LINE",
"225 0 LINE",
"310 0 LINE"
);
},
{
closed = 1;
nodes = (
"155 135 LINE",
"470 704 LINE",
"405 740 LINE",
"123 231 LINE"
);
}
);
width = 740;
},
{
associatedMasterId = "C60226DB-E4D3-4E89-B452-CA8BAB7E3EC0";
layerId = "7491773F-5527-4802-83F7-4A3EFDC35FE1";
name = "Apr 15 20, 10:44";
paths = (
{
closed = 1;
nodes = (
"555 0 LINE",
"640 0 LINE",
"640 760 LINE",
"555 760 LINE"
);
},
{
closed = 1;
nodes = (
"100 685 LINE",
"640 685 LINE",
"640 760 LINE",
"100 760 LINE"
);
},
{
closed = 1;
nodes = (
"185 760 LINE",
"100 760 LINE",
"100 0 LINE",
"185 0 LINE"
);
},
{
closed = 1;
nodes = (
"435 660 LINE",
"350 620 LINE",
"350 0 LINE",
"435 0 LINE"
);
},
{
closed = 1;
nodes = (
"310 760 LINE",
"225 760 LINE",
"225 0 LINE",
"310 0 LINE"
);
},
{
closed = 1;
nodes = (
"155 135 LINE",
"470 704 LINE",
"405 740 LINE",
"123 231 LINE"
);
}
);
width = 740;
},
{
associatedMasterId = "C60226DB-E4D3-4E89-B452-CA8BAB7E3EC0";
layerId = "D78F948F-5FF3-4F14-BBFA-7791FEBB7953";
name = "Apr 15 20, 11:24";
paths = (
{
closed = 1;
nodes = (
"557 0 LINE",
"640 0 LINE",
"640 760 LINE",
"557 760 LINE"
);
},
{
closed = 1;
nodes = (
"100 687 LINE",
"640 687 LINE",
"640 760 LINE",
"100 760 LINE"
);
},
{
closed = 1;
nodes = (
"183 760 LINE",
"100 760 LINE",
"100 0 LINE",
"183 0 LINE"
);
},
{
closed = 1;
nodes = (
"433 660 LINE",
"350 620 LINE",
"350 0 LINE",
"433 0 LINE"
);
},
{
closed = 1;
nodes = (
"308 760 LINE",
"225 760 LINE",
"225 0 LINE",
"308 0 LINE"
);
},
{
closed = 1;
nodes = (
"154 135 LINE",
"469 704 LINE",
"406 740 LINE",
"124 231 LINE"
);
}
);
width = 740;
},
{
associatedMasterId = "C60226DB-E4D3-4E89-B452-CA8BAB7E3EC0";
layerId = "5F5D3015-7BE5-4053-8FBD-93405ED6993A";
name = "Apr 15 20, 15:45";
paths = (
{
closed = 1;
nodes = (
"617 0 LINE",
"700 0 LINE",
"700 760 LINE",
"617 760 LINE"
);
},
{
closed = 1;
nodes = (
"100 687 LINE",
"700 687 LINE",
"700 760 LINE",
"100 760 LINE"
);
},
{
closed = 1;
nodes = (
"183 760 LINE",
"100 760 LINE",
"100 0 LINE",
"183 0 LINE"
);
},
{
closed = 1;
nodes = (
"453 690 LINE",
"370 620 LINE",
"370 0 LINE",
"453 0 LINE"
);
},
{
closed = 1;
nodes = (
"318 760 LINE",
"235 760 LINE",
"235 0 LINE",
"318 0 LINE"
);
},
{
closed = 1;
nodes = (
"174 135 LINE",
"489 704 LINE",
"426 740 LINE",
"144 231 LINE"
);
}
);
width = 800;
},
{
associatedMasterId = "C60226DB-E4D3-4E89-B452-CA8BAB7E3EC0";
layerId = "191F9044-0F65-415A-ADE3-DE1EC59613EB";
name = "Apr 16 20, 17:24";
paths = (
{
closed = 1;
nodes = (
"647 0 LINE",
"730 0 LINE",
"730 760 LINE",
"647 760 LINE"
);
},
{
closed = 1;
nodes = (
"95 687 LINE",
"730 687 LINE",
"730 760 LINE",
"95 760 LINE"
);
},
{
closed = 1;
nodes = (
"178 760 LINE",
"95 760 LINE",
"95 0 LINE",
"178 0 LINE"
);
},
{
closed = 1;
nodes = (
"454 606 LINE",
"371 606 LINE",
"371 0 LINE",
"454 0 LINE"
);
},
{
closed = 1;
nodes = (
"316 760 LINE",
"233 760 LINE",
"233 0 LINE",
"316 0 LINE"
);
},
{
closed = 1;
nodes = (
"165 187 LINE",
"529 707 LINE",
"469 749 LINE",
"105 229 LINE"
);
}
);
width = 825;
},
{
anchors = (
{
name = bottom;
position = "{429, 0}";
},
{
name = top;
position = "{429, 760}";
}
);
associatedMasterId = "C60226DB-E4D3-4E89-B452-CA8BAB7E3EC0";
background = {
paths = (
{
closed = 1;
nodes = (
"188 760 LINE",
"75 760 LINE",
"75 0 LINE",
"188 0 LINE"
);
},
{
closed = 1;
nodes = (
"741 275 LINE",
"75 275 LINE",
"75 170 LINE",
"741 170 LINE"
);
},
{
closed = 1;
nodes = (
"628 0 LINE",
"741 0 LINE",
"741 760 LINE",
"628 760 LINE"
);
},
{
closed = 1;
nodes = (
"741 760 LINE",
"75 760 LINE",
"75 655 LINE",
"741 655 LINE"
);
},
{
closed = 1;
nodes = (
"297 0 LINE",
"410 0 LINE",
"410 627 LINE",
"297 527 LINE"
);
},
{
closed = 1;
nodes = (
"447 760 LINE",
"79 310 LINE",
"171 262 LINE",
"541 714 LINE"
);
},
{
closed = 1;
nodes = (
"188 760 LINE",
"75 760 LINE",
"75 0 LINE",
"188 0 LINE"
);
},
{
closed = 1;
nodes = (
"741 275 LINE",
"75 275 LINE",
"75 170 LINE",
"741 170 LINE"
);
},
{
closed = 1;
nodes = (
"628 0 LINE",
"741 0 LINE",
"741 760 LINE",
"628 760 LINE"
);
},
{
closed = 1;
nodes = (
"741 760 LINE",
"75 760 LINE",
"75 655 LINE",
"741 655 LINE"
);
},
{
closed = 1;
nodes = (
"297 0 LINE",
"410 0 LINE",
"410 627 LINE",
"297 527 LINE"
);
},
{
closed = 1;
nodes = (
"447 760 LINE",
"79 310 LINE",
"171 262 LINE",
"541 714 LINE"
);
}
);
};
layerId = "6F8FCD8C-AD06-4173-A679-D762D62508BB";
name = "Jun 1 20, 23:00";
paths = (
{
closed = 1;
nodes = (
"684 0 LINE",
"767 0 LINE",
"767 760 LINE",
"684 760 LINE"
);
},
{
closed = 1;
nodes = (
"90 685 LINE",
"767 685 LINE",
"767 760 LINE",
"90 760 LINE"
);
},
{
closed = 1;
nodes = (
"173 760 LINE",
"90 760 LINE",
"90 0 LINE",
"173 0 LINE"
);
},
{
closed = 1;
nodes = (
"473 676 LINE",
"390 656 LINE",
"390 0 LINE",
"473 0 LINE"
);
},
{
closed = 1;
nodes = (
"323 760 LINE",
"240 760 LINE",
"240 0 LINE",
"323 0 LINE"
);
},
{
closed = 1;
nodes = (
"464 760 LINE",
"96 310 LINE",
"154 262 LINE",
"524 714 LINE"
);
}
);
width = 857;
}
);
leftMetricsKey = A;
rightMetricsKey = A;
unicode = "004D,006D";
},
{
color = 3;
glyphname = N;
lastChange = "2020-07-16 13:27:07 +0000";
layers = (
{
anchors = (
{
name = bottom;
position = "{435, 0}";
},
{
name = top;
position = "{435, 760}";
}
);
background = {
paths = (
{
closed = 1;
nodes = (
"648 0 LINE",
"761 0 LINE",
"761 760 LINE",
"648 760 LINE"
);
},
{
closed = 1;
nodes = (
"95 655 LINE",
"761 655 LINE",
"761 760 LINE",
"95 760 LINE"
);
},
{
closed = 1;
nodes = (
"208 760 LINE",
"95 760 LINE",
"95 0 LINE",
"208 0 LINE"
);
},
{
closed = 1;
nodes = (
"95 0 LINE",
"761 0 LINE",
"761 105 LINE",
"95 105 LINE"
);
},
{
closed = 1;
nodes = (
"430 610 LINE",
"317 740 LINE",
"317 0 LINE",
"430 0 LINE"
);
},
{
closed = 1;
nodes = (
"660 34 LINE",
"740 126 LINE",
"408 750 LINE",
"301 708 LINE"
);
}
);
};
layerId = "C60226DB-E4D3-4E89-B452-CA8BAB7E3EC0";
paths = (
{
closed = 1;
nodes = (
"95 760 LINE",
"95 0 LINE",
"208 0 LINE",
"208 760 LINE"
);
},
{
closed = 1;
nodes = (
"760 0 LINE",
"760 760 LINE",
"647 760 LINE",
"647 0 LINE"
);
},
{
closed = 1;
nodes = (
"596 105 LINE",
"596 0 LINE",
"760 0 LINE",
"760 105 LINE"
);
},
{
closed = 1;
nodes = (
"330 760 LINE",
"209 760 LINE",
"542 0 LINE",
"662 0 LINE"
);
},
{
closed = 1;
nodes = (
"95 760 LINE",
"95 655 LINE",
"283 655 LINE",
"283 760 LINE"
);
},
{
closed = 1;
nodes = (
"430 389 LINE",
"317 700 LINE",
"317 0 LINE",
"430 0 LINE"
);
}
);
width = 855;
},
{
associatedMasterId = "C60226DB-E4D3-4E89-B452-CA8BAB7E3EC0";
layerId = "2A0AA41E-8D73-46A3-BA94-8B8418ED8110";
name = "Apr 14 20, 23:06";
width = 740;
},
{
associatedMasterId = "C60226DB-E4D3-4E89-B452-CA8BAB7E3EC0";
layerId = "A44A3A4D-87D4-4105-9655-66EDF97AB71D";
name = "Apr 15 20, 15:45";
width = 740;
},
{
associatedMasterId = "C60226DB-E4D3-4E89-B452-CA8BAB7E3EC0";
layerId = "79A34564-C2CD-4434-918C-478DA7A77884";
name = "Apr 16 20, 17:24";
paths = (
{
closed = 1;
nodes = (
"95 760 LINE",
"95 0 LINE",
"178 0 LINE",
"178 760 LINE"
);
},
{
closed = 1;
nodes = (
"95 760 LINE",
"95 687 LINE",
"635 687 LINE",
"635 760 LINE"
);
},
{
closed = 1;
nodes = (
"635 0 LINE",
"635 760 LINE",
"552 760 LINE",
"552 0 LINE"
);
},
{
closed = 1;
nodes = (
"497 0 LINE",
"497 760 LINE",
"414 760 LINE",
"414 0 LINE"
);
},
{
closed = 1;
nodes = (
"197 704 LINE",
"561 184 LINE",
"629 232 LINE",
"265 752 LINE"
);
}
);
width = 730;
},
{
associatedMasterId = "C60226DB-E4D3-4E89-B452-CA8BAB7E3EC0";
layerId = "CC943C06-BD15-4314-BF99-C533B7164C33";
name = "Apr 23 20, 15:01";
paths = (
{
closed = 1;
nodes = (
"95 760 LINE",
"95 0 LINE",
"178 0 LINE",
"178 760 LINE"
);
},
{
closed = 1;
nodes = (
"95 760 LINE",
"95 687 LINE",
"695 687 LINE",
"695 760 LINE"
);
},
{
closed = 1;
nodes = (
"695 0 LINE",
"695 760 LINE",
"612 760 LINE",
"612 0 LINE"
);
},
{
closed = 1;
nodes = (
"548 0 LINE",
"548 760 LINE",
"465 760 LINE",
"465 0 LINE"
);
},
{
closed = 1;
nodes = (
"257 704 LINE",
"621 184 LINE",
"689 232 LINE",
"325 752 LINE"
);
}
);
width = 790;
}
);
leftMetricsKey = A;
rightMetricsKey = A;
unicode = "004E,006E";
},
{
color = 3;
glyphname = O;
lastChange = "2020-07-16 13:27:07 +0000";
layers = (
{
anchors = (
{
name = bottom;
position = "{428, 0}";
},
{
name = center;
position = "{428, 380}";
},
{
name = ogonek;
position = "{770, 10}";
},
{
name = top;
position = "{428, 760}";
},
{
name = topleft;
position = "{20, 760}";
},
{
name = topright;
position = "{836, 760}";
}
);
layerId = "C60226DB-E4D3-4E89-B452-CA8BAB7E3EC0";
paths = (
{
closed = 1;
nodes = (
"648 0 LINE",
"761 0 LINE",
"761 760 LINE",
"648 760 LINE"
);
},
{
closed = 1;
nodes = (
"95 655 LINE",
"761 655 LINE",
"761 760 LINE",
"95 760 LINE"
);
},
{
closed = 1;
nodes = (
"208 760 LINE",
"95 760 LINE",
"95 0 LINE",
"208 0 LINE"
);
},
{
closed = 1;
nodes = (
"95 0 LINE",
"761 0 LINE",
"761 105 LINE",
"95 105 LINE"
);
},
{
closed = 1;
nodes = (
"430 610 LINE",
"317 740 LINE",
"317 0 LINE",
"430 0 LINE"
);
},
{
closed = 1;
nodes = (
"660 34 LINE",
"740 126 LINE",
"408 750 LINE",
"301 708 LINE"
);
}
);
width = 856;
},
{
associatedMasterId = "C60226DB-E4D3-4E89-B452-CA8BAB7E3EC0";
layerId = "BB7364AB-4D5B-453D-BD69-F87E2B1803FE";
name = "Apr 14 20, 23:06";
paths = (
{
closed = 1;
nodes = (
"555 0 LINE",
"640 0 LINE",
"640 760 LINE",
"555 760 LINE"
);
},
{
closed = 1;
nodes = (
"100 685 LINE",
"640 685 LINE",
"640 760 LINE",
"100 760 LINE"
);
},
{
closed = 1;
nodes = (
"185 760 LINE",
"100 760 LINE",
"100 0 LINE",
"185 0 LINE"
);
},
{
closed = 1;
nodes = (
"100 0 LINE",
"640 0 LINE",
"640 75 LINE",
"100 75 LINE"
);
},
{
closed = 1;
nodes = (
"435 480 LINE",
"350 610 LINE",
"350 0 LINE",
"435 0 LINE"
);
},
{
closed = 1;
nodes = (
"310 760 LINE",
"225 760 LINE",
"225 0 LINE",
"310 0 LINE"
);
},
{
closed = 1;
nodes = (
"585 109 LINE",
"604 257 LINE",
"342 749 LINE",
"266 710 LINE"
);
}
);
width = 740;
},
{
associatedMasterId = "C60226DB-E4D3-4E89-B452-CA8BAB7E3EC0";
layerId = "0F114B90-1BB2-41D9-A1BE-AB99ED34BD07";
name = "Apr 15 20, 10:44";
paths = (
{
closed = 1;
nodes = (
"555 0 LINE",
"640 0 LINE",
"640 760 LINE",
"555 760 LINE"
);
},
{
closed = 1;
nodes = (
"100 685 LINE",
"640 685 LINE",
"640 760 LINE",
"100 760 LINE"
);
},
{
closed = 1;
nodes = (
"185 760 LINE",
"100 760 LINE",
"100 0 LINE",
"185 0 LINE"
);
},
{
closed = 1;
nodes = (
"100 0 LINE",
"640 0 LINE",
"640 75 LINE",
"100 75 LINE"
);
},
{
closed = 1;
nodes = (
"435 480 LINE",
"350 610 LINE",
"350 0 LINE",
"435 0 LINE"
);
},
{
closed = 1;
nodes = (
"310 760 LINE",
"225 760 LINE",
"225 0 LINE",
"310 0 LINE"
);
},
{
closed = 1;
nodes = (
"585 109 LINE",
"604 257 LINE",
"342 749 LINE",
"266 710 LINE"
);
}
);
width = 740;
},
{
associatedMasterId = "C60226DB-E4D3-4E89-B452-CA8BAB7E3EC0";
layerId = "3B321172-995C-4247-A6C9-90EF10261EA9";
name = "Apr 15 20, 11:24";
paths = (
{
closed = 1;
nodes = (
"557 0 LINE",
"640 0 LINE",
"640 760 LINE",
"557 760 LINE"
);
},
{
closed = 1;
nodes = (
"100 687 LINE",
"640 687 LINE",
"640 760 LINE",
"100 760 LINE"
);
},
{
closed = 1;
nodes = (
"183 760 LINE",
"100 760 LINE",
"100 0 LINE",
"183 0 LINE"
);
},
{
closed = 1;
nodes = (
"100 0 LINE",
"640 0 LINE",
"640 73 LINE",
"100 73 LINE"
);
},
{
closed = 1;
nodes = (
"433 480 LINE",
"350 610 LINE",
"350 0 LINE",
"433 0 LINE"
);
},
{
closed = 1;
nodes = (
"308 760 LINE",
"225 760 LINE",
"225 0 LINE",
"308 0 LINE"
);
},
{
closed = 1;
nodes = (
"586 109 LINE",
"626 213 LINE",
"341 749 LINE",
"267 710 LINE"
);
}
);
width = 740;
},
{
associatedMasterId = "C60226DB-E4D3-4E89-B452-CA8BAB7E3EC0";
layerId = "C133FD16-6762-4DE6-8366-ABEC5A985EFB";
name = "Apr 15 20, 15:45";
paths = (
{
closed = 1;
nodes = (
"577 0 LINE",
"660 0 LINE",
"660 760 LINE",
"577 760 LINE"
);
},
{
closed = 1;
nodes = (
"100 687 LINE",
"660 687 LINE",
"660 760 LINE",
"100 760 LINE"
);
},
{
closed = 1;
nodes = (
"183 760 LINE",
"100 760 LINE",
"100 0 LINE",
"183 0 LINE"
);
},
{
closed = 1;
nodes = (
"100 0 LINE",
"660 0 LINE",
"660 73 LINE",
"100 73 LINE"
);
},
{
closed = 1;
nodes = (
"453 480 LINE",
"370 610 LINE",
"370 0 LINE",
"453 0 LINE"
);
},
{
closed = 1;
nodes = (
"318 760 LINE",
"235 760 LINE",
"235 0 LINE",
"318 0 LINE"
);
},
{
closed = 1;
nodes = (
"586 109 LINE",
"626 213 LINE",
"341 749 LINE",
"267 710 LINE"
);
}
);
width = 760;
},
{
associatedMasterId = "C60226DB-E4D3-4E89-B452-CA8BAB7E3EC0";
layerId = "ECD20490-B83B-489C-A816-C0E2732EF358";
name = "Apr 16 20, 17:24";
paths = (
{
closed = 1;
nodes = (
"572 0 LINE",
"655 0 LINE",
"655 760 LINE",
"572 760 LINE"
);
},
{
closed = 1;
nodes = (
"95 687 LINE",
"655 687 LINE",
"655 760 LINE",
"95 760 LINE"
);
},
{
closed = 1;
nodes = (
"178 760 LINE",
"95 760 LINE",
"95 0 LINE",
"178 0 LINE"
);
},
{
closed = 1;
nodes = (
"95 0 LINE",
"655 0 LINE",
"655 73 LINE",
"95 73 LINE"
);
},
{
closed = 1;
nodes = (
"416 480 LINE",
"333 610 LINE",
"333 0 LINE",
"416 0 LINE"
);
},
{
closed = 1;
nodes = (
"297 760 LINE",
"214 760 LINE",
"214 0 LINE",
"297 0 LINE"
);
},
{
closed = 1;
nodes = (
"581 109 LINE",
"621 213 LINE",
"336 749 LINE",
"262 710 LINE"
);
}
);
width = 750;
}
);
leftMetricsKey = A;
rightMetricsKey = A;
unicode = "004F,006F";
},
{
color = 3;
glyphname = P;
lastChange = "2020-07-16 13:27:07 +0000";
layers = (
{
anchors = (
{
name = bottom;
position = "{393, 0}";
},
{
name = top;
position = "{393, 760}";
}
);
layerId = "C60226DB-E4D3-4E89-B452-CA8BAB7E3EC0";
paths = (
{
closed = 1;
nodes = (
"602 259 LINE",
"715 259 LINE",
"715 760 LINE",
"602 760 LINE"
);
},
{
closed = 1;
nodes = (
"95 655 LINE",
"715 655 LINE",
"715 760 LINE",
"95 760 LINE"
);
},
{
closed = 1;
nodes = (
"208 760 LINE",
"95 760 LINE",
"95 0 LINE",
"208 0 LINE"
);
},
{
closed = 1;
nodes = (
"95 259 LINE",
"715 259 LINE",
"715 364 LINE",
"95 364 LINE"
);
},
{
closed = 1;
nodes = (
"95 460 LINE",
"390 460 LINE",
"390 565 LINE",
"95 565 LINE"
);
},
{
closed = 1;
nodes = (
"602 335 LINE",
"309 752 LINE",
"211 704 LINE",
"501 290 LINE"
);
}
);
width = 800;
},
{
associatedMasterId = "C60226DB-E4D3-4E89-B452-CA8BAB7E3EC0";
layerId = "FEA82D90-9805-4E06-B26E-24B8EA6A8C00";
name = "Apr 14 20, 23:06";
paths = (
{
closed = 1;
nodes = (
"555 300 LINE",
"640 300 LINE",
"640 760 LINE",
"555 760 LINE"
);
},
{
closed = 1;
nodes = (
"100 685 LINE",
"640 685 LINE",
"640 760 LINE",
"100 760 LINE"
);
},
{
closed = 1;
nodes = (
"185 760 LINE",
"100 760 LINE",
"100 0 LINE",
"185 0 LINE"
);
},
{
closed = 1;
nodes = (
"100 300 LINE",
"640 300 LINE",
"640 375 LINE",
"100 375 LINE"
);
},
{
closed = 1;
nodes = (
"295 711 LINE",
"191 711 LINE",
"452 339 LINE",
"555 339 LINE"
);
},
{
closed = 1;
nodes = (
"100 525 LINE",
"360 525 LINE",
"360 600 LINE",
"100 600 LINE"
);
}
);
width = 740;
},
{
associatedMasterId = "C60226DB-E4D3-4E89-B452-CA8BAB7E3EC0";
layerId = "6D1976FE-8C8A-4BCF-82F1-E5CF5C6A9143";
name = "Apr 15 20, 10:44";
paths = (
{
closed = 1;
nodes = (
"555 300 LINE",
"640 300 LINE",
"640 760 LINE",
"555 760 LINE"
);
},
{
closed = 1;
nodes = (
"100 685 LINE",
"640 685 LINE",
"640 760 LINE",
"100 760 LINE"
);
},
{
closed = 1;
nodes = (
"185 760 LINE",
"100 760 LINE",
"100 0 LINE",
"185 0 LINE"
);
},
{
closed = 1;
nodes = (
"100 300 LINE",
"640 300 LINE",
"640 375 LINE",
"100 375 LINE"
);
},
{
closed = 1;
nodes = (
"295 711 LINE",
"191 711 LINE",
"452 339 LINE",
"555 339 LINE"
);
},
{
closed = 1;
nodes = (
"100 525 LINE",
"360 525 LINE",
"360 600 LINE",
"100 600 LINE"
);
}
);
width = 740;
},
{
associatedMasterId = "C60226DB-E4D3-4E89-B452-CA8BAB7E3EC0";
layerId = "DFE0E26C-543F-4355-949E-B717F481C147";
name = "Apr 15 20, 11:24";
paths = (
{
closed = 1;
nodes = (
"557 301 LINE",
"640 301 LINE",
"640 760 LINE",
"557 760 LINE"
);
},
{
closed = 1;
nodes = (
"100 687 LINE",
"640 687 LINE",
"640 760 LINE",
"100 760 LINE"
);
},
{
closed = 1;
nodes = (
"183 760 LINE",
"100 760 LINE",
"100 0 LINE",
"183 0 LINE"
);
},
{
closed = 1;
nodes = (
"100 301 LINE",
"640 301 LINE",
"640 374 LINE",
"100 374 LINE"
);
},
{
closed = 1;
nodes = (
"294 711 LINE",
"192 711 LINE",
"453 339 LINE",
"554 339 LINE"
);
},
{
closed = 1;
nodes = (
"100 526 LINE",
"360 526 LINE",
"360 599 LINE",
"100 599 LINE"
);
}
);
width = 740;
},
{
associatedMasterId = "C60226DB-E4D3-4E89-B452-CA8BAB7E3EC0";
layerId = "695CA746-167E-4AE4-A604-1EC073DE5876";
name = "Apr 15 20, 15:45";
paths = (
{
closed = 1;
nodes = (
"587 301 LINE",
"670 301 LINE",
"670 760 LINE",
"587 760 LINE"
);
},
{
closed = 1;
nodes = (
"100 687 LINE",
"670 687 LINE",
"670 760 LINE",
"100 760 LINE"
);
},
{
closed = 1;
nodes = (
"183 760 LINE",
"100 760 LINE",
"100 0 LINE",
"183 0 LINE"
);
},
{
closed = 1;
nodes = (
"100 301 LINE",
"670 301 LINE",
"670 374 LINE",
"100 374 LINE"
);
},
{
closed = 1;
nodes = (
"314 711 LINE",
"212 711 LINE",
"473 339 LINE",
"574 339 LINE"
);
},
{
closed = 1;
nodes = (
"100 526 LINE",
"380 526 LINE",
"380 599 LINE",
"100 599 LINE"
);
}
);
width = 750;
},
{
associatedMasterId = "C60226DB-E4D3-4E89-B452-CA8BAB7E3EC0";
background = {
paths = (
{
closed = 1;
nodes = (
"95 687 LINE",
"605 687 LINE",
"605 760 LINE",
"95 760 LINE"
);
},
{
closed = 1;
nodes = (
"178 760 LINE",
"95 760 LINE",
"95 0 LINE",
"178 0 LINE"
);
},
{
closed = 1;
nodes = (
"95 0 LINE",
"605 0 LINE",
"605 73 LINE",
"95 73 LINE"
);
},
{
closed = 1;
nodes = (
"95 501 LINE",
"605 501 LINE",
"605 574 LINE",
"95 574 LINE"
);
},
{
closed = 1;
nodes = (
"384 760 LINE",
"301 760 LINE",
"301 170 LINE",
"384 170 LINE"
);
},
{
closed = 1;
nodes = (
"146 497 LINE",
"117 397 LINE",
"410 9 LINE",
"476 60 LINE"
);
}
);
};
layerId = "8246F06C-D63D-4414-9F60-C7D1CAE29412";
name = "Apr 16 20, 17:24";
paths = (
{
closed = 1;
nodes = (
"572 301 LINE",
"655 301 LINE",
"655 760 LINE",
"572 760 LINE"
);
},
{
closed = 1;
nodes = (
"95 687 LINE",
"655 687 LINE",
"655 760 LINE",
"95 760 LINE"
);
},
{
closed = 1;
nodes = (
"178 760 LINE",
"95 760 LINE",
"95 0 LINE",
"178 0 LINE"
);
},
{
closed = 1;
nodes = (
"95 301 LINE",
"655 301 LINE",
"655 374 LINE",
"95 374 LINE"
);
},
{
closed = 1;
nodes = (
"299 711 LINE",
"197 711 LINE",
"458 339 LINE",
"559 339 LINE"
);
},
{
closed = 1;
nodes = (
"95 501 LINE",
"375 501 LINE",
"375 574 LINE",
"95 574 LINE"
);
}
);
width = 740;
},
{
anchors = (
{
name = bottom;
position = "{388, 0}";
},
{
name = top;
position = "{388, 760}";
}
);
associatedMasterId = "C60226DB-E4D3-4E89-B452-CA8BAB7E3EC0";
background = {
paths = (
{
closed = 1;
nodes = (
"586 222 LINE",
"699 222 LINE",
"699 760 LINE",
"586 760 LINE"
);
},
{
closed = 1;
nodes = (
"90 655 LINE",
"699 655 LINE",
"699 760 LINE",
"90 760 LINE"
);
},
{
closed = 1;
nodes = (
"203 760 LINE",
"90 760 LINE",
"90 0 LINE",
"203 0 LINE"
);
},
{
closed = 1;
nodes = (
"90 460 LINE",
"699 460 LINE",
"699 565 LINE",
"90 565 LINE"
);
},
{
closed = 1;
nodes = (
"420 222 LINE",
"699 222 LINE",
"699 327 LINE",
"420 327 LINE"
);
},
{
closed = 1;
nodes = (
"668 0 LINE",
"323 563 LINE",
"217 521 LINE",
"536 0 LINE"
);
},
{
closed = 1;
nodes = (
"203 760 LINE",
"90 760 LINE",
"90 0 LINE",
"203 0 LINE"
);
},
{
closed = 1;
nodes = (
"203 760 LINE",
"90 760 LINE",
"90 0 LINE",
"203 0 LINE"
);
}
);
};
layerId = "05D8CFD5-9786-455D-948B-E9813719BD20";
name = "Jul 3 20, 10:57";
paths = (
{
closed = 1;
nodes = (
"597 259 LINE",
"710 259 LINE",
"710 760 LINE",
"597 760 LINE"
);
},
{
closed = 1;
nodes = (
"90 655 LINE",
"710 655 LINE",
"710 760 LINE",
"90 760 LINE"
);
},
{
closed = 1;
nodes = (
"203 760 LINE",
"90 760 LINE",
"90 0 LINE",
"203 0 LINE"
);
},
{
closed = 1;
nodes = (
"90 259 LINE",
"710 259 LINE",
"710 364 LINE",
"90 364 LINE"
);
},
{
closed = 1;
nodes = (
"90 485 LINE",
"385 485 LINE",
"385 590 LINE",
"90 590 LINE"
);
},
{
closed = 1;
nodes = (
"597 335 LINE",
"304 752 LINE",
"206 704 LINE",
"496 290 LINE"
);
}
);
width = 775;
}
);
leftMetricsKey = A;
unicode = "0050,0070";
},
{
color = 3;
glyphname = Q;
lastChange = "2020-07-16 13:27:07 +0000";
layers = (
{
anchors = (
{
name = bottom;
position = "{412, 0}";
},
{
name = top;
position = "{412, 760}";
}
);
layerId = "C60226DB-E4D3-4E89-B452-CA8BAB7E3EC0";
paths = (
{
closed = 1;
nodes = (
"648 0 LINE",
"761 0 LINE",
"761 760 LINE",
"648 760 LINE"
);
},
{
closed = 1;
nodes = (
"95 655 LINE",
"761 655 LINE",
"761 760 LINE",
"95 760 LINE"
);
},
{
closed = 1;
nodes = (
"208 760 LINE",
"95 760 LINE",
"95 0 LINE",
"208 0 LINE"
);
},
{
closed = 1;
nodes = (
"95 0 LINE",
"761 0 LINE",
"761 105 LINE",
"95 105 LINE"
);
},
{
closed = 1;
nodes = (
"430 610 LINE",
"317 740 LINE",
"317 0 LINE",
"430 0 LINE"
);
},
{
closed = 1;
nodes = (
"786 -200 LINE",
"913 -200 LINE",
"408 750 LINE",
"301 708 LINE"
);
}
);
width = 878;
},
{
associatedMasterId = "C60226DB-E4D3-4E89-B452-CA8BAB7E3EC0";
layerId = "045A0F3C-472F-46FF-93C1-805B6706268F";
name = "Apr 14 20, 23:06";
width = 740;
},
{
associatedMasterId = "C60226DB-E4D3-4E89-B452-CA8BAB7E3EC0";
layerId = "2120075E-8FD3-41BB-864D-D3D549086ADB";
name = "Apr 15 20, 15:45";
width = 740;
},
{
associatedMasterId = "C60226DB-E4D3-4E89-B452-CA8BAB7E3EC0";
layerId = "4BF97A62-ECAA-432B-BC32-B9D285ADAFF3";
name = "Apr 16 20, 17:24";
paths = (
{
closed = 1;
nodes = (
"85 760 LINE",
"85 301 LINE",
"168 301 LINE",
"168 760 LINE"
);
},
{
closed = 1;
nodes = (
"85 760 LINE",
"85 687 LINE",
"645 687 LINE",
"645 760 LINE"
);
},
{
closed = 1;
nodes = (
"645 0 LINE",
"645 760 LINE",
"562 760 LINE",
"562 0 LINE"
);
},
{
closed = 1;
nodes = (
"85 374 LINE",
"85 301 LINE",
"645 301 LINE",
"645 374 LINE"
);
},
{
closed = 1;
nodes = (
"282 339 LINE",
"543 711 LINE",
"441 711 LINE",
"181 339 LINE"
);
}
);
width = 740;
},
{
anchors = (
{
name = bottom;
position = "{407, 0}";
},
{
name = top;
position = "{407, 760}";
}
);
associatedMasterId = "C60226DB-E4D3-4E89-B452-CA8BAB7E3EC0";
layerId = "44EAF519-5DCA-4376-8360-59BAB6E09365";
name = "Jun 1 20, 23:24";
paths = (
{
closed = 1;
nodes = (
"643 0 LINE",
"726 0 LINE",
"726 760 LINE",
"643 760 LINE"
);
},
{
closed = 1;
nodes = (
"90 685 LINE",
"726 685 LINE",
"726 760 LINE",
"90 760 LINE"
);
},
{
closed = 1;
nodes = (
"173 760 LINE",
"90 760 LINE",
"90 0 LINE",
"173 0 LINE"
);
},
{
closed = 1;
nodes = (
"90 0 LINE",
"726 0 LINE",
"726 75 LINE",
"90 75 LINE"
);
},
{
closed = 1;
nodes = (
"473 480 LINE",
"390 610 LINE",
"390 0 LINE",
"473 0 LINE"
);
},
{
closed = 1;
nodes = (
"323 760 LINE",
"240 760 LINE",
"240 0 LINE",
"323 0 LINE"
);
},
{
closed = 1;
nodes = (
"782 -200 LINE",
"874 -200 LINE",
"371 750 LINE",
"298 708 LINE"
);
}
);
width = 814;
}
);
leftMetricsKey = A;
unicode = "0051,0071";
},
{
color = 3;
glyphname = R;
lastChange = "2020-07-16 13:27:07 +0000";
layers = (
{
anchors = (
{
name = bottom;
position = "{395, 0}";
},
{
name = top;
position = "{395, 760}";
}
);
layerId = "C60226DB-E4D3-4E89-B452-CA8BAB7E3EC0";
paths = (
{
closed = 1;
nodes = (
"591 222 LINE",
"704 222 LINE",
"704 760 LINE",
"591 760 LINE"
);
},
{
closed = 1;
nodes = (
"95 655 LINE",
"704 655 LINE",
"704 760 LINE",
"95 760 LINE"
);
},
{
closed = 1;
nodes = (
"208 760 LINE",
"95 760 LINE",
"95 0 LINE",
"208 0 LINE"
);
},
{
closed = 1;
nodes = (
"95 460 LINE",
"704 460 LINE",
"704 565 LINE",
"95 565 LINE"
);
},
{
closed = 1;
nodes = (
"425 222 LINE",
"704 222 LINE",
"704 327 LINE",
"425 327 LINE"
);
},
{
closed = 1;
nodes = (
"673 0 LINE",
"328 563 LINE",
"222 521 LINE",
"541 0 LINE"
);
},
{
closed = 1;
nodes = (
"208 760 LINE",
"95 760 LINE",
"95 0 LINE",
"208 0 LINE"
);
},
{
closed = 1;
nodes = (
"208 760 LINE",
"95 760 LINE",
"95 0 LINE",
"208 0 LINE"
);
}
);
width = 789;
},
{
associatedMasterId = "C60226DB-E4D3-4E89-B452-CA8BAB7E3EC0";
layerId = "A99270DB-E6AB-4CF5-9ED4-9F78FDF0DEDB";
name = "Apr 14 20, 23:06";
paths = (
{
closed = 1;
nodes = (
"555 241 LINE",
"640 241 LINE",
"640 760 LINE",
"555 760 LINE"
);
},
{
closed = 1;
nodes = (
"100 685 LINE",
"640 685 LINE",
"640 760 LINE",
"100 760 LINE"
);
},
{
closed = 1;
nodes = (
"185 760 LINE",
"100 760 LINE",
"100 0 LINE",
"185 0 LINE"
);
},
{
closed = 1;
nodes = (
"100 511 LINE",
"640 511 LINE",
"640 586 LINE",
"100 586 LINE"
);
},
{
closed = 1;
nodes = (
"618 0 LINE",
"263 569 LINE",
"172 554 LINE",
"518 0 LINE"
);
},
{
closed = 1;
nodes = (
"400 241 LINE",
"640 241 LINE",
"640 316 LINE",
"400 316 LINE"
);
}
);
width = 740;
},
{
associatedMasterId = "C60226DB-E4D3-4E89-B452-CA8BAB7E3EC0";
layerId = "38E65928-6DE5-4587-9FEC-288479AD6C4C";
name = "Apr 15 20, 10:44";
paths = (
{
closed = 1;
nodes = (
"555 241 LINE",
"640 241 LINE",
"640 760 LINE",
"555 760 LINE"
);
},
{
closed = 1;
nodes = (
"100 685 LINE",
"640 685 LINE",
"640 760 LINE",
"100 760 LINE"
);
},
{
closed = 1;
nodes = (
"185 760 LINE",
"100 760 LINE",
"100 0 LINE",
"185 0 LINE"
);
},
{
closed = 1;
nodes = (
"100 511 LINE",
"640 511 LINE",
"640 586 LINE",
"100 586 LINE"
);
},
{
closed = 1;
nodes = (
"618 0 LINE",
"263 569 LINE",
"172 554 LINE",
"518 0 LINE"
);
},
{
closed = 1;
nodes = (
"400 241 LINE",
"640 241 LINE",
"640 316 LINE",
"400 316 LINE"
);
}
);
width = 740;
},
{
associatedMasterId = "C60226DB-E4D3-4E89-B452-CA8BAB7E3EC0";
layerId = "B676B639-5618-41DB-8BE6-25D2572E7DFE";
name = "Apr 15 20, 11:24";
paths = (
{
closed = 1;
nodes = (
"557 242 LINE",
"640 242 LINE",
"640 760 LINE",
"557 760 LINE"
);
},
{
closed = 1;
nodes = (
"100 687 LINE",
"640 687 LINE",
"640 760 LINE",
"100 760 LINE"
);
},
{
closed = 1;
nodes = (
"183 760 LINE",
"100 760 LINE",
"100 0 LINE",
"183 0 LINE"
);
},
{
closed = 1;
nodes = (
"100 512 LINE",
"640 512 LINE",
"640 585 LINE",
"100 585 LINE"
);
},
{
closed = 1;
nodes = (
"617 0 LINE",
"262 569 LINE",
"173 554 LINE",
"519 0 LINE"
);
},
{
closed = 1;
nodes = (
"400 242 LINE",
"640 242 LINE",
"640 315 LINE",
"400 315 LINE"
);
}
);
width = 740;
},
{
associatedMasterId = "C60226DB-E4D3-4E89-B452-CA8BAB7E3EC0";
layerId = "3509D78E-8C64-4AF5-8374-EA6D49AFB700";
name = "Apr 15 20, 15:45";
paths = (
{
closed = 1;
nodes = (
"577 242 LINE",
"660 242 LINE",
"660 760 LINE",
"577 760 LINE"
);
},
{
closed = 1;
nodes = (
"100 687 LINE",
"660 687 LINE",
"660 760 LINE",
"100 760 LINE"
);
},
{
closed = 1;
nodes = (
"183 760 LINE",
"100 760 LINE",
"100 0 LINE",
"183 0 LINE"
);
},
{
closed = 1;
nodes = (
"100 512 LINE",
"660 512 LINE",
"660 585 LINE",
"100 585 LINE"
);
},
{
closed = 1;
nodes = (
"617 0 LINE",
"262 569 LINE",
"173 554 LINE",
"519 0 LINE"
);
},
{
closed = 1;
nodes = (
"400 242 LINE",
"660 242 LINE",
"660 315 LINE",
"400 315 LINE"
);
}
);
width = 760;
},
{
associatedMasterId = "C60226DB-E4D3-4E89-B452-CA8BAB7E3EC0";
backgroundImage = {
crop = "{{0, 0}, {306, 436}}";
imagePath = "PILOTE/HEAR/B/_images/Capture d’écran 2020-04-14 à 14.48.07.png";
locked = "1";
transform = "{2.89497, 0, 0, 2.60313, -55, -151}";
};
layerId = "DCBB8F2B-DCAE-4CA7-9DF3-267F15E73EB0";
name = "Apr 16 20, 17:24";
paths = (
{
closed = 1;
nodes = (
"572 242 LINE",
"655 242 LINE",
"655 760 LINE",
"572 760 LINE"
);
},
{
closed = 1;
nodes = (
"95 687 LINE",
"655 687 LINE",
"655 760 LINE",
"95 760 LINE"
);
},
{
closed = 1;
nodes = (
"178 760 LINE",
"95 760 LINE",
"95 0 LINE",
"178 0 LINE"
);
},
{
closed = 1;
nodes = (
"95 501 LINE",
"655 501 LINE",
"655 574 LINE",
"95 574 LINE"
);
},
{
closed = 1;
nodes = (
"395 242 LINE",
"655 242 LINE",
"655 315 LINE",
"395 315 LINE"
);
},
{
closed = 1;
nodes = (
"631 0 LINE",
"260 564 LINE",
"191 518 LINE",
"532 0 LINE"
);
}
);
width = 745;
}
);
leftMetricsKey = A;
unicode = "0052,0072";
},
{
color = 3;
glyphname = S;
lastChange = "2020-07-16 13:27:07 +0000";
layers = (
{
anchors = (
{
name = bottom;
position = "{380, 0}";
},
{
name = top;
position = "{380, 760}";
}
);
layerId = "C60226DB-E4D3-4E89-B452-CA8BAB7E3EC0";
paths = (
{
closed = 1;
nodes = (
"557 0 LINE",
"670 0 LINE",
"670 544 LINE",
"557 544 LINE"
);
},
{
closed = 1;
nodes = (
"75 655 LINE",
"670 655 LINE",
"670 760 LINE",
"75 760 LINE"
);
},
{
closed = 1;
nodes = (
"188 760 LINE",
"75 760 LINE",
"75 439 LINE",
"188 439 LINE"
);
},
{
closed = 1;
nodes = (
"75 439 LINE",
"670 439 LINE",
"670 544 LINE",
"75 544 LINE"
);
},
{
closed = 1;
nodes = (
"75 0 LINE",
"670 0 LINE",
"670 105 LINE",
"75 105 LINE"
);
},
{
closed = 1;
nodes = (
"349 19 LINE",
"656 395 LINE",
"576 458 LINE",
"242 50 LINE"
);
},
{
closed = 1;
nodes = (
"410 760 LINE",
"297 760 LINE",
"297 439 LINE",
"410 439 LINE"
);
}
);
width = 750;
},
{
associatedMasterId = "C60226DB-E4D3-4E89-B452-CA8BAB7E3EC0";
layerId = "1B1E6767-C6A6-443F-B3F1-EED3850A1EEC";
name = "Apr 14 20, 23:06";
paths = (
{
closed = 1;
nodes = (
"555 0 LINE",
"640 0 LINE",
"640 580 LINE",
"555 580 LINE"
);
},
{
closed = 1;
nodes = (
"100 685 LINE",
"640 685 LINE",
"640 760 LINE",
"100 760 LINE"
);
},
{
closed = 1;
nodes = (
"185 760 LINE",
"100 760 LINE",
"100 505 LINE",
"185 505 LINE"
);
},
{
closed = 1;
nodes = (
"100 0 LINE",
"290 0 LINE",
"290 75 LINE",
"100 75 LINE"
);
},
{
closed = 1;
nodes = (
"100 505 LINE",
"640 505 LINE",
"640 580 LINE",
"100 580 LINE"
);
},
{
closed = 1;
nodes = (
"345 760 LINE",
"260 760 LINE",
"260 506 LINE",
"345 506 LINE"
);
},
{
closed = 1;
nodes = (
"412 0 LINE",
"497 0 LINE",
"497 580 LINE",
"412 580 LINE"
);
},
{
closed = 1;
nodes = (
"412 0 LINE",
"640 0 LINE",
"640 75 LINE",
"412 75 LINE"
);
},
{
closed = 1;
nodes = (
"320 0 LINE",
"612 417 LINE",
"575 494 LINE",
"229 0 LINE"
);
}
);
width = 740;
},
{
associatedMasterId = "C60226DB-E4D3-4E89-B452-CA8BAB7E3EC0";
layerId = "32AA7878-53A2-4CEF-8793-AB270C2D787A";
name = "Apr 15 20, 10:44";
paths = (
{
closed = 1;
nodes = (
"555 0 LINE",
"640 0 LINE",
"640 580 LINE",
"555 580 LINE"
);
},
{
closed = 1;
nodes = (
"100 685 LINE",
"640 685 LINE",
"640 760 LINE",
"100 760 LINE"
);
},
{
closed = 1;
nodes = (
"185 760 LINE",
"100 760 LINE",
"100 505 LINE",
"185 505 LINE"
);
},
{
closed = 1;
nodes = (
"100 0 LINE",
"290 0 LINE",
"290 75 LINE",
"100 75 LINE"
);
},
{
closed = 1;
nodes = (
"100 505 LINE",
"640 505 LINE",
"640 580 LINE",
"100 580 LINE"
);
},
{
closed = 1;
nodes = (
"345 760 LINE",
"260 760 LINE",
"260 506 LINE",
"345 506 LINE"
);
},
{
closed = 1;
nodes = (
"412 0 LINE",
"497 0 LINE",
"497 580 LINE",
"412 580 LINE"
);
},
{
closed = 1;
nodes = (
"412 0 LINE",
"640 0 LINE",
"640 75 LINE",
"412 75 LINE"
);
},
{
closed = 1;
nodes = (
"320 0 LINE",
"612 417 LINE",
"575 494 LINE",
"229 0 LINE"
);
}
);
width = 740;
},
{
associatedMasterId = "C60226DB-E4D3-4E89-B452-CA8BAB7E3EC0";
layerId = "E9622D20-87DE-4065-90C9-7F75128EED9E";
name = "Apr 15 20, 11:24";
paths = (
{
closed = 1;
nodes = (
"557 0 LINE",
"640 0 LINE",
"640 579 LINE",
"557 579 LINE"
);
},
{
closed = 1;
nodes = (
"100 687 LINE",
"640 687 LINE",
"640 760 LINE",
"100 760 LINE"
);
},
{
closed = 1;
nodes = (
"183 760 LINE",
"100 760 LINE",
"100 506 LINE",
"183 506 LINE"
);
},
{
closed = 1;
nodes = (
"100 0 LINE",
"290 0 LINE",
"290 73 LINE",
"100 73 LINE"
);
},
{
closed = 1;
nodes = (
"100 506 LINE",
"640 506 LINE",
"640 579 LINE",
"100 579 LINE"
);
},
{
closed = 1;
nodes = (
"344 760 LINE",
"261 760 LINE",
"261 506 LINE",
"344 506 LINE"
);
},
{
closed = 1;
nodes = (
"413 0 LINE",
"496 0 LINE",
"496 579 LINE",
"413 579 LINE"
);
},
{
closed = 1;
nodes = (
"413 0 LINE",
"640 0 LINE",
"640 73 LINE",
"413 73 LINE"
);
},
{
closed = 1;
nodes = (
"320 0 LINE",
"612 417 LINE",
"577 494 LINE",
"231 0 LINE"
);
}
);
width = 740;
},
{
associatedMasterId = "C60226DB-E4D3-4E89-B452-CA8BAB7E3EC0";
layerId = "3EB63110-06EF-4905-B04D-AD5EF479FA4A";
name = "Apr 15 20, 15:45";
paths = (
{
closed = 1;
nodes = (
"567 0 LINE",
"650 0 LINE",
"650 579 LINE",
"567 579 LINE"
);
},
{
closed = 1;
nodes = (
"100 687 LINE",
"650 687 LINE",
"650 760 LINE",
"100 760 LINE"
);
},
{
closed = 1;
nodes = (
"183 760 LINE",
"100 760 LINE",
"100 506 LINE",
"183 506 LINE"
);
},
{
closed = 1;
nodes = (
"100 0 LINE",
"290 0 LINE",
"290 73 LINE",
"100 73 LINE"
);
},
{
closed = 1;
nodes = (
"100 506 LINE",
"650 506 LINE",
"650 579 LINE",
"100 579 LINE"
);
},
{
closed = 1;
nodes = (
"344 760 LINE",
"261 760 LINE",
"261 506 LINE",
"344 506 LINE"
);
},
{
closed = 1;
nodes = (
"413 0 LINE",
"496 0 LINE",
"496 579 LINE",
"413 579 LINE"
);
},
{
closed = 1;
nodes = (
"413 0 LINE",
"650 0 LINE",
"650 73 LINE",
"413 73 LINE"
);
},
{
closed = 1;
nodes = (
"320 0 LINE",
"612 417 LINE",
"577 494 LINE",
"231 0 LINE"
);
}
);
width = 750;
},
{
associatedMasterId = "C60226DB-E4D3-4E89-B452-CA8BAB7E3EC0";
backgroundImage = {
crop = "{{0, 0}, {160, 229}}";
imagePath = "PILOTE/HEAR/B/_images/Capture d’écran 2020-04-14 à 14.45.32.png";
locked = "1";
transform = "{5.05765, 0, 0, 4.49176, -28, -110}";
};
layerId = "7896625A-CB76-4FE7-97FA-77D642BBA54B";
name = "Apr 16 20, 17:24";
paths = (
{
closed = 1;
nodes = (
"552 0 LINE",
"635 0 LINE",
"635 574 LINE",
"552 574 LINE"
);
},
{
closed = 1;
nodes = (
"85 687 LINE",
"635 687 LINE",
"635 760 LINE",
"85 760 LINE"
);
},
{
closed = 1;
nodes = (
"168 760 LINE",
"85 760 LINE",
"85 501 LINE",
"168 501 LINE"
);
},
{
closed = 1;
nodes = (
"85 0 LINE",
"296 0 LINE",
"296 73 LINE",
"85 73 LINE"
);
},
{
closed = 1;
nodes = (
"85 501 LINE",
"635 501 LINE",
"635 574 LINE",
"85 574 LINE"
);
},
{
closed = 1;
nodes = (
"329 760 LINE",
"246 760 LINE",
"246 501 LINE",
"329 501 LINE"
);
},
{
closed = 1;
nodes = (
"398 0 LINE",
"481 0 LINE",
"481 574 LINE",
"398 574 LINE"
);
},
{
closed = 1;
nodes = (
"398 0 LINE",
"635 0 LINE",
"635 73 LINE",
"398 73 LINE"
);
},
{
closed = 1;
nodes = (
"296 0 LINE",
"622 411 LINE",
"565 456 LINE",
"239 45 LINE"
);
}
);
width = 730;
},
{
associatedMasterId = "C60226DB-E4D3-4E89-B452-CA8BAB7E3EC0";
layerId = "A81031AA-5DBD-4963-B478-3C5B58C98020";
name = "Apr 27 20, 22:33";
paths = (
{
closed = 1;
nodes = (
"572 0 LINE",
"655 0 LINE",
"655 574 LINE",
"572 574 LINE"
);
},
{
closed = 1;
nodes = (
"75 687 LINE",
"655 687 LINE",
"655 760 LINE",
"75 760 LINE"
);
},
{
closed = 1;
nodes = (
"158 760 LINE",
"75 760 LINE",
"75 501 LINE",
"158 501 LINE"
);
},
{
closed = 1;
nodes = (
"75 0 LINE",
"306 0 LINE",
"306 73 LINE",
"75 73 LINE"
);
},
{
closed = 1;
nodes = (
"75 501 LINE",
"655 501 LINE",
"655 574 LINE",
"75 574 LINE"
);
},
{
closed = 1;
nodes = (
"425 253 LINE",
"508 253 LINE",
"508 574 LINE",
"425 574 LINE"
);
},
{
closed = 1;
nodes = (
"295 0 LINE",
"655 0 LINE",
"655 73 LINE",
"295 73 LINE"
);
},
{
closed = 1;
nodes = (
"306 0 LINE",
"642 411 LINE",
"585 456 LINE",
"249 45 LINE"
);
},
{
closed = 1;
nodes = (
"305 760 LINE",
"222 760 LINE",
"222 501 LINE",
"305 501 LINE"
);
}
);
width = 750;
}
);
unicode = "0053,0073";
},
{
color = 3;
glyphname = T;
lastChange = "2020-07-16 21:56:51 +0000";
layers = (
{
anchors = (
{
name = bottom;
position = "{435, 0}";
},
{
name = center;
position = "{435, 380}";
},
{
name = top;
position = "{435, 760}";
}
);
layerId = "C60226DB-E4D3-4E89-B452-CA8BAB7E3EC0";
paths = (
{
closed = 1;
nodes = (
"487 0 LINE",
"590 0 LINE",
"590 565 LINE",
"487 565 LINE"
);
},
{
closed = 1;
nodes = (
"65 655 LINE",
"805 655 LINE",
"805 760 LINE",
"65 760 LINE"
);
},
{
closed = 1;
nodes = (
"383 760 LINE",
"280 760 LINE",
"280 0 LINE",
"383 0 LINE"
);
},
{
closed = 1;
nodes = (
"280 0 LINE",
"590 0 LINE",
"590 105 LINE",
"280 105 LINE"
);
},
{
closed = 1;
nodes = (
"65 460 LINE",
"805 460 LINE",
"805 565 LINE",
"65 565 LINE"
);
},
{
closed = 1;
nodes = (
"178 760 LINE",
"65 760 LINE",
"65 460 LINE",
"178 460 LINE"
);
},
{
closed = 1;
nodes = (
"805 760 LINE",
"692 760 LINE",
"692 460 LINE",
"805 460 LINE"
);
},
{
closed = 1;
nodes = (
"657 554 LINE",
"523 745 LINE",
"417 704 LINE",
"551 512 LINE"
);
}
);
width = 870;
},
{
associatedMasterId = "C60226DB-E4D3-4E89-B452-CA8BAB7E3EC0";
layerId = "8F215CC9-2D23-40A1-A233-5DE2F2DA7D79";
name = "Apr 14 20, 23:06";
paths = (
{
closed = 1;
nodes = (
"405 0 LINE",
"490 0 LINE",
"490 585 LINE",
"405 585 LINE"
);
},
{
closed = 1;
nodes = (
"100 685 LINE",
"640 685 LINE",
"640 760 LINE",
"100 760 LINE"
);
},
{
closed = 1;
nodes = (
"337 760 LINE",
"252 760 LINE",
"252 0 LINE",
"337 0 LINE"
);
},
{
closed = 1;
nodes = (
"252 0 LINE",
"490 0 LINE",
"490 75 LINE",
"252 75 LINE"
);
},
{
closed = 1;
nodes = (
"100 510 LINE",
"640 510 LINE",
"640 585 LINE",
"100 585 LINE"
);
},
{
closed = 1;
nodes = (
"185 760 LINE",
"100 760 LINE",
"100 510 LINE",
"185 510 LINE"
);
},
{
closed = 1;
nodes = (
"640 760 LINE",
"555 760 LINE",
"555 510 LINE",
"640 510 LINE"
);
},
{
closed = 1;
nodes = (
"351 734 LINE",
"467 533 LINE",
"566 533 LINE",
"450 734 LINE"
);
}
);
width = 740;
},
{
associatedMasterId = "C60226DB-E4D3-4E89-B452-CA8BAB7E3EC0";
layerId = "7E07B04E-1D6C-4A16-B9FD-A613B66BE72C";
name = "Apr 15 20, 10:44";
paths = (
{
closed = 1;
nodes = (
"405 0 LINE",
"490 0 LINE",
"490 585 LINE",
"405 585 LINE"
);
},
{
closed = 1;
nodes = (
"100 685 LINE",
"640 685 LINE",
"640 760 LINE",
"100 760 LINE"
);
},
{
closed = 1;
nodes = (
"337 760 LINE",
"252 760 LINE",
"252 0 LINE",
"337 0 LINE"
);
},
{
closed = 1;
nodes = (
"252 0 LINE",
"490 0 LINE",
"490 75 LINE",
"252 75 LINE"
);
},
{
closed = 1;
nodes = (
"100 510 LINE",
"640 510 LINE",
"640 585 LINE",
"100 585 LINE"
);
},
{
closed = 1;
nodes = (
"185 760 LINE",
"100 760 LINE",
"100 510 LINE",
"185 510 LINE"
);
},
{
closed = 1;
nodes = (
"640 760 LINE",
"555 760 LINE",
"555 510 LINE",
"640 510 LINE"
);
},
{
closed = 1;
nodes = (
"351 734 LINE",
"467 533 LINE",
"566 533 LINE",
"450 734 LINE"
);
}
);
width = 740;
},
{
associatedMasterId = "C60226DB-E4D3-4E89-B452-CA8BAB7E3EC0";
layerId = "88EA1617-B5B3-4DF1-8A89-B8EF868FA8F9";
name = "Apr 15 20, 11:24";
paths = (
{
closed = 1;
nodes = (
"406 0 LINE",
"489 0 LINE",
"489 584 LINE",
"406 584 LINE"
);
},
{
closed = 1;
nodes = (
"100 687 LINE",
"640 687 LINE",
"640 760 LINE",
"100 760 LINE"
);
},
{
closed = 1;
nodes = (
"336 760 LINE",
"253 760 LINE",
"253 0 LINE",
"336 0 LINE"
);
},
{
closed = 1;
nodes = (
"253 0 LINE",
"489 0 LINE",
"489 73 LINE",
"253 73 LINE"
);
},
{
closed = 1;
nodes = (
"100 511 LINE",
"640 511 LINE",
"640 584 LINE",
"100 584 LINE"
);
},
{
closed = 1;
nodes = (
"183 760 LINE",
"100 760 LINE",
"100 511 LINE",
"183 511 LINE"
);
},
{
closed = 1;
nodes = (
"640 760 LINE",
"557 760 LINE",
"557 511 LINE",
"640 511 LINE"
);
},
{
closed = 1;
nodes = (
"352 734 LINE",
"468 533 LINE",
"565 533 LINE",
"449 734 LINE"
);
}
);
width = 740;
},
{
associatedMasterId = "C60226DB-E4D3-4E89-B452-CA8BAB7E3EC0";
layerId = "CA8C8C23-76AB-46AB-8ACA-DF9F0B8FF6D5";
name = "Apr 15 20, 15:45";
paths = (
{
closed = 1;
nodes = (
"450 0 LINE",
"533 0 LINE",
"533 584 LINE",
"450 584 LINE"
);
},
{
closed = 1;
nodes = (
"65 687 LINE",
"745 687 LINE",
"745 760 LINE",
"65 760 LINE"
);
},
{
closed = 1;
nodes = (
"360 760 LINE",
"277 760 LINE",
"277 0 LINE",
"360 0 LINE"
);
},
{
closed = 1;
nodes = (
"277 0 LINE",
"533 0 LINE",
"533 73 LINE",
"277 73 LINE"
);
},
{
closed = 1;
nodes = (
"65 511 LINE",
"745 511 LINE",
"745 584 LINE",
"65 584 LINE"
);
},
{
closed = 1;
nodes = (
"148 760 LINE",
"65 760 LINE",
"65 511 LINE",
"148 511 LINE"
);
},
{
closed = 1;
nodes = (
"745 760 LINE",
"662 760 LINE",
"662 511 LINE",
"745 511 LINE"
);
},
{
closed = 1;
nodes = (
"386 734 LINE",
"502 533 LINE",
"599 533 LINE",
"483 734 LINE"
);
}
);
width = 810;
},
{
associatedMasterId = "C60226DB-E4D3-4E89-B452-CA8BAB7E3EC0";
backgroundImage = {
crop = "{{0, 0}, {165, 252}}";
imagePath = "PILOTE/HEAR/B/_images/Capture d’écran 2020-04-14 à 14.45.42.png";
locked = "1";
transform = "{6.27085, 0, 0, 4.47018, -95, -140}";
};
layerId = "62FE8F7D-E4E0-43B9-8016-CE4769F89B6A";
name = "Apr 16 20, 17:24";
paths = (
{
closed = 1;
nodes = (
"440 0 LINE",
"523 0 LINE",
"523 574 LINE",
"440 574 LINE"
);
},
{
closed = 1;
nodes = (
"65 687 LINE",
"725 687 LINE",
"725 760 LINE",
"65 760 LINE"
);
},
{
closed = 1;
nodes = (
"350 760 LINE",
"267 760 LINE",
"267 0 LINE",
"350 0 LINE"
);
},
{
closed = 1;
nodes = (
"267 0 LINE",
"523 0 LINE",
"523 73 LINE",
"267 73 LINE"
);
},
{
closed = 1;
nodes = (
"65 501 LINE",
"725 501 LINE",
"725 574 LINE",
"65 574 LINE"
);
},
{
closed = 1;
nodes = (
"148 760 LINE",
"65 760 LINE",
"65 501 LINE",
"148 501 LINE"
);
},
{
closed = 1;
nodes = (
"725 760 LINE",
"642 760 LINE",
"642 501 LINE",
"725 501 LINE"
);
},
{
closed = 1;
nodes = (
"394 719 LINE",
"535 535 LINE",
"631 548 LINE",
"490 732 LINE"
);
}
);
width = 790;
}
);
unicode = "0054,0074";
},
{
color = 3;
glyphname = U;
lastChange = "2020-07-16 13:27:07 +0000";
layers = (
{
anchors = (
{
name = bottom;
position = "{412, 0}";
},
{
name = ogonek;
position = "{725, 10}";
},
{
name = top;
position = "{412, 760}";
},
{
name = topright;
position = "{783, 760}";
}
);
layerId = "C60226DB-E4D3-4E89-B452-CA8BAB7E3EC0";
paths = (
{
closed = 1;
nodes = (
"615 0 LINE",
"728 0 LINE",
"728 760 LINE",
"615 760 LINE"
);
},
{
closed = 1;
nodes = (
"208 760 LINE",
"95 760 LINE",
"95 0 LINE",
"208 0 LINE"
);
},
{
closed = 1;
nodes = (
"95 0 LINE",
"728 0 LINE",
"728 105 LINE",
"95 105 LINE"
);
},
{
closed = 1;
nodes = (
"359 0 LINE",
"727 450 LINE",
"639 507 LINE",
"271 58 LINE"
);
},
{
closed = 1;
nodes = (
"506 760 LINE",
"393 760 LINE",
"393 110 LINE",
"506 230 LINE"
);
}
);
width = 823;
},
{
associatedMasterId = "C60226DB-E4D3-4E89-B452-CA8BAB7E3EC0";
layerId = "6C783A21-945B-49F5-8AD0-9FB02962B258";
name = "Apr 14 20, 23:06";
width = 740;
},
{
associatedMasterId = "C60226DB-E4D3-4E89-B452-CA8BAB7E3EC0";
layerId = "4FAD8B27-18F4-466C-83F3-B3E4765296B4";
name = "Apr 15 20, 15:45";
width = 740;
},
{
associatedMasterId = "C60226DB-E4D3-4E89-B452-CA8BAB7E3EC0";
layerId = "9E2000A8-2505-43C8-9AF5-5694FCA9BA24";
name = "Apr 16 20, 17:24";
paths = (
{
closed = 1;
nodes = (
"178 760 LINE",
"95 760 LINE",
"95 0 LINE",
"178 0 LINE"
);
},
{
closed = 1;
nodes = (
"655 73 LINE",
"95 73 LINE",
"95 0 LINE",
"655 0 LINE"
);
},
{
closed = 1;
nodes = (
"572 0 LINE",
"655 0 LINE",
"655 760 LINE",
"572 760 LINE"
);
},
{
closed = 1;
nodes = (
"329 7 LINE",
"646 377 LINE",
"591 425 LINE",
"273 54 LINE"
);
}
);
width = 750;
},
{
associatedMasterId = "C60226DB-E4D3-4E89-B452-CA8BAB7E3EC0";
layerId = "2337660F-25B9-44C0-A555-7EA585B210B9";
name = "Apr 23 20, 14:53";
paths = (
{
closed = 1;
nodes = (
"685 0 LINE",
"685 760 LINE",
"602 760 LINE",
"602 0 LINE"
);
},
{
closed = 1;
nodes = (
"685 0 LINE",
"685 73 LINE",
"95 73 LINE",
"95 0 LINE"
);
},
{
closed = 1;
nodes = (
"95 760 LINE",
"95 0 LINE",
"178 0 LINE",
"178 760 LINE"
);
},
{
closed = 1;
nodes = (
"242 760 LINE",
"242 0 LINE",
"325 0 LINE",
"325 760 LINE"
);
},
{
closed = 1;
nodes = (
"533 56 LINE",
"169 576 LINE",
"101 528 LINE",
"465 8 LINE"
);
}
);
width = 780;
},
{
anchors = (
{
name = bottom;
position = "{407, 0}";
},
{
name = ogonek;
position = "{720, 10}";
},
{
name = top;
position = "{407, 760}";
},
{
name = topright;
position = "{778, 760}";
}
);
associatedMasterId = "C60226DB-E4D3-4E89-B452-CA8BAB7E3EC0";
background = {
paths = (
{
closed = 1;
nodes = (
"610 451 LINE",
"723 451 LINE",
"723 760 LINE",
"610 760 LINE"
);
},
{
closed = 1;
nodes = (
"99 760 LINE",
"-14 760 LINE",
"-14 0 LINE",
"99 0 LINE"
);
},
{
closed = 1;
nodes = (
"-14 0 LINE",
"354 0 LINE",
"354 105 LINE",
"-14 105 LINE"
);
},
{
closed = 1;
nodes = (
"501 760 LINE",
"388 760 LINE",
"388 110 LINE",
"501 230 LINE"
);
},
{
closed = 1;
nodes = (
"354 0 LINE",
"723 451 LINE",
"634 507 LINE",
"272 65 LINE"
);
}
);
};
layerId = "5FDBDE0F-B061-44E9-AB46-6306BC25E1FF";
name = "Jul 3 20, 15:05";
paths = (
{
closed = 1;
nodes = (
"610 0 LINE",
"723 0 LINE",
"723 760 LINE",
"610 760 LINE"
);
},
{
closed = 1;
nodes = (
"203 760 LINE",
"90 760 LINE",
"90 0 LINE",
"203 0 LINE"
);
},
{
closed = 1;
nodes = (
"90 0 LINE",
"723 0 LINE",
"723 105 LINE",
"90 105 LINE"
);
},
{
closed = 1;
nodes = (
"354 0 LINE",
"722 450 LINE",
"634 507 LINE",
"266 58 LINE"
);
},
{
closed = 1;
nodes = (
"501 760 LINE",
"388 760 LINE",
"388 110 LINE",
"501 230 LINE"
);
}
);
width = 813;
}
);
leftMetricsKey = A;
rightMetricsKey = A;
unicode = "0055,0075";
},
{
color = 3;
glyphname = V;
lastChange = "2020-07-22 13:30:21 +0000";
layers = (
{
anchors = (
{
name = bottom;
position = "{421, 0}";
},
{
name = top;
position = "{421, 760}";
}
);
layerId = "C60226DB-E4D3-4E89-B452-CA8BAB7E3EC0";
paths = (
{
closed = 1;
nodes = (
"628 451 LINE",
"741 451 LINE",
"741 760 LINE",
"628 760 LINE"
);
},
{
closed = 1;
nodes = (
"95 485 LINE",
"741 485 LINE",
"741 590 LINE",
"95 590 LINE"
);
},
{
closed = 1;
nodes = (
"208 760 LINE",
"95 760 LINE",
"95 0 LINE",
"208 0 LINE"
);
},
{
closed = 1;
nodes = (
"95 0 LINE",
"372 0 LINE",
"372 105 LINE",
"95 105 LINE"
);
},
{
closed = 1;
nodes = (
"519 590 LINE",
"406 590 LINE",
"406 93 LINE",
"519 213 LINE"
);
},
{
closed = 1;
nodes = (
"372 0 LINE",
"741 451 LINE",
"652 507 LINE",
"290 65 LINE"
);
}
);
width = 811;
},
{
associatedMasterId = "C60226DB-E4D3-4E89-B452-CA8BAB7E3EC0";
layerId = "F10AD0B9-FF73-4AC9-8278-757A22D1FA05";
name = "Apr 14 20, 23:06";
paths = (
{
closed = 1;
nodes = (
"555 410 LINE",
"640 410 LINE",
"640 760 LINE",
"555 760 LINE"
);
},
{
closed = 1;
nodes = (
"170 515 LINE",
"575 515 LINE",
"575 590 LINE",
"170 590 LINE"
);
},
{
closed = 1;
nodes = (
"185 760 LINE",
"100 760 LINE",
"100 0 LINE",
"185 0 LINE"
);
},
{
closed = 1;
nodes = (
"100 0 LINE",
"312 0 LINE",
"312 75 LINE",
"100 75 LINE"
);
},
{
closed = 1;
nodes = (
"331 0 LINE",
"640 410 LINE",
"583 458 LINE",
"238 0 LINE"
);
},
{
closed = 1;
nodes = (
"390 515 LINE",
"305 515 LINE",
"305 80 LINE",
"390 80 LINE"
);
},
{
closed = 1;
nodes = (
"515 515 LINE",
"430 515 LINE",
"430 247 LINE",
"515 247 LINE"
);
}
);
width = 740;
},
{
associatedMasterId = "C60226DB-E4D3-4E89-B452-CA8BAB7E3EC0";
layerId = "DC489631-EF84-47B9-AF3E-C030897B0ACA";
name = "Apr 15 20, 10:44";
paths = (
{
closed = 1;
nodes = (
"555 410 LINE",
"640 410 LINE",
"640 760 LINE",
"555 760 LINE"
);
},
{
closed = 1;
nodes = (
"170 515 LINE",
"575 515 LINE",
"575 590 LINE",
"170 590 LINE"
);
},
{
closed = 1;
nodes = (
"185 760 LINE",
"100 760 LINE",
"100 0 LINE",
"185 0 LINE"
);
},
{
closed = 1;
nodes = (
"100 0 LINE",
"312 0 LINE",
"312 75 LINE",
"100 75 LINE"
);
},
{
closed = 1;
nodes = (
"331 0 LINE",
"640 410 LINE",
"583 458 LINE",
"238 0 LINE"
);
},
{
closed = 1;
nodes = (
"390 515 LINE",
"305 515 LINE",
"305 80 LINE",
"390 80 LINE"
);
},
{
closed = 1;
nodes = (
"515 515 LINE",
"430 515 LINE",
"430 247 LINE",
"515 247 LINE"
);
}
);
width = 740;
},
{
associatedMasterId = "C60226DB-E4D3-4E89-B452-CA8BAB7E3EC0";
layerId = "3DEEA4C5-7248-44D1-B5F6-3F0535210AB4";
name = "Apr 15 20, 11:24";
paths = (
{
closed = 1;
nodes = (
"557 410 LINE",
"640 410 LINE",
"640 760 LINE",
"557 760 LINE"
);
},
{
closed = 1;
nodes = (
"170 516 LINE",
"575 516 LINE",
"575 589 LINE",
"170 589 LINE"
);
},
{
closed = 1;
nodes = (
"183 760 LINE",
"100 760 LINE",
"100 0 LINE",
"183 0 LINE"
);
},
{
closed = 1;
nodes = (
"100 0 LINE",
"312 0 LINE",
"312 73 LINE",
"100 73 LINE"
);
},
{
closed = 1;
nodes = (
"331 0 LINE",
"640 410 LINE",
"585 458 LINE",
"240 0 LINE"
);
},
{
closed = 1;
nodes = (
"389 565 LINE",
"306 565 LINE",
"306 80 LINE",
"389 80 LINE"
);
},
{
closed = 1;
nodes = (
"514 565 LINE",
"431 565 LINE",
"431 247 LINE",
"514 247 LINE"
);
}
);
width = 740;
},
{
associatedMasterId = "C60226DB-E4D3-4E89-B452-CA8BAB7E3EC0";
layerId = "67AAF894-4257-4430-8333-C2CF32DD870D";
name = "Apr 15 20, 15:45";
paths = (
{
closed = 1;
nodes = (
"576 410 LINE",
"659 410 LINE",
"659 760 LINE",
"576 760 LINE"
);
},
{
closed = 1;
nodes = (
"140 516 LINE",
"605 516 LINE",
"605 589 LINE",
"140 589 LINE"
);
},
{
closed = 1;
nodes = (
"183 760 LINE",
"100 760 LINE",
"100 0 LINE",
"183 0 LINE"
);
},
{
closed = 1;
nodes = (
"100 0 LINE",
"312 0 LINE",
"312 73 LINE",
"100 73 LINE"
);
},
{
closed = 1;
nodes = (
"350 0 LINE",
"659 410 LINE",
"604 458 LINE",
"259 0 LINE"
);
},
{
closed = 1;
nodes = (
"389 565 LINE",
"306 565 LINE",
"306 60 LINE",
"389 60 LINE"
);
},
{
closed = 1;
nodes = (
"524 565 LINE",
"441 565 LINE",
"441 237 LINE",
"524 237 LINE"
);
}
);
width = 740;
},
{
associatedMasterId = "C60226DB-E4D3-4E89-B452-CA8BAB7E3EC0";
backgroundImage = {
crop = "{{0, 0}, {273, 403}}";
imagePath = "PILOTE/HEAR/B/_images/Capture d’écran 2020-04-14 à 14.48.02.png";
locked = "1";
transform = "{2.92754, 0, 0, 2.51911, -2, -108}";
};
layerId = "7E22CD37-36FC-41ED-BD82-03D19541C35A";
name = "Apr 16 20, 17:24";
paths = (
{
closed = 1;
nodes = (
"572 416 LINE",
"655 416 LINE",
"655 760 LINE",
"572 760 LINE"
);
},
{
closed = 1;
nodes = (
"95 501 LINE",
"655 501 LINE",
"655 574 LINE",
"95 574 LINE"
);
},
{
closed = 1;
nodes = (
"178 760 LINE",
"95 760 LINE",
"95 0 LINE",
"178 0 LINE"
);
},
{
closed = 1;
nodes = (
"95 0 LINE",
"298 0 LINE",
"298 73 LINE",
"95 73 LINE"
);
},
{
closed = 1;
nodes = (
"417 550 LINE",
"334 550 LINE",
"334 140 LINE",
"417 140 LINE"
);
},
{
closed = 1;
nodes = (
"536 550 LINE",
"453 550 LINE",
"453 287 LINE",
"536 287 LINE"
);
},
{
closed = 1;
nodes = (
"298 0 LINE",
"655 416 LINE",
"600 464 LINE",
"242 47 LINE"
);
}
);
width = 745;
}
);
leftMetricsKey = A;
unicode = "0056,0076";
},
{
color = 3;
glyphname = W;
lastChange = "2020-07-22 13:30:24 +0000";
layers = (
{
anchors = (
{
name = bottom;
position = "{451, 0}";
},
{
name = top;
position = "{451, 760}";
}
);
background = {
paths = (
{
closed = 1;
nodes = (
"193 760 LINE",
"110 760 LINE",
"110 0 LINE",
"193 0 LINE"
);
},
{
closed = 1;
nodes = (
"446 75 LINE",
"110 75 LINE",
"110 0 LINE",
"446 0 LINE"
);
},
{
closed = 1;
nodes = (
"734 400 LINE",
"817 454 LINE",
"817 760 LINE",
"734 760 LINE"
);
},
{
closed = 1;
nodes = (
"434 0 LINE",
"517 115 LINE",
"517 760 LINE",
"434 760 LINE"
);
},
{
closed = 1;
nodes = (
"584 230 LINE",
"667 310 LINE",
"667 760 LINE",
"584 760 LINE"
);
},
{
closed = 1;
nodes = (
"446 0 LINE",
"817 454 LINE",
"756 498 LINE",
"387 47 LINE"
);
}
);
};
layerId = "C60226DB-E4D3-4E89-B452-CA8BAB7E3EC0";
paths = (
{
closed = 1;
nodes = (
"719 451 LINE",
"832 451 LINE",
"832 760 LINE",
"719 760 LINE"
);
},
{
closed = 1;
nodes = (
"208 760 LINE",
"95 760 LINE",
"95 0 LINE",
"208 0 LINE"
);
},
{
closed = 1;
nodes = (
"95 0 LINE",
"463 0 LINE",
"463 105 LINE",
"95 105 LINE"
);
},
{
closed = 1;
nodes = (
"610 760 LINE",
"497 760 LINE",
"497 110 LINE",
"610 230 LINE"
);
},
{
closed = 1;
nodes = (
"463 0 LINE",
"832 451 LINE",
"743 507 LINE",
"381 65 LINE"
);
}
);
width = 902;
},
{
associatedMasterId = "C60226DB-E4D3-4E89-B452-CA8BAB7E3EC0";
layerId = "AA03E0D3-1253-46B2-AD00-8FF8D9081B5C";
name = "Apr 14 20, 23:06";
width = 740;
},
{
associatedMasterId = "C60226DB-E4D3-4E89-B452-CA8BAB7E3EC0";
layerId = "83E02435-DAA0-4E9D-AD39-CB9942E81828";
name = "Apr 15 20, 15:45";
width = 740;
},
{
associatedMasterId = "C60226DB-E4D3-4E89-B452-CA8BAB7E3EC0";
layerId = "660FD8E0-E31C-493C-8864-354F190692E4";
name = "Apr 16 20, 17:24";
paths = (
{
closed = 1;
nodes = (
"730 0 LINE",
"730 760 LINE",
"647 760 LINE",
"647 0 LINE"
);
},
{
closed = 1;
nodes = (
"730 0 LINE",
"730 73 LINE",
"95 73 LINE",
"95 0 LINE"
);
},
{
closed = 1;
nodes = (
"95 760 LINE",
"95 0 LINE",
"178 0 LINE",
"178 760 LINE"
);
},
{
closed = 1;
nodes = (
"371 760 LINE",
"371 160 LINE",
"454 160 LINE",
"454 760 LINE"
);
},
{
closed = 1;
nodes = (
"233 760 LINE",
"233 0 LINE",
"316 0 LINE",
"316 760 LINE"
);
},
{
closed = 1;
nodes = (
"469 11 LINE",
"529 53 LINE",
"165 573 LINE",
"105 531 LINE"
);
}
);
width = 825;
},
{
associatedMasterId = "C60226DB-E4D3-4E89-B452-CA8BAB7E3EC0";
background = {
paths = (
{
closed = 1;
nodes = (
"682 450 LINE",
"765 450 LINE",
"765 760 LINE",
"682 760 LINE"
);
},
{
closed = 1;
nodes = (
"135 501 LINE",
"741 501 LINE",
"741 574 LINE",
"135 574 LINE"
);
},
{
closed = 1;
nodes = (
"218 760 LINE",
"135 760 LINE",
"135 0 LINE",
"218 0 LINE"
);
},
{
closed = 1;
nodes = (
"135 0 LINE",
"397 0 LINE",
"397 73 LINE",
"135 73 LINE"
);
},
{
closed = 1;
nodes = (
"471 574 LINE",
"388 574 LINE",
"388 93 LINE",
"471 93 LINE"
);
},
{
closed = 1;
nodes = (
"618 574 LINE",
"535 574 LINE",
"535 277 LINE",
"618 277 LINE"
);
},
{
closed = 1;
nodes = (
"397 0 LINE",
"765 450 LINE",
"708 495 LINE",
"340 45 LINE"
);
}
);
};
layerId = "499D4EC8-BF0A-420B-8EF8-7F3BE8E1CC8B";
name = "Apr 23 20, 23:13";
paths = (
{
closed = 1;
nodes = (
"178 760 LINE",
"95 760 LINE",
"95 0 LINE",
"178 0 LINE"
);
},
{
closed = 1;
nodes = (
"398 73 LINE",
"95 73 LINE",
"95 0 LINE",
"398 0 LINE"
);
},
{
closed = 1;
nodes = (
"683 450 LINE",
"766 450 LINE",
"766 760 LINE",
"683 760 LINE"
);
},
{
closed = 1;
nodes = (
"389 84 LINE",
"472 104 LINE",
"472 760 LINE",
"389 760 LINE"
);
},
{
closed = 1;
nodes = (
"536 274 LINE",
"619 274 LINE",
"619 760 LINE",
"536 760 LINE"
);
},
{
closed = 1;
nodes = (
"398 0 LINE",
"766 450 LINE",
"709 495 LINE",
"341 45 LINE"
);
},
{
closed = 1;
nodes = (
"95 501 LINE",
"766 501 LINE",
"766 574 LINE",
"95 574 LINE"
);
}
);
width = 861;
},
{
anchors = (
{
name = bottom;
position = "{429, 0}";
},
{
name = top;
position = "{429, 760}";
}
);
associatedMasterId = "C60226DB-E4D3-4E89-B452-CA8BAB7E3EC0";
layerId = "A45C5023-331E-4D73-A590-00C9A6707EBA";
name = "Jun 1 20, 23:35";
paths = (
{
closed = 1;
nodes = (
"173 760 LINE",
"90 760 LINE",
"90 0 LINE",
"173 0 LINE"
);
},
{
closed = 1;
nodes = (
"767 75 LINE",
"90 75 LINE",
"90 0 LINE",
"767 0 LINE"
);
},
{
closed = 1;
nodes = (
"684 0 LINE",
"767 0 LINE",
"767 760 LINE",
"684 760 LINE"
);
},
{
closed = 1;
nodes = (
"384 0 LINE",
"467 0 LINE",
"467 760 LINE",
"384 760 LINE"
);
},
{
closed = 1;
nodes = (
"534 0 LINE",
"617 0 LINE",
"617 760 LINE",
"534 760 LINE"
);
},
{
closed = 1;
nodes = (
"396 0 LINE",
"764 450 LINE",
"703 494 LINE",
"337 47 LINE"
);
}
);
width = 857;
}
);
leftMetricsKey = A;
unicode = "0057,0077";
},
{
color = 3;
glyphname = X;
lastChange = "2020-07-16 13:27:07 +0000";
layers = (
{
anchors = (
{
name = bottom;
position = "{418, 0}";
},
{
name = top;
position = "{418, 760}";
}
);
layerId = "C60226DB-E4D3-4E89-B452-CA8BAB7E3EC0";
paths = (
{
closed = 1;
nodes = (
"749 0 LINE",
"227 760 LINE",
"90 760 LINE",
"612 0 LINE"
);
},
{
closed = 1;
nodes = (
"366 405 LINE",
"83 0 LINE",
"211 0 LINE",
"445 334 LINE"
);
},
{
closed = 1;
nodes = (
"459 349 LINE",
"746 760 LINE",
"619 760 LINE",
"387 430 LINE"
);
},
{
closed = 1;
nodes = (
"70 0 LINE",
"765 0 LINE",
"765 105 LINE",
"70 105 LINE"
);
},
{
closed = 1;
nodes = (
"70 655 LINE",
"765 655 LINE",
"765 760 LINE",
"70 760 LINE"
);
}
);
width = 835;
},
{
associatedMasterId = "C60226DB-E4D3-4E89-B452-CA8BAB7E3EC0";
layerId = "E25DB1E5-A1F8-42DC-8C29-C517D0FDE2E3";
name = "Apr 14 20, 23:06";
width = 740;
},
{
associatedMasterId = "C60226DB-E4D3-4E89-B452-CA8BAB7E3EC0";
layerId = "1708B6DA-BF43-4D39-A2AA-4B7A6076FF86";
name = "Apr 15 20, 15:45";
width = 740;
},
{
associatedMasterId = "C60226DB-E4D3-4E89-B452-CA8BAB7E3EC0";
layerId = "12286828-1DB1-4622-A1B3-FB915C0DC4AB";
name = "Apr 16 20, 17:24";
paths = (
{
closed = 1;
nodes = (
"178 760 LINE",
"95 760 LINE",
"95 0 LINE",
"178 0 LINE"
);
},
{
closed = 1;
nodes = (
"614 0 LINE",
"697 0 LINE",
"697 760 LINE",
"614 760 LINE"
);
},
{
closed = 1;
nodes = (
"276 760 LINE",
"95 760 LINE",
"95 687 LINE",
"276 687 LINE"
);
},
{
closed = 1;
nodes = (
"276 73 LINE",
"95 73 LINE",
"95 0 LINE",
"276 0 LINE"
);
},
{
closed = 1;
nodes = (
"697 760 LINE",
"516 760 LINE",
"516 687 LINE",
"697 687 LINE"
);
},
{
closed = 1;
nodes = (
"697 73 LINE",
"516 73 LINE",
"516 0 LINE",
"697 0 LINE"
);
},
{
closed = 1;
nodes = (
"594 0 LINE",
"283 760 LINE",
"195 760 LINE",
"505 0 LINE"
);
},
{
closed = 1;
nodes = (
"363 388 LINE",
"202 0 LINE",
"280 0 LINE",
"406 297 LINE"
);
},
{
closed = 1;
nodes = (
"425 362 LINE",
"590 760 LINE",
"513 760 LINE",
"384 456 LINE"
);
}
);
width = 792;
},
{
associatedMasterId = "C60226DB-E4D3-4E89-B452-CA8BAB7E3EC0";
layerId = "860B80DC-28F8-4BC3-9ACD-55BF915BA807";
name = "Apr 21 20, 00:57";
paths = (
{
closed = 1;
nodes = (
"178 760 LINE",
"95 760 LINE",
"95 0 LINE",
"178 0 LINE"
);
},
{
closed = 1;
nodes = (
"614 0 LINE",
"697 0 LINE",
"697 760 LINE",
"614 760 LINE"
);
},
{
closed = 1;
nodes = (
"276 760 LINE",
"95 760 LINE",
"95 687 LINE",
"276 687 LINE"
);
},
{
closed = 1;
nodes = (
"276 73 LINE",
"95 73 LINE",
"95 0 LINE",
"276 0 LINE"
);
},
{
closed = 1;
nodes = (
"697 760 LINE",
"516 760 LINE",
"516 687 LINE",
"697 687 LINE"
);
},
{
closed = 1;
nodes = (
"697 73 LINE",
"516 73 LINE",
"516 0 LINE",
"697 0 LINE"
);
},
{
closed = 1;
nodes = (
"594 0 LINE",
"283 760 LINE",
"195 760 LINE",
"505 0 LINE"
);
},
{
closed = 1;
nodes = (
"363 388 LINE",
"202 0 LINE",
"280 0 LINE",
"406 297 LINE"
);
},
{
closed = 1;
nodes = (
"425 362 LINE",
"590 760 LINE",
"513 760 LINE",
"384 456 LINE"
);
}
);
width = 792;
},
{
associatedMasterId = "C60226DB-E4D3-4E89-B452-CA8BAB7E3EC0";
background = {
paths = (
{
closed = 1;
nodes = (
"713 0 LINE",
"215 760 LINE",
"117 760 LINE",
"614 0 LINE"
);
},
{
closed = 1;
nodes = (
"379 394 LINE",
"112 0 LINE",
"201 0 LINE",
"422 327 LINE"
);
},
{
closed = 1;
nodes = (
"441 366 LINE",
"708 760 LINE",
"620 760 LINE",
"398 432 LINE"
);
}
);
};
layerId = "F1F8DA21-DEA4-4023-B35F-BBD0954C419F";
name = "Apr 23 20, 15:55";
paths = (
{
closed = 1;
nodes = (
"713 0 LINE",
"215 760 LINE",
"117 760 LINE",
"614 0 LINE"
);
},
{
closed = 1;
nodes = (
"379 394 LINE",
"112 0 LINE",
"201 0 LINE",
"424 329 LINE"
);
},
{
closed = 1;
nodes = (
"442 367 LINE",
"708 760 LINE",
"620 760 LINE",
"398 432 LINE"
);
},
{
closed = 1;
nodes = (
"60 0 LINE",
"765 0 LINE",
"765 73 LINE",
"60 73 LINE"
);
},
{
closed = 1;
nodes = (
"65 687 LINE",
"760 687 LINE",
"760 760 LINE",
"65 760 LINE"
);
}
);
width = 825;
}
);
unicode = "0058,0078";
},
{
color = 3;
glyphname = Y;
lastChange = "2020-07-16 22:00:37 +0000";
layers = (
{
anchors = (
{
name = bottom;
position = "{439, 0}";
},
{
name = top;
position = "{439, 760}";
},
{
name = topleft;
position = "{35, 760}";
}
);
guideLines = (
{
position = "{532, 438}";
}
);
layerId = "C60226DB-E4D3-4E89-B452-CA8BAB7E3EC0";
paths = (
{
closed = 1;
nodes = (
"832 655 LINE",
"832 760 LINE",
"45 760 LINE",
"45 655 LINE",
"120 655 LINE",
"385 230 LINE",
"492 230 LINE",
"757 655 LINE"
);
},
{
closed = 1;
nodes = (
"437 345 LINE",
"253 655 LINE",
"634 655 LINE"
);
},
{
closed = 1;
nodes = (
"382 0 LINE",
"495 0 LINE",
"495 760 LINE",
"382 760 LINE"
);
}
);
width = 877;
},
{
associatedMasterId = "C60226DB-E4D3-4E89-B452-CA8BAB7E3EC0";
layerId = "B78FCD57-0509-42F2-8181-E2B46E212D45";
name = "Apr 27 20, 22:30";
paths = (
{
closed = 1;
nodes = (
"60 760 LINE",
"60 550 LINE",
"143 550 LINE",
"143 760 LINE"
);
},
{
closed = 1;
nodes = (
"660 0 LINE",
"660 760 LINE",
"577 760 LINE",
"577 0 LINE"
);
},
{
closed = 1;
nodes = (
"298 332 LINE",
"298 259 LINE",
"660 259 LINE",
"660 332 LINE"
);
},
{
closed = 1;
nodes = (
"117 595 LINE",
"60 550 LINE",
"298 259 LINE",
"392 259 LINE"
);
},
{
closed = 1;
nodes = (
"290 379 LINE",
"290 760 LINE",
"207 760 LINE",
"207 379 LINE"
);
},
{
closed = 1;
nodes = (
"437 303 LINE",
"437 760 LINE",
"354 760 LINE",
"354 303 LINE"
);
}
);
width = 745;
},
{
anchors = (
{
name = bottom;
position = "{434, 0}";
},
{
name = top;
position = "{434, 760}";
},
{
name = topleft;
position = "{30, 760}";
}
);
associatedMasterId = "C60226DB-E4D3-4E89-B452-CA8BAB7E3EC0";
layerId = "BE94C4CD-7847-4835-B922-FD5E3075A97C";
name = "Jun 2 20, 12:06";
paths = (
{
closed = 1;
nodes = (
"827 685 LINE",
"827 760 LINE",
"40 760 LINE",
"40 685 LINE",
"95 685 LINE",
"380 230 LINE",
"487 230 LINE",
"772 685 LINE"
);
},
{
closed = 1;
nodes = (
"438 334 LINE",
"223 685 LINE",
"653 685 LINE"
);
},
{
closed = 1;
nodes = (
"377 0 LINE",
"490 0 LINE",
"490 760 LINE",
"377 760 LINE"
);
}
);
visible = 1;
width = 867;
}
);
unicode = "0059,0079";
},
{
color = 3;
glyphname = Z;
lastChange = "2020-07-16 13:27:07 +0000";
layers = (
{
anchors = (
{
name = bottom;
position = "{385, 0}";
},
{
name = top;
position = "{385, 760}";
}
);
layerId = "C60226DB-E4D3-4E89-B452-CA8BAB7E3EC0";
paths = (
{
closed = 1;
nodes = (
"582 594 LINE",
"695 594 LINE",
"695 760 LINE",
"582 760 LINE"
);
},
{
closed = 1;
nodes = (
"193 168 LINE",
"80 168 LINE",
"80 0 LINE",
"193 0 LINE"
);
},
{
closed = 1;
nodes = (
"80 0 LINE",
"700 0 LINE",
"700 105 LINE",
"80 105 LINE"
);
},
{
closed = 1;
nodes = (
"165 103 LINE",
"695 594 LINE",
"614 663 LINE",
"80 168 LINE"
);
},
{
closed = 1;
nodes = (
"85 655 LINE",
"695 655 LINE",
"695 760 LINE",
"85 760 LINE"
);
},
{
closed = 1;
nodes = (
"330 0 LINE",
"443 0 LINE",
"443 760 LINE",
"330 760 LINE"
);
}
);
width = 770;
},
{
associatedMasterId = "C60226DB-E4D3-4E89-B452-CA8BAB7E3EC0";
layerId = "477F6F2D-A91D-4E0E-85B7-8B66977812D9";
name = "Apr 14 20, 23:06";
width = 740;
},
{
associatedMasterId = "C60226DB-E4D3-4E89-B452-CA8BAB7E3EC0";
layerId = "78282E0E-3796-490C-B087-AEFA725D84EC";
name = "Apr 15 20, 15:45";
width = 740;
},
{
associatedMasterId = "C60226DB-E4D3-4E89-B452-CA8BAB7E3EC0";
layerId = "C144CFD8-37D9-4A65-8D54-D60C1C0B6ABE";
name = "Apr 16 20, 17:24";
paths = (
{
closed = 1;
nodes = (
"610 760 LINE",
"90 760 LINE",
"90 687 LINE",
"610 687 LINE"
);
},
{
closed = 1;
nodes = (
"610 73 LINE",
"90 73 LINE",
"90 0 LINE",
"610 0 LINE"
);
},
{
closed = 1;
nodes = (
"527 0 LINE",
"610 0 LINE",
"610 232 LINE",
"527 232 LINE"
);
},
{
closed = 1;
nodes = (
"90 0 LINE",
"173 0 LINE",
"173 237 LINE",
"90 237 LINE"
);
},
{
closed = 1;
nodes = (
"153 194 LINE",
"610 687 LINE",
"554 737 LINE",
"90 237 LINE"
);
},
{
closed = 1;
nodes = (
"610 237 LINE",
"90 237 LINE",
"90 164 LINE",
"610 164 LINE"
);
}
);
width = 700;
},
{
associatedMasterId = "C60226DB-E4D3-4E89-B452-CA8BAB7E3EC0";
layerId = "50CD6AB7-79E0-46CF-9D7B-51CDD6D7ABE3";
name = "Apr 21 20, 00:57";
paths = (
{
closed = 1;
nodes = (
"610 760 LINE",
"90 760 LINE",
"90 687 LINE",
"610 687 LINE"
);
},
{
closed = 1;
nodes = (
"610 73 LINE",
"90 73 LINE",
"90 0 LINE",
"610 0 LINE"
);
},
{
closed = 1;
nodes = (
"527 0 LINE",
"610 0 LINE",
"610 232 LINE",
"527 232 LINE"
);
},
{
closed = 1;
nodes = (
"90 0 LINE",
"173 0 LINE",
"173 237 LINE",
"90 237 LINE"
);
},
{
closed = 1;
nodes = (
"153 194 LINE",
"610 687 LINE",
"554 737 LINE",
"90 237 LINE"
);
},
{
closed = 1;
nodes = (
"610 237 LINE",
"90 237 LINE",
"90 164 LINE",
"610 164 LINE"
);
}
);
width = 700;
},
{
associatedMasterId = "C60226DB-E4D3-4E89-B452-CA8BAB7E3EC0";
layerId = "0AC7433F-EAB9-4969-A61E-4E043351144D";
name = "Apr 23 20, 14:36";
paths = (
{
closed = 1;
nodes = (
"620 760 LINE",
"70 760 LINE",
"70 687 LINE",
"620 687 LINE"
);
},
{
closed = 1;
nodes = (
"630 73 LINE",
"70 73 LINE",
"70 0 LINE",
"630 0 LINE"
);
},
{
closed = 1;
nodes = (
"547 0 LINE",
"630 0 LINE",
"630 400 LINE",
"547 400 LINE"
);
},
{
closed = 1;
nodes = (
"70 0 LINE",
"153 0 LINE",
"153 237 LINE",
"70 237 LINE"
);
},
{
closed = 1;
nodes = (
"133 194 LINE",
"620 687 LINE",
"564 737 LINE",
"70 237 LINE"
);
},
{
closed = 1;
nodes = (
"630 400 LINE",
"240 400 LINE",
"240 327 LINE",
"630 327 LINE"
);
},
{
closed = 1;
nodes = (
"483 0 LINE",
"483 400 LINE",
"400 400 LINE",
"400 0 LINE"
);
}
);
width = 710;
}
);
unicode = "005A,007A";
},
{
color = 3;
glyphname = germandbls;
lastChange = "2020-07-16 13:14:08 +0000";
layers = (
{
layerId = "C60226DB-E4D3-4E89-B452-CA8BAB7E3EC0";
paths = (
{
closed = 1;
nodes = (
"208 760 LINE",
"95 760 LINE",
"95 0 LINE",
"208 0 LINE"
);
},
{
closed = 1;
nodes = (
"469 384 LINE",
"695 384 LINE",
"695 489 LINE",
"469 489 LINE"
);
},
{
closed = 1;
nodes = (
"654 760 LINE",
"541 760 LINE",
"541 630 LINE",
"654 630 LINE"
);
},
{
closed = 1;
nodes = (
"654 760 LINE",
"95 760 LINE",
"95 655 LINE",
"654 655 LINE"
);
},
{
closed = 1;
nodes = (
"332 105 LINE",
"332 0 LINE",
"695 0 LINE",
"695 105 LINE"
);
},
{
closed = 1;
nodes = (
"695 489 LINE",
"582 489 LINE",
"582 0 LINE",
"695 0 LINE"
);
},
{
closed = 1;
nodes = (
"492 530 LINE",
"379 530 LINE",
"379 384 LINE",
"492 384 LINE"
);
},
{
closed = 1;
nodes = (
"654 612 LINE",
"654 758 LINE",
"379 530 LINE",
"379 384 LINE"
);
}
);
width = 775;
},
{
associatedMasterId = "C60226DB-E4D3-4E89-B452-CA8BAB7E3EC0";
layerId = "F9A63288-A886-4879-834E-FFFE8206A46F";
name = "Jul 16 20, 12:37";
paths = (
{
closed = 1;
nodes = (
"323 760 LINE",
"240 760 LINE",
"240 0 LINE",
"323 0 LINE"
);
},
{
closed = 1;
nodes = (
"438 414 LINE",
"724 414 LINE",
"724 489 LINE",
"438 489 LINE"
);
},
{
closed = 1;
nodes = (
"683 760 LINE",
"90 760 LINE",
"90 685 LINE",
"683 685 LINE"
);
},
{
closed = 1;
nodes = (
"390 75 LINE",
"390 0 LINE",
"724 0 LINE",
"724 75 LINE"
);
},
{
closed = 1;
nodes = (
"724 489 LINE",
"641 489 LINE",
"641 0 LINE",
"724 0 LINE"
);
},
{
closed = 1;
nodes = (
"173 760 LINE",
"90 760 LINE",
"90 0 LINE",
"173 0 LINE"
);
},
{
closed = 1;
nodes = (
"683 760 LINE",
"600 760 LINE",
"600 635 LINE",
"683 635 LINE"
);
},
{
closed = 1;
nodes = (
"521 537 LINE",
"438 537 LINE",
"438 414 LINE",
"521 414 LINE"
);
},
{
closed = 1;
nodes = (
"657 711 LINE",
"438 537 LINE",
"444 443 LINE",
"683 635 LINE"
);
}
);
width = 600;
}
);
leftMetricsKey = B;
rightMetricsKey = B;
unicode = 00DF;
},
{
color = 3;
glyphname = ordmasculine;
lastChange = "2020-07-16 13:14:08 +0000";
layers = (
{
background = {
components = (
{
name = degree;
transform = "{1, 0, 0, 1, -10, 0}";
}
);
};
layerId = "C60226DB-E4D3-4E89-B452-CA8BAB7E3EC0";
paths = (
{
closed = 1;
nodes = (
"292 455 LINE",
"405 455 LINE",
"405 760 LINE",
"292 760 LINE"
);
},
{
closed = 1;
nodes = (
"188 760 LINE",
"75 760 LINE",
"75 455 LINE",
"188 455 LINE"
);
},
{
closed = 1;
nodes = (
"75 455 LINE",
"405 455 LINE",
"405 560 LINE",
"75 560 LINE"
);
},
{
closed = 1;
nodes = (
"75 655 LINE",
"405 655 LINE",
"405 760 LINE",
"75 760 LINE"
);
},
{
closed = 1;
nodes = (
"75 390 LINE",
"75 285 LINE",
"405 285 LINE",
"405 390 LINE"
);
}
);
width = 480;
}
);
unicode = 00BA;
},
{
color = 3;
glyphname = zero;
lastChange = "2020-07-16 13:14:08 +0000";
layers = (
{
layerId = "C60226DB-E4D3-4E89-B452-CA8BAB7E3EC0";
paths = (
{
closed = 1;
nodes = (
"70 760 LINE",
"70 0 LINE",
"183 0 LINE",
"183 760 LINE"
);
},
{
closed = 1;
nodes = (
"70 760 LINE",
"70 655 LINE",
"680 655 LINE",
"680 760 LINE"
);
},
{
closed = 1;
nodes = (
"680 0 LINE",
"680 760 LINE",
"567 760 LINE",
"567 0 LINE"
);
},
{
closed = 1;
nodes = (
"70 105 LINE",
"70 0 LINE",
"680 0 LINE",
"680 105 LINE"
);
},
{
closed = 1;
nodes = (
"448 716 LINE",
"192 48 LINE",
"311 46 LINE",
"567 715 LINE"
);
}
);
width = 750;
}
);
unicode = 0030;
},
{
color = 3;
glyphname = one;
lastChange = "2020-07-16 13:14:08 +0000";
layers = (
{
layerId = "C60226DB-E4D3-4E89-B452-CA8BAB7E3EC0";
paths = (
{
closed = 1;
nodes = (
"60 655 LINE",
"575 655 LINE",
"575 760 LINE",
"60 760 LINE"
);
},
{
closed = 1;
nodes = (
"368 595 LINE",
"255 595 LINE",
"255 0 LINE",
"368 0 LINE"
);
},
{
closed = 1;
nodes = (
"575 760 LINE",
"462 760 LINE",
"462 0 LINE",
"575 0 LINE"
);
},
{
closed = 1;
nodes = (
"130 0 LINE",
"700 0 LINE",
"700 105 LINE",
"130 105 LINE"
);
},
{
closed = 1;
nodes = (
"478 276 LINE",
"557 359 LINE",
"265 747 LINE",
"173 681 LINE"
);
}
);
width = 750;
},
{
associatedMasterId = "C60226DB-E4D3-4E89-B452-CA8BAB7E3EC0";
layerId = "E225C21A-06F1-412E-AF69-AC43FDA64930";
name = "1";
paths = (
{
closed = 1;
nodes = (
"319 760 LINE",
"319 687 LINE",
"547 687 LINE",
"547 760 LINE"
);
},
{
closed = 1;
nodes = (
"547 0 LINE",
"547 760 LINE",
"464 760 LINE",
"464 0 LINE"
);
},
{
closed = 1;
nodes = (
"217 575 LINE",
"217 500 LINE",
"547 500 LINE",
"547 575 LINE"
);
},
{
closed = 1;
nodes = (
"133 369 LINE",
"373 712 LINE",
"319 760 LINE",
"45 369 LINE"
);
}
);
width = 642;
}
);
unicode = 0031;
},
{
color = 3;
glyphname = two;
lastChange = "2020-07-16 13:14:08 +0000";
layers = (
{
layerId = "C60226DB-E4D3-4E89-B452-CA8BAB7E3EC0";
paths = (
{
closed = 1;
nodes = (
"95 543 LINE",
"95 -1 LINE",
"208 -1 LINE",
"208 543 LINE"
);
},
{
closed = 1;
nodes = (
"95 759 LINE",
"95 654 LINE",
"665 654 LINE",
"665 759 LINE"
);
},
{
closed = 1;
nodes = (
"665 438 LINE",
"665 759 LINE",
"552 759 LINE",
"552 438 LINE"
);
},
{
closed = 1;
nodes = (
"95 543 LINE",
"95 438 LINE",
"665 438 LINE",
"665 543 LINE"
);
},
{
closed = 1;
nodes = (
"430 161 LINE",
"430 543 LINE",
"317 543 LINE",
"317 161 LINE"
);
},
{
closed = 1;
nodes = (
"95 -1 LINE",
"665 -1 LINE",
"665 104 LINE",
"95 104 LINE"
);
},
{
closed = 1;
nodes = (
"194 457 LINE",
"134 370 LINE",
"437 -1 LINE",
"528 49 LINE"
);
}
);
width = 750;
}
);
unicode = 0032;
},
{
color = 3;
glyphname = three;
lastChange = "2020-07-16 13:14:08 +0000";
layers = (
{
layerId = "C60226DB-E4D3-4E89-B452-CA8BAB7E3EC0";
paths = (
{
closed = 1;
nodes = (
"100 655 LINE",
"645 655 LINE",
"645 760 LINE",
"100 760 LINE"
);
},
{
closed = 1;
nodes = (
"423 760 LINE",
"310 760 LINE",
"310 162 LINE",
"423 162 LINE"
);
},
{
closed = 1;
nodes = (
"100 0 LINE",
"645 0 LINE",
"645 105 LINE",
"100 105 LINE"
);
},
{
closed = 1;
nodes = (
"110 544 LINE",
"110 439 LINE",
"645 439 LINE",
"645 544 LINE"
);
},
{
closed = 1;
nodes = (
"645 760 LINE",
"532 760 LINE",
"532 0 LINE",
"645 0 LINE"
);
},
{
closed = 1;
nodes = (
"303 0 LINE",
"606 371 LINE",
"546 458 LINE",
"212 50 LINE"
);
}
);
width = 750;
}
);
unicode = 0033;
},
{
color = 3;
glyphname = four;
lastChange = "2020-07-22 13:22:26 +0000";
layers = (
{
layerId = "C60226DB-E4D3-4E89-B452-CA8BAB7E3EC0";
paths = (
{
closed = 1;
nodes = (
"332 760 LINE",
"332 655 LINE",
"584 655 LINE",
"584 760 LINE"
);
},
{
closed = 1;
nodes = (
"584 0 LINE",
"584 760 LINE",
"470 760 LINE",
"470 0 LINE"
);
},
{
closed = 1;
nodes = (
"269 575 LINE",
"269 470 LINE",
"584 470 LINE",
"584 575 LINE"
);
},
{
closed = 1;
nodes = (
"181 255 LINE",
"424 720 LINE",
"332 760 LINE",
"85 302 LINE",
"85 255 LINE"
);
},
{
closed = 1;
nodes = (
"685 302 LINE",
"85 302 LINE",
"85 197 LINE",
"685 197 LINE"
);
}
);
width = 750;
}
);
unicode = 0034;
},
{
color = 3;
glyphname = five;
lastChange = "2020-07-16 13:14:08 +0000";
layers = (
{
layerId = "C60226DB-E4D3-4E89-B452-CA8BAB7E3EC0";
paths = (
{
closed = 1;
nodes = (
"542 0 LINE",
"655 0 LINE",
"655 544 LINE",
"542 544 LINE"
);
},
{
closed = 1;
nodes = (
"85 655 LINE",
"655 655 LINE",
"655 760 LINE",
"85 760 LINE"
);
},
{
closed = 1;
nodes = (
"198 760 LINE",
"85 760 LINE",
"85 439 LINE",
"198 439 LINE"
);
},
{
closed = 1;
nodes = (
"85 439 LINE",
"655 439 LINE",
"655 544 LINE",
"85 544 LINE"
);
},
{
closed = 1;
nodes = (
"433 544 LINE",
"320 544 LINE",
"320 162 LINE",
"433 162 LINE"
);
},
{
closed = 1;
nodes = (
"85 105 LINE",
"85 0 LINE",
"655 0 LINE",
"655 105 LINE"
);
},
{
closed = 1;
nodes = (
"313 0 LINE",
"616 371 LINE",
"556 458 LINE",
"222 50 LINE"
);
}
);
width = 750;
}
);
unicode = 0035;
},
{
color = 3;
glyphname = six;
lastChange = "2020-07-16 13:14:08 +0000";
layers = (
{
layerId = "C60226DB-E4D3-4E89-B452-CA8BAB7E3EC0";
paths = (
{
closed = 1;
nodes = (
"213 760 LINE",
"100 760 LINE",
"100 0 LINE",
"213 0 LINE"
);
},
{
closed = 1;
nodes = (
"660 105 LINE",
"100 105 LINE",
"100 0 LINE",
"660 0 LINE"
);
},
{
closed = 1;
nodes = (
"547 0 LINE",
"660 0 LINE",
"660 372 LINE",
"547 372 LINE"
);
},
{
closed = 1;
nodes = (
"660 372 LINE",
"100 372 LINE",
"100 267 LINE",
"660 267 LINE"
);
},
{
closed = 1;
nodes = (
"322 267 LINE",
"435 267 LINE",
"435 727 LINE",
"322 567 LINE"
);
},
{
closed = 1;
nodes = (
"665 655 LINE",
"665 760 LINE",
"100 760 LINE",
"100 655 LINE"
);
},
{
closed = 1;
nodes = (
"380 758 LINE",
"129 399 LINE",
"194 308 LINE",
"470 704 LINE"
);
}
);
width = 750;
}
);
unicode = 0036;
},
{
color = 3;
glyphname = seven;
lastChange = "2020-07-22 13:22:34 +0000";
layers = (
{
layerId = "C60226DB-E4D3-4E89-B452-CA8BAB7E3EC0";
paths = (
{
closed = 1;
nodes = (
"562 580 LINE",
"675 580 LINE",
"675 760 LINE",
"562 760 LINE"
);
},
{
closed = 1;
nodes = (
"92 655 LINE",
"675 655 LINE",
"675 760 LINE",
"92 760 LINE"
);
},
{
closed = 1;
nodes = (
"315 193 LINE",
"428 313 LINE",
"428 760 LINE",
"315 760 LINE"
);
},
{
closed = 1;
nodes = (
"245 0 LINE",
"675 580 LINE",
"587 637 LINE",
"115 0 LINE"
);
}
);
width = 750;
},
{
associatedMasterId = "C60226DB-E4D3-4E89-B452-CA8BAB7E3EC0";
layerId = "46AFA82E-F85F-4236-96A1-165F503B47AD";
name = "Apr 27 20, 23:28";
paths = (
{
closed = 1;
nodes = (
"610 0 LINE",
"610 73 LINE",
"320 73 LINE",
"320 0 LINE"
);
},
{
closed = 1;
nodes = (
"320 600 LINE",
"320 0 LINE",
"403 0 LINE",
"403 600 LINE"
);
},
{
closed = 1;
nodes = (
"527 760 LINE",
"527 0 LINE",
"610 0 LINE",
"610 760 LINE"
);
},
{
closed = 1;
nodes = (
"610 687 LINE",
"610 760 LINE",
"50 760 LINE",
"50 687 LINE"
);
},
{
closed = 1;
nodes = (
"552 291 LINE",
"609 349 LINE",
"273 760 LINE",
"202 718 LINE"
);
}
);
width = 705;
}
);
unicode = 0037;
},
{
color = 3;
glyphname = eight;
lastChange = "2020-07-16 13:14:08 +0000";
layers = (
{
layerId = "C60226DB-E4D3-4E89-B452-CA8BAB7E3EC0";
paths = (
{
closed = 1;
nodes = (
"547 612 LINE",
"660 612 LINE",
"660 760 LINE",
"547 760 LINE"
);
},
{
closed = 1;
nodes = (
"203 149 LINE",
"90 149 LINE",
"90 0 LINE",
"203 0 LINE"
);
},
{
closed = 1;
nodes = (
"90 0 LINE",
"660 0 LINE",
"660 94 LINE",
"90 94 LINE"
);
},
{
closed = 1;
nodes = (
"186 98 LINE",
"660 612 LINE",
"572 672 LINE",
"90 149 LINE"
);
},
{
closed = 1;
nodes = (
"90 655 LINE",
"660 655 LINE",
"660 760 LINE",
"90 760 LINE"
);
},
{
closed = 1;
nodes = (
"90 362 LINE",
"660 362 LINE",
"660 467 LINE",
"90 467 LINE"
);
},
{
closed = 1;
nodes = (
"660 467 LINE",
"547 467 LINE",
"547 0 LINE",
"660 0 LINE"
);
},
{
closed = 1;
nodes = (
"203 760 LINE",
"90 760 LINE",
"90 362 LINE",
"203 362 LINE"
);
}
);
width = 750;
}
);
unicode = 0038;
},
{
color = 3;
glyphname = nine;
lastChange = "2020-07-16 13:14:08 +0000";
layers = (
{
layerId = "C60226DB-E4D3-4E89-B452-CA8BAB7E3EC0";
paths = (
{
closed = 1;
nodes = (
"537 0 LINE",
"650 0 LINE",
"650 760 LINE",
"537 760 LINE"
);
},
{
closed = 1;
nodes = (
"90 655 LINE",
"650 655 LINE",
"650 760 LINE",
"90 760 LINE"
);
},
{
closed = 1;
nodes = (
"203 760 LINE",
"90 760 LINE",
"90 388 LINE",
"203 388 LINE"
);
},
{
closed = 1;
nodes = (
"90 388 LINE",
"650 388 LINE",
"650 493 LINE",
"90 493 LINE"
);
},
{
closed = 1;
nodes = (
"428 493 LINE",
"315 493 LINE",
"315 33 LINE",
"428 193 LINE"
);
},
{
closed = 1;
nodes = (
"85 105 LINE",
"85 0 LINE",
"650 0 LINE",
"650 105 LINE"
);
},
{
closed = 1;
nodes = (
"370 2 LINE",
"621 361 LINE",
"556 452 LINE",
"280 56 LINE"
);
}
);
width = 750;
},
{
associatedMasterId = "C60226DB-E4D3-4E89-B452-CA8BAB7E3EC0";
background = {
paths = (
{
closed = 1;
nodes = (
"527 0 LINE",
"640 0 LINE",
"640 760 LINE",
"527 760 LINE"
);
},
{
closed = 1;
nodes = (
"80 655 LINE",
"640 655 LINE",
"640 760 LINE",
"80 760 LINE"
);
},
{
closed = 1;
nodes = (
"193 760 LINE",
"80 760 LINE",
"80 388 LINE",
"193 388 LINE"
);
},
{
closed = 1;
nodes = (
"80 388 LINE",
"640 388 LINE",
"640 493 LINE",
"80 493 LINE"
);
},
{
closed = 1;
nodes = (
"418 493 LINE",
"305 493 LINE",
"305 33 LINE",
"418 193 LINE"
);
},
{
closed = 1;
nodes = (
"75 105 LINE",
"75 0 LINE",
"640 0 LINE",
"640 105 LINE"
);
},
{
closed = 1;
nodes = (
"360 7 LINE",
"611 366 LINE",
"546 457 LINE",
"270 61 LINE"
);
}
);
};
layerId = "87A89C59-1D0D-4DB8-A25D-6C19AAD9298D";
name = "Jul 3 20, 16:01";
paths = (
{
closed = 1;
nodes = (
"527 0 LINE",
"610 0 LINE",
"610 760 LINE",
"527 760 LINE"
);
},
{
closed = 1;
nodes = (
"80 685 LINE",
"610 685 LINE",
"610 760 LINE",
"80 760 LINE"
);
},
{
closed = 1;
nodes = (
"163 760 LINE",
"80 760 LINE",
"80 393 LINE",
"163 393 LINE"
);
},
{
closed = 1;
nodes = (
"80 393 LINE",
"610 393 LINE",
"610 468 LINE",
"80 468 LINE"
);
},
{
closed = 1;
nodes = (
"403 468 LINE",
"320 468 LINE",
"320 33 LINE",
"403 143 LINE"
);
},
{
closed = 1;
nodes = (
"75 75 LINE",
"75 0 LINE",
"610 0 LINE",
"610 75 LINE"
);
},
{
closed = 1;
nodes = (
"322 0 LINE",
"596 392 LINE",
"550 457 LINE",
"265 50 LINE"
);
}
);
width = 750;
}
);
unicode = 0039;
},
{
color = 3;
glyphname = one.sansSerifBlackCircled;
lastChange = "2020-07-16 13:14:08 +0000";
layers = (
{
layerId = "C60226DB-E4D3-4E89-B452-CA8BAB7E3EC0";
paths = (
{
closed = 1;
nodes = (
"770 0 LINE",
"770 760 LINE",
"90 760 LINE",
"90 0 LINE"
);
},
{
closed = 1;
nodes = (
"636 199 LINE",
"636 131 LINE",
"263 131 LINE",
"263 199 LINE",
"344 199 LINE",
"344 506 LINE",
"304 560 LINE",
"217 560 LINE",
"217 629 LINE",
"554 629 LINE",
"554 199 LINE"
);
},
{
closed = 1;
nodes = (
"396 560 LINE",
"480 449 LINE",
"480 560 LINE"
);
},
{
closed = 1;
nodes = (
"480 199 LINE",
"480 326 LINE",
"419 407 LINE",
"419 199 LINE"
);
}
);
width = 860;
},
{
associatedMasterId = "C60226DB-E4D3-4E89-B452-CA8BAB7E3EC0";
layerId = "BCEF9AB5-FEB4-4F16-A9A6-1D2618CFB03E";
name = "Jul 3 20, 15:52";
paths = (
{
closed = 1;
nodes = (
"770 0 LINE",
"770 760 LINE",
"90 760 LINE",
"90 0 LINE"
);
},
{
closed = 1;
nodes = (
"627 180 LINE",
"627 131 LINE",
"273 131 LINE",
"273 180 LINE",
"358 180 LINE",
"358 507 LINE",
"303 580 LINE",
"227 580 LINE",
"227 629 LINE",
"548 629 LINE",
"548 180 LINE"
);
},
{
closed = 1;
nodes = (
"372 580 LINE",
"494 419 LINE",
"494 580 LINE"
);
},
{
closed = 1;
nodes = (
"494 180 LINE",
"494 329 LINE",
"412 436 LINE",
"412 180 LINE"
);
}
);
visible = 1;
width = 860;
}
);
unicode = 278A;
},
{
color = 3;
glyphname = two.sansSerifBlackCircled;
lastChange = "2020-07-16 13:14:08 +0000";
layers = (
{
layerId = "C60226DB-E4D3-4E89-B452-CA8BAB7E3EC0";
paths = (
{
closed = 1;
nodes = (
"770 0 LINE",
"770 760 LINE",
"90 760 LINE",
"90 0 LINE"
);
},
{
closed = 1;
nodes = (
"621 419 LINE",
"467 419 LINE",
"467 241 LINE",
"501 200 LINE",
"621 200 LINE",
"621 131 LINE",
"247 131 LINE",
"247 488 LINE",
"547 488 LINE",
"547 561 LINE",
"247 561 LINE",
"247 629 LINE",
"621 629 LINE"
);
},
{
closed = 1;
nodes = (
"393 419 LINE",
"322 419 LINE",
"393 332 LINE"
);
},
{
closed = 1;
nodes = (
"415 200 LINE",
"321 314 LINE",
"321 200 LINE"
);
}
);
width = 860;
},
{
associatedMasterId = "C60226DB-E4D3-4E89-B452-CA8BAB7E3EC0";
layerId = "516D3AC8-BF5A-48EB-98E7-95EAB1213715";
name = "Jul 3 20, 15:52";
paths = (
{
closed = 1;
nodes = (
"770 0 LINE",
"770 760 LINE",
"90 760 LINE",
"90 0 LINE"
);
},
{
closed = 1;
nodes = (
"612 429 LINE",
"448 429 LINE",
"448 250 LINE",
"505 180 LINE",
"612 180 LINE",
"612 131 LINE",
"258 131 LINE",
"258 478 LINE",
"557 478 LINE",
"557 580 LINE",
"258 580 LINE",
"258 629 LINE",
"612 629 LINE"
);
},
{
closed = 1;
nodes = (
"393 429 LINE",
"313 429 LINE",
"313 416 LINE",
"393 318 LINE"
);
},
{
closed = 1;
nodes = (
"436 180 LINE",
"313 329 LINE",
"313 180 LINE"
);
}
);
visible = 1;
width = 860;
}
);
unicode = 278B;
},
{
color = 3;
glyphname = three.sansSerifBlackCircled;
lastChange = "2020-07-16 13:14:08 +0000";
layers = (
{
layerId = "C60226DB-E4D3-4E89-B452-CA8BAB7E3EC0";
paths = (
{
closed = 1;
nodes = (
"770 0 LINE",
"770 760 LINE",
"90 760 LINE",
"90 0 LINE"
);
},
{
closed = 1;
nodes = (
"618 131 LINE",
"261 131 LINE",
"261 200 LINE",
"365 200 LINE",
"399 242 LINE",
"399 418 LINE",
"267 418 LINE",
"267 487 LINE",
"399 487 LINE",
"399 560 LINE",
"261 560 LINE",
"261 629 LINE",
"618 629 LINE"
);
},
{
closed = 1;
nodes = (
"544 560 LINE",
"472 560 LINE",
"472 487 LINE",
"544 487 LINE"
);
},
{
closed = 1;
nodes = (
"472 331 LINE",
"542 418 LINE",
"472 418 LINE"
);
},
{
closed = 1;
nodes = (
"544 200 LINE",
"544 314 LINE",
"451 200 LINE"
);
}
);
width = 860;
},
{
associatedMasterId = "C60226DB-E4D3-4E89-B452-CA8BAB7E3EC0";
layerId = "7F4B5129-32E9-448B-BE60-F49B2E8BAD8D";
name = "Jul 3 20, 15:52";
paths = (
{
closed = 1;
nodes = (
"770 0 LINE",
"770 760 LINE",
"90 760 LINE",
"90 0 LINE"
);
},
{
closed = 1;
nodes = (
"609 131 LINE",
"261 131 LINE",
"261 180 LINE",
"364 180 LINE",
"419 247 LINE",
"419 429 LINE",
"268 429 LINE",
"268 478 LINE",
"419 478 LINE",
"419 580 LINE",
"261 580 LINE",
"261 629 LINE",
"609 629 LINE"
);
},
{
closed = 1;
nodes = (
"554 580 LINE",
"473 580 LINE",
"473 478 LINE",
"554 478 LINE"
);
},
{
closed = 1;
nodes = (
"473 314 LINE",
"554 413 LINE",
"554 429 LINE",
"473 429 LINE"
);
},
{
closed = 1;
nodes = (
"554 180 LINE",
"554 335 LINE",
"428 180 LINE"
);
}
);
visible = 1;
width = 860;
}
);
unicode = 278C;
},
{
color = 3;
glyphname = four.sansSerifBlackCircled;
lastChange = "2020-07-16 13:14:08 +0000";
layers = (
{
layerId = "C60226DB-E4D3-4E89-B452-CA8BAB7E3EC0";
paths = (
{
closed = 1;
nodes = (
"770 0 LINE",
"770 760 LINE",
"90 760 LINE",
"90 0 LINE"
);
},
{
closed = 1;
nodes = (
"623 260 LINE",
"557 260 LINE",
"557 131 LINE",
"483 131 LINE",
"483 260 LINE",
"230 260 LINE",
"230 329 LINE",
"392 629 LINE",
"557 629 LINE",
"557 329 LINE",
"623 329 LINE"
);
},
{
closed = 1;
nodes = (
"483 560 LINE",
"430 560 LINE",
"402 508 LINE",
"483 508 LINE"
);
},
{
closed = 1;
nodes = (
"483 329 LINE",
"483 439 LINE",
"367 439 LINE",
"309 329 LINE"
);
}
);
width = 860;
},
{
associatedMasterId = "C60226DB-E4D3-4E89-B452-CA8BAB7E3EC0";
layerId = "944A4956-3C76-4D80-A8F1-706CA40548E1";
name = "Jul 3 20, 15:52";
paths = (
{
closed = 1;
nodes = (
"770 0 LINE",
"770 760 LINE",
"90 760 LINE",
"90 0 LINE"
);
},
{
closed = 1;
nodes = (
"613 270 LINE",
"547 270 LINE",
"547 131 LINE",
"493 131 LINE",
"493 270 LINE",
"230 270 LINE",
"230 319 LINE",
"392 629 LINE",
"547 629 LINE",
"547 319 LINE",
"613 319 LINE"
);
},
{
closed = 1;
nodes = (
"493 580 LINE",
"421 580 LINE",
"383 508 LINE",
"493 508 LINE"
);
},
{
closed = 1;
nodes = (
"493 319 LINE",
"493 459 LINE",
"357 459 LINE",
"284 319 LINE"
);
}
);
visible = 1;
width = 860;
}
);
unicode = 278D;
},
{
color = 3;
glyphname = five.sansSerifBlackCircled;
lastChange = "2020-07-16 13:14:08 +0000";
layers = (
{
layerId = "C60226DB-E4D3-4E89-B452-CA8BAB7E3EC0";
paths = (
{
closed = 1;
nodes = (
"770 0 LINE",
"770 760 LINE",
"90 760 LINE",
"90 0 LINE"
);
},
{
closed = 1;
nodes = (
"317 560 LINE",
"317 487 LINE",
"617 487 LINE",
"617 131 LINE",
"243 131 LINE",
"243 200 LINE",
"363 200 LINE",
"397 241 LINE",
"397 418 LINE",
"243 418 LINE",
"243 629 LINE",
"617 629 LINE",
"617 560 LINE"
);
},
{
closed = 1;
nodes = (
"471 418 LINE",
"471 332 LINE",
"541 418 LINE"
);
},
{
closed = 1;
nodes = (
"542 200 LINE",
"542 314 LINE",
"449 200 LINE"
);
}
);
width = 860;
},
{
associatedMasterId = "C60226DB-E4D3-4E89-B452-CA8BAB7E3EC0";
layerId = "599E75BC-97FF-4A11-9803-9D44F7272D59";
name = "Jul 3 20, 15:52";
paths = (
{
closed = 1;
nodes = (
"770 0 LINE",
"770 760 LINE",
"90 760 LINE",
"90 0 LINE"
);
},
{
closed = 1;
nodes = (
"308 580 LINE",
"308 478 LINE",
"607 478 LINE",
"607 131 LINE",
"253 131 LINE",
"253 180 LINE",
"361 180 LINE",
"417 247 LINE",
"417 429 LINE",
"253 429 LINE",
"253 629 LINE",
"607 629 LINE",
"607 580 LINE"
);
},
{
closed = 1;
nodes = (
"472 429 LINE",
"472 313 LINE",
"552 413 LINE",
"552 429 LINE"
);
},
{
closed = 1;
nodes = (
"552 180 LINE",
"552 334 LINE",
"426 180 LINE"
);
}
);
visible = 1;
width = 860;
}
);
unicode = 278E;
},
{
color = 3;
glyphname = six.sansSerifBlackCircled;
lastChange = "2020-07-16 13:14:08 +0000";
layers = (
{
layerId = "C60226DB-E4D3-4E89-B452-CA8BAB7E3EC0";
paths = (
{
closed = 1;
nodes = (
"770 0 LINE",
"770 760 LINE",
"90 760 LINE",
"90 0 LINE"
);
},
{
closed = 1;
nodes = (
"463 375 LINE",
"610 375 LINE",
"610 131 LINE",
"243 131 LINE",
"243 629 LINE",
"614 629 LINE",
"614 560 LINE",
"463 560 LINE"
);
},
{
closed = 1;
nodes = (
"317 560 LINE",
"317 470 LINE",
"380 560 LINE"
);
},
{
closed = 1;
nodes = (
"389 454 LINE",
"334 375 LINE",
"389 375 LINE"
);
},
{
closed = 1;
nodes = (
"317 306 LINE",
"317 200 LINE",
"536 200 LINE",
"536 306 LINE"
);
}
);
width = 860;
},
{
associatedMasterId = "C60226DB-E4D3-4E89-B452-CA8BAB7E3EC0";
layerId = "2F7C4282-0D75-4B7A-AECE-FF9FA4422B6F";
name = "Jul 3 20, 15:52";
paths = (
{
closed = 1;
nodes = (
"770 0 LINE",
"770 760 LINE",
"90 760 LINE",
"90 0 LINE"
);
},
{
closed = 1;
nodes = (
"443 544 LINE",
"443 371 LINE",
"601 371 LINE",
"601 131 LINE",
"253 131 LINE",
"253 629 LINE",
"604 629 LINE",
"604 580 LINE",
"467 580 LINE"
);
},
{
closed = 1;
nodes = (
"308 580 LINE",
"308 437 LINE",
"407 580 LINE"
);
},
{
closed = 1;
nodes = (
"388 468 LINE",
"322 371 LINE",
"388 371 LINE"
);
},
{
closed = 1;
nodes = (
"308 322 LINE",
"308 180 LINE",
"546 180 LINE",
"546 322 LINE"
);
}
);
visible = 1;
width = 860;
}
);
unicode = 278F;
},
{
color = 3;
glyphname = seven.sansSerifBlackCircled;
lastChange = "2020-07-16 13:14:08 +0000";
layers = (
{
layerId = "C60226DB-E4D3-4E89-B452-CA8BAB7E3EC0";
paths = (
{
closed = 1;
nodes = (
"770 0 LINE",
"770 760 LINE",
"90 760 LINE",
"90 0 LINE"
);
},
{
closed = 1;
nodes = (
"635 511 LINE",
"352 131 LINE",
"268 131 LINE",
"399 308 LINE",
"399 560 LINE",
"252 560 LINE",
"252 629 LINE",
"635 629 LINE"
);
},
{
closed = 1;
nodes = (
"560 560 LINE",
"473 560 LINE",
"473 409 LINE",
"560 526 LINE"
);
}
);
width = 860;
},
{
associatedMasterId = "C60226DB-E4D3-4E89-B452-CA8BAB7E3EC0";
layerId = "FF723943-90B2-4282-842F-C7A4F614F388";
name = "Jul 3 20, 15:52";
paths = (
{
closed = 1;
nodes = (
"770 0 LINE",
"770 760 LINE",
"90 760 LINE",
"90 0 LINE"
);
},
{
closed = 1;
nodes = (
"624 511 LINE",
"340 131 LINE",
"278 131 LINE",
"408 304 LINE",
"408 580 LINE",
"258 580 LINE",
"258 629 LINE",
"624 629 LINE"
);
},
{
closed = 1;
nodes = (
"569 580 LINE",
"462 580 LINE",
"462 378 LINE",
"569 521 LINE"
);
}
);
visible = 1;
width = 860;
}
);
unicode = 2790;
},
{
color = 3;
glyphname = eight.sansSerifBlackCircled;
lastChange = "2020-07-16 13:14:08 +0000";
layers = (
{
layerId = "C60226DB-E4D3-4E89-B452-CA8BAB7E3EC0";
paths = (
{
closed = 1;
nodes = (
"770 0 LINE",
"770 760 LINE",
"90 760 LINE",
"90 0 LINE"
);
},
{
closed = 1;
nodes = (
"617 532 LINE",
"529 437 LINE",
"617 437 LINE",
"617 131 LINE",
"243 131 LINE",
"243 228 LINE",
"373 369 LINE",
"243 369 LINE",
"243 629 LINE",
"617 629 LINE"
);
},
{
closed = 1;
nodes = (
"436 437 LINE",
"543 554 LINE",
"543 560 LINE",
"318 560 LINE",
"318 437 LINE"
);
},
{
closed = 1;
nodes = (
"467 369 LINE",
"318 208 LINE",
"318 193 LINE",
"543 193 LINE",
"543 369 LINE"
);
}
);
width = 860;
},
{
associatedMasterId = "C60226DB-E4D3-4E89-B452-CA8BAB7E3EC0";
layerId = "369E96C2-950B-40C2-BE53-34BA49E7F18A";
name = "Jul 3 20, 15:52";
paths = (
{
closed = 1;
nodes = (
"770 0 LINE",
"770 760 LINE",
"90 760 LINE",
"90 0 LINE"
);
},
{
closed = 1;
nodes = (
"607 537 LINE",
"506 427 LINE",
"607 427 LINE",
"607 131 LINE",
"253 131 LINE",
"253 224 LINE",
"395 378 LINE",
"253 378 LINE",
"253 629 LINE",
"607 629 LINE"
);
},
{
closed = 1;
nodes = (
"552 580 LINE",
"308 580 LINE",
"308 427 LINE",
"440 427 LINE",
"552 548 LINE"
);
},
{
closed = 1;
nodes = (
"461 378 LINE",
"308 212 LINE",
"308 179 LINE",
"552 179 LINE",
"552 378 LINE"
);
}
);
visible = 1;
width = 860;
}
);
unicode = 2791;
},
{
color = 3;
glyphname = nine.sansSerifBlackCircled;
lastChange = "2020-07-16 13:14:08 +0000";
layers = (
{
layerId = "C60226DB-E4D3-4E89-B452-CA8BAB7E3EC0";
paths = (
{
closed = 1;
nodes = (
"770 0 LINE",
"770 760 LINE",
"90 760 LINE",
"90 0 LINE"
);
},
{
closed = 1;
nodes = (
"617 131 LINE",
"246 131 LINE",
"246 200 LINE",
"397 200 LINE",
"397 385 LINE",
"250 385 LINE",
"250 629 LINE",
"617 629 LINE"
);
},
{
closed = 1;
nodes = (
"542 560 LINE",
"324 560 LINE",
"324 454 LINE",
"542 454 LINE"
);
},
{
closed = 1;
nodes = (
"471 306 LINE",
"526 385 LINE",
"471 385 LINE"
);
},
{
closed = 1;
nodes = (
"542 200 LINE",
"542 288 LINE",
"480 200 LINE"
);
}
);
width = 860;
},
{
associatedMasterId = "C60226DB-E4D3-4E89-B452-CA8BAB7E3EC0";
layerId = "85ED2992-7305-48AC-B4C7-F42AF0ADF0FF";
name = "Jul 3 20, 15:52";
paths = (
{
closed = 1;
nodes = (
"770 0 LINE",
"770 760 LINE",
"90 760 LINE",
"90 0 LINE"
);
},
{
closed = 1;
nodes = (
"417 216 LINE",
"417 389 LINE",
"259 389 LINE",
"259 629 LINE",
"607 629 LINE",
"607 131 LINE",
"256 131 LINE",
"256 180 LINE",
"393 180 LINE"
);
},
{
closed = 1;
nodes = (
"552 180 LINE",
"552 323 LINE",
"453 180 LINE"
);
},
{
closed = 1;
nodes = (
"472 292 LINE",
"538 389 LINE",
"472 389 LINE"
);
},
{
closed = 1;
nodes = (
"552 438 LINE",
"552 580 LINE",
"314 580 LINE",
"314 438 LINE"
);
}
);
visible = 1;
width = 860;
}
);
unicode = 2792;
},
{
color = 3;
glyphname = zero.sansSerifBlackCircled;
lastChange = "2020-07-16 13:14:08 +0000";
layers = (
{
layerId = "C60226DB-E4D3-4E89-B452-CA8BAB7E3EC0";
paths = (
{
closed = 1;
nodes = (
"770 0 LINE",
"770 760 LINE",
"90 760 LINE",
"90 0 LINE"
);
},
{
closed = 1;
nodes = (
"629 131 LINE",
"230 131 LINE",
"230 629 LINE",
"629 629 LINE"
);
},
{
closed = 1;
nodes = (
"304 200 LINE",
"324 200 LINE",
"463 561 LINE",
"304 561 LINE"
);
},
{
closed = 1;
nodes = (
"556 561 LINE",
"541 561 LINE",
"403 200 LINE",
"556 200 LINE"
);
}
);
width = 860;
},
{
associatedMasterId = "C60226DB-E4D3-4E89-B452-CA8BAB7E3EC0";
layerId = "2D13D684-7E91-485C-A979-F5D54EDD0870";
name = "Jul 3 20, 16:24";
paths = (
{
closed = 1;
nodes = (
"770 0 LINE",
"770 760 LINE",
"90 760 LINE",
"90 0 LINE"
);
},
{
closed = 1;
nodes = (
"610 131 LINE",
"250 131 LINE",
"250 629 LINE",
"610 629 LINE"
);
},
{
closed = 1;
nodes = (
"304 180 LINE",
"328 180 LINE",
"481 580 LINE",
"304 580 LINE"
);
},
{
closed = 1;
nodes = (
"556 580 LINE",
"537 580 LINE",
"384 180 LINE",
"556 180 LINE"
);
}
);
width = 860;
}
);
unicode = 1F10C;
},
{
color = 3;
glyphname = twosuperior;
lastChange = "2020-07-22 13:46:29 +0000";
layers = (
{
layerId = "C60226DB-E4D3-4E89-B452-CA8BAB7E3EC0";
paths = (
{
closed = 1;
nodes = (
"95 657 LINE",
"95 393 LINE",
"154 393 LINE",
"154 657 LINE"
);
},
{
closed = 1;
nodes = (
"96 760 LINE",
"96 704 LINE",
"377 704 LINE",
"377 760 LINE"
);
},
{
closed = 1;
nodes = (
"377 601 LINE",
"377 760 LINE",
"318 760 LINE",
"318 601 LINE"
);
},
{
closed = 1;
nodes = (
"95 657 LINE",
"95 601 LINE",
"377 601 LINE",
"377 657 LINE"
);
},
{
closed = 1;
nodes = (
"263 463 LINE",
"263 657 LINE",
"204 657 LINE",
"204 463 LINE"
);
},
{
closed = 1;
nodes = (
"95 393 LINE",
"365 393 LINE",
"365 449 LINE",
"95 449 LINE"
);
},
{
closed = 1;
nodes = (
"147 612 LINE",
"98 584 LINE",
"255 393 LINE",
"305 419 LINE"
);
}
);
width = 462;
}
);
leftMetricsKey = two;
rightMetricsKey = two;
unicode = 00B2;
},
{
color = 3;
glyphname = fraction;
lastChange = "2020-07-16 13:14:08 +0000";
layers = (
{
layerId = "C60226DB-E4D3-4E89-B452-CA8BAB7E3EC0";
paths = (
{
closed = 1;
nodes = (
"141 -117 LINE",
"455 860 LINE",
"342 860 LINE",
"28 -117 LINE"
);
}
);
width = 483;
}
);
unicode = 2044;
},
{
color = 3;
glyphname = period;
lastChange = "2020-07-16 13:14:08 +0000";
layers = (
{
layerId = "C60226DB-E4D3-4E89-B452-CA8BAB7E3EC0";
paths = (
{
closed = 1;
nodes = (
"238 138 LINE",
"100 138 LINE",
"100 0 LINE",
"238 0 LINE"
);
}
);
width = 338;
}
);
unicode = 002E;
},
{
color = 3;
glyphname = comma;
lastChange = "2020-07-16 13:14:08 +0000";
layers = (
{
layerId = "C60226DB-E4D3-4E89-B452-CA8BAB7E3EC0";
paths = (
{
closed = 1;
nodes = (
"213 108 LINE",
"100 108 LINE",
"100 -152 LINE",
"213 -152 LINE"
);
}
);
width = 313;
}
);
unicode = 002C;
},
{
color = 3;
glyphname = colon;
lastChange = "2020-07-16 13:14:08 +0000";
layers = (
{
layerId = "C60226DB-E4D3-4E89-B452-CA8BAB7E3EC0";
paths = (
{
closed = 1;
nodes = (
"238 138 LINE",
"100 138 LINE",
"100 0 LINE",
"238 0 LINE"
);
},
{
closed = 1;
nodes = (
"238 505 LINE",
"100 505 LINE",
"100 367 LINE",
"238 367 LINE"
);
}
);
width = 338;
}
);
unicode = 003A;
},
{
color = 3;
glyphname = semicolon;
lastChange = "2020-07-16 13:14:08 +0000";
layers = (
{
background = {
paths = (
{
closed = 1;
nodes = (
"213 108 LINE",
"100 108 LINE",
"100 -162 LINE",
"213 -162 LINE"
);
}
);
};
layerId = "C60226DB-E4D3-4E89-B452-CA8BAB7E3EC0";
paths = (
{
closed = 1;
nodes = (
"226 108 LINE",
"113 108 LINE",
"113 -152 LINE",
"226 -152 LINE"
);
},
{
closed = 1;
nodes = (
"238 505 LINE",
"100 505 LINE",
"100 367 LINE",
"238 367 LINE"
);
}
);
width = 308;
}
);
unicode = 003B;
},
{
color = 3;
glyphname = exclam;
lastChange = "2020-07-16 13:14:08 +0000";
layers = (
{
layerId = "C60226DB-E4D3-4E89-B452-CA8BAB7E3EC0";
paths = (
{
closed = 1;
nodes = (
"239 139 LINE",
"100 139 LINE",
"100 0 LINE",
"239 0 LINE"
);
},
{
closed = 1;
nodes = (
"226 760 LINE",
"113 760 LINE",
"113 235 LINE",
"226 235 LINE"
);
}
);
width = 339;
}
);
unicode = 0021;
},
{
color = 3;
glyphname = exclamdown;
lastChange = "2020-07-16 13:14:08 +0000";
layers = (
{
layerId = "C60226DB-E4D3-4E89-B452-CA8BAB7E3EC0";
paths = (
{
closed = 1;
nodes = (
"100 760 LINE",
"100 621 LINE",
"239 621 LINE",
"239 760 LINE"
);
},
{
closed = 1;
nodes = (
"113 525 LINE",
"113 0 LINE",
"226 0 LINE",
"226 525 LINE"
);
}
);
width = 339;
}
);
unicode = 00A1;
},
{
color = 3;
glyphname = question;
lastChange = "2020-07-16 13:14:08 +0000";
layers = (
{
layerId = "C60226DB-E4D3-4E89-B452-CA8BAB7E3EC0";
paths = (
{
closed = 1;
nodes = (
"80 760 LINE",
"80 655 LINE",
"660 655 LINE",
"660 760 LINE"
);
},
{
closed = 1;
nodes = (
"660 439 LINE",
"660 760 LINE",
"547 760 LINE",
"547 439 LINE"
);
},
{
closed = 1;
nodes = (
"199 544 LINE",
"199 439 LINE",
"660 439 LINE",
"660 544 LINE"
);
},
{
closed = 1;
nodes = (
"453 439 LINE",
"453 760 LINE",
"340 760 LINE",
"340 439 LINE"
);
},
{
closed = 1;
nodes = (
"312 205 LINE",
"312 544 LINE",
"199 544 LINE",
"199 205 LINE"
);
},
{
closed = 1;
nodes = (
"325 139 LINE",
"186 139 LINE",
"186 0 LINE",
"325 0 LINE"
);
}
);
width = 715;
}
);
unicode = 003F;
},
{
color = 3;
glyphname = questiondown;
lastChange = "2020-07-16 13:14:08 +0000";
layers = (
{
layerId = "C60226DB-E4D3-4E89-B452-CA8BAB7E3EC0";
paths = (
{
closed = 1;
nodes = (
"635 0 LINE",
"635 105 LINE",
"55 105 LINE",
"55 0 LINE"
);
},
{
closed = 1;
nodes = (
"55 321 LINE",
"55 0 LINE",
"168 0 LINE",
"168 321 LINE"
);
},
{
closed = 1;
nodes = (
"516 216 LINE",
"516 321 LINE",
"55 321 LINE",
"55 216 LINE"
);
},
{
closed = 1;
nodes = (
"262 321 LINE",
"262 0 LINE",
"375 0 LINE",
"375 321 LINE"
);
},
{
closed = 1;
nodes = (
"403 555 LINE",
"403 216 LINE",
"516 216 LINE",
"516 555 LINE"
);
},
{
closed = 1;
nodes = (
"390 621 LINE",
"529 621 LINE",
"529 760 LINE",
"390 760 LINE"
);
}
);
width = 715;
}
);
unicode = 00BF;
},
{
color = 3;
glyphname = periodcentered;
lastChange = "2020-07-16 13:14:08 +0000";
layers = (
{
background = {
paths = (
{
closed = 1;
nodes = (
"239 422 LINE",
"101 422 LINE",
"101 284 LINE",
"239 284 LINE"
);
}
);
};
layerId = "C60226DB-E4D3-4E89-B452-CA8BAB7E3EC0";
paths = (
{
closed = 1;
nodes = (
"238 423 LINE",
"100 423 LINE",
"100 285 LINE",
"238 285 LINE"
);
}
);
width = 338;
}
);
unicode = 00B7;
},
{
color = 3;
glyphname = bullet;
lastChange = "2020-07-16 13:14:08 +0000";
layers = (
{
layerId = "C60226DB-E4D3-4E89-B452-CA8BAB7E3EC0";
paths = (
{
closed = 1;
nodes = (
"422 515 LINE",
"100 515 LINE",
"100 193 LINE",
"422 193 LINE"
);
}
);
width = 522;
}
);
unicode = 2022;
},
{
color = 3;
glyphname = asterisk;
lastChange = "2020-07-16 13:14:08 +0000";
layers = (
{
layerId = "C60226DB-E4D3-4E89-B452-CA8BAB7E3EC0";
paths = (
{
closed = 1;
nodes = (
"50 524 LINE",
"441 524 LINE",
"441 629 LINE",
"50 629 LINE"
);
},
{
closed = 1;
nodes = (
"194 774 LINE",
"100 720 LINE",
"297 379 LINE",
"392 433 LINE"
);
},
{
closed = 1;
nodes = (
"195 379 LINE",
"392 720 LINE",
"298 774 LINE",
"100 433 LINE"
);
}
);
width = 491;
}
);
unicode = 002A;
},
{
color = 3;
glyphname = numbersign;
lastChange = "2020-07-16 13:14:08 +0000";
layers = (
{
layerId = "C60226DB-E4D3-4E89-B452-CA8BAB7E3EC0";
paths = (
{
closed = 1;
nodes = (
"220 0 LINE",
"464 760 LINE",
"355 760 LINE",
"111 0 LINE"
);
},
{
closed = 1;
nodes = (
"475 0 LINE",
"719 760 LINE",
"610 760 LINE",
"366 0 LINE"
);
},
{
closed = 1;
nodes = (
"156 545 LINE",
"122 440 LINE",
"758 440 LINE",
"793 545 LINE"
);
},
{
closed = 1;
nodes = (
"84 320 LINE",
"50 215 LINE",
"683 215 LINE",
"718 320 LINE"
);
}
);
width = 843;
}
);
unicode = 0023;
},
{
color = 3;
glyphname = slash;
lastChange = "2020-07-16 13:14:08 +0000";
layers = (
{
layerId = "C60226DB-E4D3-4E89-B452-CA8BAB7E3EC0";
paths = (
{
closed = 1;
nodes = (
"141 -117 LINE",
"455 860 LINE",
"342 860 LINE",
"28 -117 LINE"
);
}
);
width = 483;
}
);
unicode = 002F;
},
{
color = 3;
glyphname = backslash;
lastChange = "2020-07-16 13:14:08 +0000";
layers = (
{
layerId = "C60226DB-E4D3-4E89-B452-CA8BAB7E3EC0";
paths = (
{
closed = 1;
nodes = (
"147 860 LINE",
"28 860 LINE",
"342 -117 LINE",
"461 -117 LINE"
);
}
);
width = 489;
}
);
unicode = 005C;
},
{
color = 3;
glyphname = parenleft;
lastChange = "2020-07-16 13:14:08 +0000";
layers = (
{
background = {
guideLines = (
{
angle = 180;
position = "{87, 328}";
}
);
paths = (
{
closed = 1;
nodes = (
"223 884 LINE",
"77 383 LINE",
"221 -118 LINE",
"307 -118 LINE",
"162 386 LINE",
"306 884 LINE"
);
}
);
};
guideLines = (
{
angle = 180;
position = "{110, 383}";
}
);
layerId = "C60226DB-E4D3-4E89-B452-CA8BAB7E3EC0";
paths = (
{
closed = 1;
nodes = (
"206 884 LINE",
"60 383 LINE",
"204 -118 LINE",
"324 -118 LINE",
"179 386 LINE",
"323 884 LINE"
);
}
);
width = 364;
}
);
unicode = 0028;
},
{
color = 3;
glyphname = parenright;
lastChange = "2020-07-16 13:14:08 +0000";
layers = (
{
layerId = "C60226DB-E4D3-4E89-B452-CA8BAB7E3EC0";
paths = (
{
closed = 1;
nodes = (
"185 386 LINE",
"40 -118 LINE",
"160 -118 LINE",
"304 383 LINE",
"158 884 LINE",
"41 884 LINE"
);
}
);
width = 364;
}
);
unicode = 0029;
},
{
color = 3;
glyphname = braceleft;
lastChange = "2020-07-16 13:14:08 +0000";
layers = (
{
layerId = "C60226DB-E4D3-4E89-B452-CA8BAB7E3EC0";
paths = (
{
closed = 1;
nodes = (
"150 -118 LINE",
"403 -118 LINE",
"403 -13 LINE",
"263 -13 LINE",
"263 779 LINE",
"403 779 LINE",
"403 884 LINE",
"150 884 LINE"
);
},
{
closed = 1;
nodes = (
"263 436 LINE",
"30 436 LINE",
"30 331 LINE",
"263 331 LINE"
);
}
);
width = 448;
}
);
unicode = 007B;
},
{
color = 3;
glyphname = braceright;
lastChange = "2020-07-16 13:14:08 +0000";
layers = (
{
layerId = "C60226DB-E4D3-4E89-B452-CA8BAB7E3EC0";
paths = (
{
closed = 1;
nodes = (
"45 884 LINE",
"45 779 LINE",
"185 779 LINE",
"185 -13 LINE",
"45 -13 LINE",
"45 -118 LINE",
"298 -118 LINE",
"298 884 LINE"
);
},
{
closed = 1;
nodes = (
"418 331 LINE",
"418 436 LINE",
"185 436 LINE",
"185 331 LINE"
);
}
);
width = 448;
}
);
unicode = 007D;
},
{
color = 3;
glyphname = bracketleft;
lastChange = "2020-07-16 13:14:08 +0000";
layers = (
{
layerId = "C60226DB-E4D3-4E89-B452-CA8BAB7E3EC0";
paths = (
{
closed = 1;
nodes = (
"100 -118 LINE",
"353 -118 LINE",
"353 -13 LINE",
"213 -13 LINE",
"213 779 LINE",
"353 779 LINE",
"353 884 LINE",
"100 884 LINE"
);
}
);
width = 398;
}
);
unicode = 005B;
},
{
color = 3;
glyphname = bracketright;
lastChange = "2020-07-16 13:14:08 +0000";
layers = (
{
layerId = "C60226DB-E4D3-4E89-B452-CA8BAB7E3EC0";
paths = (
{
closed = 1;
nodes = (
"45 884 LINE",
"45 779 LINE",
"185 779 LINE",
"185 -13 LINE",
"45 -13 LINE",
"45 -118 LINE",
"298 -118 LINE",
"298 884 LINE"
);
}
);
width = 398;
}
);
unicode = 005D;
},
{
color = 3;
glyphname = hyphen;
lastChange = "2020-07-16 13:14:08 +0000";
layers = (
{
layerId = "C60226DB-E4D3-4E89-B452-CA8BAB7E3EC0";
paths = (
{
closed = 1;
nodes = (
"467 253 LINE",
"467 362 LINE",
"115 362 LINE",
"115 253 LINE"
);
}
);
width = 582;
}
);
unicode = 002D;
},
{
color = 3;
glyphname = endash;
lastChange = "2020-07-16 13:14:08 +0000";
layers = (
{
layerId = "C60226DB-E4D3-4E89-B452-CA8BAB7E3EC0";
paths = (
{
closed = 1;
nodes = (
"667 253 LINE",
"667 362 LINE",
"115 362 LINE",
"115 253 LINE"
);
}
);
width = 782;
}
);
unicode = 2013;
},
{
color = 3;
glyphname = emdash;
lastChange = "2020-07-16 13:14:08 +0000";
layers = (
{
layerId = "C60226DB-E4D3-4E89-B452-CA8BAB7E3EC0";
paths = (
{
closed = 1;
nodes = (
"867 253 LINE",
"867 362 LINE",
"115 362 LINE",
"115 253 LINE"
);
}
);
width = 982;
}
);
unicode = 2014;
},
{
color = 3;
glyphname = underscore;
lastChange = "2020-07-16 13:14:08 +0000";
layers = (
{
layerId = "C60226DB-E4D3-4E89-B452-CA8BAB7E3EC0";
paths = (
{
closed = 1;
nodes = (
"667 -109 LINE",
"667 0 LINE",
"115 0 LINE",
"115 -109 LINE"
);
}
);
width = 782;
}
);
unicode = 005F;
},
{
color = 3;
glyphname = quotesinglbase;
lastChange = "2020-07-22 13:29:01 +0000";
layers = (
{
layerId = "C60226DB-E4D3-4E89-B452-CA8BAB7E3EC0";
paths = (
{
closed = 1;
nodes = (
"198 108 LINE",
"85 108 LINE",
"85 -152 LINE",
"198 -152 LINE"
);
}
);
width = 283;
}
);
unicode = 201A;
},
{
color = 3;
glyphname = quotedblbase;
lastChange = "2020-07-16 13:14:08 +0000";
layers = (
{
layerId = "C60226DB-E4D3-4E89-B452-CA8BAB7E3EC0";
paths = (
{
closed = 1;
nodes = (
"198 108 LINE",
"85 108 LINE",
"85 -152 LINE",
"198 -152 LINE"
);
},
{
closed = 1;
nodes = (
"391 108 LINE",
"278 108 LINE",
"278 -152 LINE",
"391 -152 LINE"
);
}
);
width = 476;
}
);
unicode = 201E;
},
{
color = 3;
glyphname = quotedblleft;
lastChange = "2020-07-16 13:14:08 +0000";
layers = (
{
layerId = "C60226DB-E4D3-4E89-B452-CA8BAB7E3EC0";
paths = (
{
closed = 1;
nodes = (
"198 760 LINE",
"85 760 LINE",
"85 500 LINE",
"198 500 LINE"
);
},
{
closed = 1;
nodes = (
"391 760 LINE",
"278 760 LINE",
"278 500 LINE",
"391 500 LINE"
);
}
);
width = 476;
}
);
unicode = 201C;
},
{
color = 3;
glyphname = quotedblright;
lastChange = "2020-07-16 13:14:08 +0000";
layers = (
{
layerId = "C60226DB-E4D3-4E89-B452-CA8BAB7E3EC0";
paths = (
{
closed = 1;
nodes = (
"198 760 LINE",
"85 760 LINE",
"85 500 LINE",
"198 500 LINE"
);
},
{
closed = 1;
nodes = (
"391 760 LINE",
"278 760 LINE",
"278 500 LINE",
"391 500 LINE"
);
}
);
width = 476;
}
);
unicode = 201D;
},
{
color = 3;
glyphname = quoteleft;
lastChange = "2020-07-16 13:14:08 +0000";
layers = (
{
layerId = "C60226DB-E4D3-4E89-B452-CA8BAB7E3EC0";
paths = (
{
closed = 1;
nodes = (
"198 760 LINE",
"85 760 LINE",
"85 500 LINE",
"198 500 LINE"
);
}
);
width = 283;
}
);
unicode = 2018;
},
{
color = 3;
glyphname = quoteright;
lastChange = "2020-07-16 13:14:08 +0000";
layers = (
{
layerId = "C60226DB-E4D3-4E89-B452-CA8BAB7E3EC0";
paths = (
{
closed = 1;
nodes = (
"198 760 LINE",
"85 760 LINE",
"85 500 LINE",
"198 500 LINE"
);
}
);
width = 283;
}
);
unicode = 2019;
},
{
color = 3;
glyphname = guillemetleft;
lastChange = "2020-07-16 13:14:08 +0000";
layers = (
{
layerId = "C60226DB-E4D3-4E89-B452-CA8BAB7E3EC0";
paths = (
{
closed = 1;
nodes = (
"317 91 LINE",
"203 291 LINE",
"313 480 LINE",
"192 480 LINE",
"80 287 LINE",
"192 91 LINE"
);
},
{
closed = 1;
nodes = (
"546 91 LINE",
"432 291 LINE",
"542 480 LINE",
"421 480 LINE",
"309 287 LINE",
"421 91 LINE"
);
}
);
width = 636;
}
);
unicode = 00AB;
},
{
color = 3;
glyphname = guillemetright;
lastChange = "2020-07-16 13:14:08 +0000";
layers = (
{
layerId = "C60226DB-E4D3-4E89-B452-CA8BAB7E3EC0";
paths = (
{
closed = 1;
nodes = (
"319 480 LINE",
"433 280 LINE",
"323 91 LINE",
"444 91 LINE",
"556 284 LINE",
"444 480 LINE"
);
},
{
closed = 1;
nodes = (
"90 480 LINE",
"204 280 LINE",
"94 91 LINE",
"215 91 LINE",
"327 284 LINE",
"215 480 LINE"
);
}
);
width = 636;
}
);
unicode = 00BB;
},
{
color = 3;
glyphname = guilsinglleft;
lastChange = "2020-07-16 13:14:08 +0000";
layers = (
{
layerId = "C60226DB-E4D3-4E89-B452-CA8BAB7E3EC0";
paths = (
{
closed = 1;
nodes = (
"317 91 LINE",
"203 291 LINE",
"313 480 LINE",
"192 480 LINE",
"80 287 LINE",
"192 91 LINE"
);
}
);
width = 407;
}
);
unicode = 2039;
},
{
color = 3;
glyphname = guilsinglright;
lastChange = "2020-07-16 13:14:08 +0000";
layers = (
{
layerId = "C60226DB-E4D3-4E89-B452-CA8BAB7E3EC0";
paths = (
{
closed = 1;
nodes = (
"90 480 LINE",
"204 280 LINE",
"94 91 LINE",
"215 91 LINE",
"327 284 LINE",
"215 480 LINE"
);
}
);
width = 407;
}
);
unicode = 203A;
},
{
color = 3;
glyphname = quotedbl;
lastChange = "2020-07-16 13:14:08 +0000";
layers = (
{
layerId = "C60226DB-E4D3-4E89-B452-CA8BAB7E3EC0";
paths = (
{
closed = 1;
nodes = (
"198 760 LINE",
"85 760 LINE",
"85 500 LINE",
"198 500 LINE"
);
},
{
closed = 1;
nodes = (
"391 760 LINE",
"278 760 LINE",
"278 500 LINE",
"391 500 LINE"
);
}
);
width = 476;
}
);
unicode = 0022;
},
{
color = 3;
glyphname = quotesingle;
lastChange = "2020-07-16 13:14:08 +0000";
layers = (
{
layerId = "C60226DB-E4D3-4E89-B452-CA8BAB7E3EC0";
paths = (
{
closed = 1;
nodes = (
"198 760 LINE",
"85 760 LINE",
"85 500 LINE",
"198 500 LINE"
);
}
);
width = 283;
}
);
unicode = 0027;
},
{
color = 3;
glyphname = .notdef;
lastChange = "2020-07-16 13:14:08 +0000";
layers = (
{
layerId = "C60226DB-E4D3-4E89-B452-CA8BAB7E3EC0";
paths = (
{
closed = 1;
nodes = (
"90 760 LINE",
"90 0 LINE",
"706 0 LINE",
"706 760 LINE"
);
}
);
width = 796;
}
);
},
{
color = 3;
glyphname = cent;
lastChange = "2020-07-16 13:14:08 +0000";
layers = (
{
background = {
paths = (
{
closed = 1;
nodes = (
"5 657 LINE",
"-85 590 LINE",
"398 -53 LINE",
"488 14 LINE"
);
}
);
};
layerId = "C60226DB-E4D3-4E89-B452-CA8BAB7E3EC0";
paths = (
{
closed = 1;
nodes = (
"95 499 LINE",
"583 499 LINE",
"583 604 LINE",
"95 604 LINE"
);
},
{
closed = 1;
nodes = (
"208 604 LINE",
"95 604 LINE",
"95 0 LINE",
"208 0 LINE"
);
},
{
closed = 1;
nodes = (
"95 0 LINE",
"583 0 LINE",
"583 105 LINE",
"95 105 LINE"
);
},
{
closed = 1;
nodes = (
"188 412 LINE",
"137 295 LINE",
"353 7 LINE",
"449 67 LINE"
);
},
{
closed = 1;
nodes = (
"415 704 LINE",
"302 704 LINE",
"302 -100 LINE",
"415 -100 LINE"
);
}
);
width = 750;
},
{
associatedMasterId = "C60226DB-E4D3-4E89-B452-CA8BAB7E3EC0";
layerId = "B63E40DD-85F7-4CE0-9192-C0520ADD9AAE";
name = "Jul 3 20, 14:38";
paths = (
{
closed = 1;
nodes = (
"110 529 LINE",
"583 529 LINE",
"583 604 LINE",
"110 604 LINE"
);
},
{
closed = 1;
nodes = (
"193 604 LINE",
"110 604 LINE",
"110 0 LINE",
"193 0 LINE"
);
},
{
closed = 1;
nodes = (
"110 0 LINE",
"583 0 LINE",
"583 75 LINE",
"110 75 LINE"
);
},
{
closed = 1;
nodes = (
"181 374 LINE",
"137 295 LINE",
"353 7 LINE",
"419 58 LINE"
);
},
{
closed = 1;
nodes = (
"400 704 LINE",
"317 704 LINE",
"317 -100 LINE",
"400 -100 LINE"
);
}
);
width = 750;
}
);
unicode = 00A2;
},
{
color = 3;
glyphname = currency;
lastChange = "2020-07-16 13:14:08 +0000";
layers = (
{
layerId = "C60226DB-E4D3-4E89-B452-CA8BAB7E3EC0";
paths = (
{
closed = 1;
nodes = (
"433 243 LINE",
"592 83 LINE",
"667 160 LINE",
"507 321 LINE"
);
},
{
closed = 1;
nodes = (
"237 311 LINE",
"86 158 LINE",
"161 83 LINE",
"312 233 LINE"
);
},
{
closed = 1;
nodes = (
"307 521 LINE",
"159 666 LINE",
"84 590 LINE",
"230 445 LINE"
);
},
{
closed = 1;
nodes = (
"511 433 LINE",
"667 590 LINE",
"591 666 LINE",
"435 509 LINE"
);
},
{
closed = 1;
nodes = (
"190 561 LINE",
"190 189 LINE",
"562 189 LINE",
"562 561 LINE"
);
},
{
closed = 1;
nodes = (
"303 294 LINE",
"303 456 LINE",
"449 456 LINE",
"449 294 LINE"
);
}
);
width = 750;
},
{
associatedMasterId = "C60226DB-E4D3-4E89-B452-CA8BAB7E3EC0";
layerId = "4C4E7189-D65D-4FDA-ABA4-829AEEC213F6";
name = "Jul 3 20, 14:38";
paths = (
{
closed = 1;
nodes = (
"415 252 LINE",
"554 112 LINE",
"612 171 LINE",
"472 312 LINE"
);
},
{
closed = 1;
nodes = (
"222 300 LINE",
"90 168 LINE",
"143 115 LINE",
"274 246 LINE"
);
},
{
closed = 1;
nodes = (
"272 512 LINE",
"145 638 LINE",
"87 579 LINE",
"213 454 LINE"
);
},
{
closed = 1;
nodes = (
"472 446 LINE",
"609 582 LINE",
"556 635 LINE",
"419 499 LINE"
);
},
{
closed = 1;
nodes = (
"179 546 LINE",
"179 204 LINE",
"521 204 LINE",
"521 546 LINE"
);
},
{
closed = 1;
nodes = (
"262 279 LINE",
"262 471 LINE",
"438 471 LINE",
"438 279 LINE"
);
}
);
width = 750;
}
);
unicode = 00A4;
},
{
color = 3;
glyphname = dollar;
lastChange = "2020-07-16 13:14:08 +0000";
layers = (
{
background = {
paths = (
{
closed = 1;
nodes = (
"557 0 LINE",
"640 0 LINE",
"640 529 LINE",
"557 529 LINE"
);
},
{
closed = 1;
nodes = (
"100 685 LINE",
"640 685 LINE",
"640 760 LINE",
"100 760 LINE"
);
},
{
closed = 1;
nodes = (
"183 760 LINE",
"100 760 LINE",
"100 454 LINE",
"183 454 LINE"
);
},
{
closed = 1;
nodes = (
"100 454 LINE",
"640 454 LINE",
"640 529 LINE",
"100 529 LINE"
);
},
{
closed = 1;
nodes = (
"100 0 LINE",
"640 0 LINE",
"640 75 LINE",
"100 75 LINE"
);
},
{
closed = 1;
nodes = (
"329 75 LINE",
"329 -100 LINE",
"412 -100 LINE",
"412 75 LINE"
);
},
{
closed = 1;
nodes = (
"412 454 LINE",
"412 860 LINE",
"329 860 LINE",
"329 454 LINE"
);
},
{
closed = 1;
nodes = (
"303 0 LINE",
"626 395 LINE",
"580 458 LINE",
"246 50 LINE"
);
}
);
};
layerId = "C60226DB-E4D3-4E89-B452-CA8BAB7E3EC0";
paths = (
{
closed = 1;
nodes = (
"542 0 LINE",
"655 0 LINE",
"655 545 LINE",
"542 545 LINE"
);
},
{
closed = 1;
nodes = (
"85 655 LINE",
"655 655 LINE",
"655 760 LINE",
"85 760 LINE"
);
},
{
closed = 1;
nodes = (
"198 760 LINE",
"85 760 LINE",
"85 439 LINE",
"198 439 LINE"
);
},
{
closed = 1;
nodes = (
"85 439 LINE",
"655 439 LINE",
"655 544 LINE",
"85 544 LINE"
);
},
{
closed = 1;
nodes = (
"100 0 LINE",
"655 0 LINE",
"655 105 LINE",
"100 105 LINE"
);
},
{
closed = 1;
nodes = (
"307 105 LINE",
"307 -100 LINE",
"412 -100 LINE",
"412 105 LINE"
);
},
{
closed = 1;
nodes = (
"420 439 LINE",
"420 860 LINE",
"307 860 LINE",
"307 439 LINE"
);
},
{
closed = 1;
nodes = (
"334 19 LINE",
"641 395 LINE",
"561 458 LINE",
"227 50 LINE"
);
}
);
width = 750;
},
{
associatedMasterId = "C60226DB-E4D3-4E89-B452-CA8BAB7E3EC0";
background = {
paths = (
{
closed = 1;
nodes = (
"547 0 LINE",
"660 0 LINE",
"660 544 LINE",
"547 544 LINE"
);
},
{
closed = 1;
nodes = (
"65 655 LINE",
"660 655 LINE",
"660 760 LINE",
"65 760 LINE"
);
},
{
closed = 1;
nodes = (
"178 760 LINE",
"65 760 LINE",
"65 439 LINE",
"178 439 LINE"
);
},
{
closed = 1;
nodes = (
"65 439 LINE",
"660 439 LINE",
"660 544 LINE",
"65 544 LINE"
);
},
{
closed = 1;
nodes = (
"65 0 LINE",
"660 0 LINE",
"660 105 LINE",
"65 105 LINE"
);
},
{
closed = 1;
nodes = (
"339 19 LINE",
"646 395 LINE",
"566 458 LINE",
"232 50 LINE"
);
},
{
closed = 1;
nodes = (
"400 760 LINE",
"287 760 LINE",
"287 439 LINE",
"400 439 LINE"
);
}
);
};
layerId = "C0B7B037-F00E-4ED7-8161-E45F2441A695";
name = "Jul 3 20, 14:38";
paths = (
{
closed = 1;
nodes = (
"522 0 LINE",
"635 0 LINE",
"635 545 LINE",
"522 545 LINE"
);
},
{
closed = 1;
nodes = (
"65 655 LINE",
"635 655 LINE",
"635 760 LINE",
"65 760 LINE"
);
},
{
closed = 1;
nodes = (
"178 760 LINE",
"65 760 LINE",
"65 439 LINE",
"178 439 LINE"
);
},
{
closed = 1;
nodes = (
"65 439 LINE",
"635 439 LINE",
"635 544 LINE",
"65 544 LINE"
);
},
{
closed = 1;
nodes = (
"80 0 LINE",
"635 0 LINE",
"635 75 LINE",
"80 75 LINE"
);
},
{
closed = 1;
nodes = (
"309 75 LINE",
"309 -100 LINE",
"392 -100 LINE",
"392 75 LINE"
);
},
{
closed = 1;
nodes = (
"400 439 LINE",
"400 860 LINE",
"287 860 LINE",
"287 439 LINE"
);
},
{
closed = 1;
nodes = (
"314 19 LINE",
"621 395 LINE",
"541 458 LINE",
"207 50 LINE"
);
}
);
width = 750;
}
);
unicode = 0024;
},
{
color = 3;
glyphname = euro;
lastChange = "2020-07-16 13:14:08 +0000";
layers = (
{
background = {
components = (
{
name = E;
transform = "{1, 0, 0, 1, 59, 0}";
}
);
};
layerId = "C60226DB-E4D3-4E89-B452-CA8BAB7E3EC0";
paths = (
{
closed = 1;
nodes = (
"155 655 LINE",
"660 655 LINE",
"660 760 LINE",
"155 760 LINE"
);
},
{
closed = 1;
nodes = (
"268 760 LINE",
"155 760 LINE",
"155 0 LINE",
"268 0 LINE"
);
},
{
closed = 1;
nodes = (
"155 0 LINE",
"670 0 LINE",
"670 105 LINE",
"155 105 LINE"
);
},
{
closed = 1;
nodes = (
"253 344 LINE",
"60 344 LINE",
"60 239 LINE",
"253 239 LINE"
);
},
{
closed = 1;
nodes = (
"317 239 LINE",
"582 239 LINE",
"582 344 LINE",
"317 344 LINE"
);
},
{
closed = 1;
nodes = (
"238 497 LINE",
"175 397 LINE",
"468 9 LINE",
"568 60 LINE"
);
},
{
closed = 1;
nodes = (
"60 544 LINE",
"60 439 LINE",
"582 439 LINE",
"582 544 LINE"
);
}
);
width = 750;
},
{
associatedMasterId = "C60226DB-E4D3-4E89-B452-CA8BAB7E3EC0";
layerId = "6B217A6C-149B-4A8B-BDA3-1F5E741DF2BF";
name = "May 14 20, 15:02";
paths = (
{
closed = 1;
nodes = (
"190 685 LINE",
"720 685 LINE",
"720 760 LINE",
"190 760 LINE"
);
},
{
closed = 1;
nodes = (
"273 760 LINE",
"190 760 LINE",
"190 0 LINE",
"273 0 LINE"
);
},
{
closed = 1;
nodes = (
"190 0 LINE",
"720 0 LINE",
"720 75 LINE",
"190 75 LINE"
);
},
{
closed = 1;
nodes = (
"480 760 LINE",
"397 760 LINE",
"397 170 LINE",
"480 170 LINE"
);
},
{
closed = 1;
nodes = (
"241 497 LINE",
"212 397 LINE",
"505 9 LINE",
"571 60 LINE"
);
},
{
closed = 1;
nodes = (
"397 454 LINE",
"640 454 LINE",
"640 529 LINE",
"397 529 LINE"
);
},
{
closed = 1;
nodes = (
"273 329 LINE",
"70 329 LINE",
"70 254 LINE",
"273 254 LINE"
);
},
{
closed = 1;
nodes = (
"273 529 LINE",
"70 529 LINE",
"70 454 LINE",
"273 454 LINE"
);
},
{
closed = 1;
nodes = (
"397 254 LINE",
"640 254 LINE",
"640 329 LINE",
"397 329 LINE"
);
}
);
width = 800;
},
{
associatedMasterId = "C60226DB-E4D3-4E89-B452-CA8BAB7E3EC0";
layerId = "4F31D2AC-2548-4634-8E9C-1A99C501D949";
name = "Jul 2 20, 10:55";
paths = (
{
closed = 1;
nodes = (
"140 685 LINE",
"640 685 LINE",
"640 760 LINE",
"140 760 LINE"
);
},
{
closed = 1;
nodes = (
"223 760 LINE",
"140 760 LINE",
"140 0 LINE",
"223 0 LINE"
);
},
{
closed = 1;
nodes = (
"140 0 LINE",
"640 0 LINE",
"640 75 LINE",
"140 75 LINE"
);
},
{
closed = 1;
nodes = (
"317 454 LINE",
"580 454 LINE",
"580 529 LINE",
"317 529 LINE"
);
},
{
closed = 1;
nodes = (
"223 329 LINE",
"50 329 LINE",
"50 254 LINE",
"223 254 LINE"
);
},
{
closed = 1;
nodes = (
"223 529 LINE",
"50 529 LINE",
"50 454 LINE",
"223 454 LINE"
);
},
{
closed = 1;
nodes = (
"287 254 LINE",
"580 254 LINE",
"580 329 LINE",
"287 329 LINE"
);
},
{
closed = 1;
nodes = (
"455 760 LINE",
"220 449 LINE",
"220 311 LINE",
"455 0 LINE",
"521 51 LINE",
"273 380 LINE",
"521 709 LINE"
);
}
);
width = 700;
},
{
associatedMasterId = "C60226DB-E4D3-4E89-B452-CA8BAB7E3EC0";
layerId = "A5C0B081-A300-49F7-802B-06B4CA8DC93C";
name = "Jul 3 20, 14:38";
paths = (
{
closed = 1;
nodes = (
"150 685 LINE",
"640 685 LINE",
"640 760 LINE",
"150 760 LINE"
);
},
{
closed = 1;
nodes = (
"233 760 LINE",
"150 760 LINE",
"150 0 LINE",
"233 0 LINE"
);
},
{
closed = 1;
nodes = (
"150 0 LINE",
"650 0 LINE",
"650 75 LINE",
"150 75 LINE"
);
},
{
closed = 1;
nodes = (
"233 329 LINE",
"50 329 LINE",
"50 254 LINE",
"233 254 LINE"
);
},
{
closed = 1;
nodes = (
"297 254 LINE",
"562 254 LINE",
"562 329 LINE",
"297 329 LINE"
);
},
{
closed = 1;
nodes = (
"201 497 LINE",
"172 397 LINE",
"472 0 LINE",
"548 51 LINE"
);
},
{
closed = 1;
nodes = (
"50 529 LINE",
"50 454 LINE",
"562 454 LINE",
"562 529 LINE"
);
}
);
width = 750;
}
);
unicode = 20AC;
},
{
color = 3;
glyphname = sterling;
lastChange = "2020-07-16 13:14:08 +0000";
layers = (
{
background = {
paths = (
{
closed = 1;
nodes = (
"203 760 LINE",
"90 760 LINE",
"90 0 LINE",
"203 0 LINE"
);
},
{
closed = 1;
nodes = (
"714 0 LINE",
"827 0 LINE",
"827 760 LINE",
"714 760 LINE"
);
},
{
closed = 1;
nodes = (
"827 760 LINE",
"90 760 LINE",
"90 655 LINE",
"827 655 LINE"
);
},
{
closed = 1;
nodes = (
"312 0 LINE",
"425 0 LINE",
"425 597 LINE",
"312 547 LINE"
);
},
{
closed = 1;
nodes = (
"462 760 LINE",
"94 310 LINE",
"186 262 LINE",
"556 714 LINE"
);
}
);
};
layerId = "C60226DB-E4D3-4E89-B452-CA8BAB7E3EC0";
paths = (
{
closed = 1;
nodes = (
"241 760 LINE",
"128 760 LINE",
"128 0 LINE",
"241 0 LINE"
);
},
{
closed = 1;
nodes = (
"665 760 LINE",
"128 760 LINE",
"128 655 LINE",
"665 655 LINE"
);
},
{
closed = 1;
nodes = (
"352 316 LINE",
"575 316 LINE",
"575 421 LINE",
"352 421 LINE"
);
},
{
closed = 1;
nodes = (
"50 0 LINE",
"645 0 LINE",
"645 105 LINE",
"50 105 LINE"
);
},
{
closed = 1;
nodes = (
"665 760 LINE",
"552 760 LINE",
"552 527 LINE",
"665 527 LINE"
);
},
{
closed = 1;
nodes = (
"423 760 LINE",
"310 760 LINE",
"310 0 LINE",
"423 0 LINE"
);
},
{
closed = 1;
nodes = (
"210 421 LINE",
"50 421 LINE",
"50 316 LINE",
"210 316 LINE"
);
}
);
width = 750;
},
{
associatedMasterId = "C60226DB-E4D3-4E89-B452-CA8BAB7E3EC0";
layerId = "25DFD9F3-4DE6-49F1-8A76-2B8DCC142765";
name = "Jul 3 20, 14:38";
paths = (
{
closed = 1;
nodes = (
"223 760 LINE",
"140 760 LINE",
"140 0 LINE",
"223 0 LINE"
);
},
{
closed = 1;
nodes = (
"630 760 LINE",
"140 760 LINE",
"140 685 LINE",
"630 685 LINE"
);
},
{
closed = 1;
nodes = (
"332 331 LINE",
"540 331 LINE",
"540 406 LINE",
"332 406 LINE"
);
},
{
closed = 1;
nodes = (
"60 0 LINE",
"610 0 LINE",
"610 75 LINE",
"60 75 LINE"
);
},
{
closed = 1;
nodes = (
"630 760 LINE",
"547 760 LINE",
"547 527 LINE",
"630 527 LINE"
);
},
{
closed = 1;
nodes = (
"373 760 LINE",
"290 760 LINE",
"290 0 LINE",
"373 0 LINE"
);
},
{
closed = 1;
nodes = (
"192 406 LINE",
"60 406 LINE",
"60 331 LINE",
"192 331 LINE"
);
}
);
width = 750;
}
);
unicode = 00A3;
},
{
color = 3;
glyphname = yen;
lastChange = "2020-07-16 13:14:08 +0000";
layers = (
{
guideLines = (
{
position = "{20, 655}";
}
);
layerId = "C60226DB-E4D3-4E89-B452-CA8BAB7E3EC0";
paths = (
{
closed = 1;
nodes = (
"688 655 LINE",
"688 760 LINE",
"62 760 LINE",
"62 655 LINE",
"135 655 LINE",
"323 302 LINE",
"429 305 LINE",
"616 655 LINE"
);
},
{
closed = 1;
nodes = (
"380 420 LINE",
"258 655 LINE",
"502 655 LINE"
);
},
{
closed = 1;
nodes = (
"319 0 LINE",
"432 0 LINE",
"432 379 LINE",
"319 379 LINE"
);
},
{
closed = 1;
nodes = (
"152 289 LINE",
"592 289 LINE",
"592 394 LINE",
"152 394 LINE"
);
},
{
closed = 1;
nodes = (
"152 139 LINE",
"592 139 LINE",
"592 244 LINE",
"152 244 LINE"
);
}
);
width = 750;
},
{
associatedMasterId = "C60226DB-E4D3-4E89-B452-CA8BAB7E3EC0";
layerId = "8FA0A507-1366-470B-A5C8-2BC4D45E8FED";
name = "Jul 3 20, 14:38";
paths = (
{
closed = 1;
nodes = (
"653 685 LINE",
"653 760 LINE",
"47 760 LINE",
"47 685 LINE",
"109 685 LINE",
"298 319 LINE",
"401 319 LINE",
"590 685 LINE"
);
},
{
closed = 1;
nodes = (
"355 392 LINE",
"202 685 LINE",
"506 685 LINE"
);
},
{
closed = 1;
nodes = (
"309 0 LINE",
"392 0 LINE",
"392 379 LINE",
"309 379 LINE"
);
},
{
closed = 1;
nodes = (
"127 304 LINE",
"567 304 LINE",
"567 379 LINE",
"127 379 LINE"
);
},
{
closed = 1;
nodes = (
"127 164 LINE",
"567 164 LINE",
"567 239 LINE",
"127 239 LINE"
);
}
);
width = 750;
}
);
unicode = 00A5;
},
{
color = 3;
glyphname = plus;
lastChange = "2020-07-16 13:14:08 +0000";
layers = (
{
layerId = "C60226DB-E4D3-4E89-B452-CA8BAB7E3EC0";
paths = (
{
closed = 1;
nodes = (
"610 432 LINE",
"432 432 LINE",
"432 624 LINE",
"319 624 LINE",
"319 432 LINE",
"141 432 LINE",
"141 327 LINE",
"319 327 LINE",
"319 135 LINE",
"432 135 LINE",
"432 327 LINE",
"610 327 LINE"
);
}
);
width = 750;
}
);
unicode = 002B;
},
{
color = 3;
glyphname = minus;
lastChange = "2020-07-16 13:14:08 +0000";
layers = (
{
background = {
paths = (
{
closed = 1;
nodes = (
"560 420 LINE",
"140 420 LINE",
"140 339 LINE",
"560 339 LINE"
);
}
);
};
layerId = "C60226DB-E4D3-4E89-B452-CA8BAB7E3EC0";
paths = (
{
closed = 1;
nodes = (
"585 435 LINE",
"165 435 LINE",
"165 324 LINE",
"585 324 LINE"
);
}
);
width = 750;
}
);
unicode = 2212;
},
{
color = 3;
glyphname = multiply;
lastChange = "2020-07-16 13:14:08 +0000";
layers = (
{
background = {
paths = (
{
closed = 1;
nodes = (
"500 604 LINE",
"353 457 LINE",
"196 614 LINE",
"116 533 LINE",
"273 376 LINE",
"125 229 LINE",
"200 155 LINE",
"347 302 LINE",
"504 145 LINE",
"584 226 LINE",
"427 383 LINE",
"575 530 LINE"
);
}
);
};
layerId = "C60226DB-E4D3-4E89-B452-CA8BAB7E3EC0";
paths = (
{
closed = 1;
nodes = (
"525 604 LINE",
"378 457 LINE",
"221 614 LINE",
"141 533 LINE",
"298 376 LINE",
"150 229 LINE",
"225 155 LINE",
"372 302 LINE",
"529 145 LINE",
"609 226 LINE",
"452 383 LINE",
"600 530 LINE"
);
}
);
width = 750;
}
);
unicode = 00D7;
},
{
color = 3;
glyphname = divide;
lastChange = "2020-07-16 13:14:08 +0000";
layers = (
{
layerId = "C60226DB-E4D3-4E89-B452-CA8BAB7E3EC0";
paths = (
{
closed = 1;
nodes = (
"444 260 LINE",
"306 260 LINE",
"306 122 LINE",
"444 122 LINE"
);
},
{
closed = 1;
nodes = (
"609 432 LINE",
"140 432 LINE",
"140 327 LINE",
"609 327 LINE"
);
},
{
closed = 1;
nodes = (
"444 637 LINE",
"306 637 LINE",
"306 499 LINE",
"444 499 LINE"
);
}
);
width = 750;
}
);
unicode = 00F7;
},
{
color = 3;
glyphname = equal;
lastChange = "2020-07-16 13:14:08 +0000";
layers = (
{
layerId = "C60226DB-E4D3-4E89-B452-CA8BAB7E3EC0";
paths = (
{
closed = 1;
nodes = (
"145 431 LINE",
"605 431 LINE",
"605 536 LINE",
"145 536 LINE"
);
},
{
closed = 1;
nodes = (
"145 221 LINE",
"605 221 LINE",
"605 326 LINE",
"145 326 LINE"
);
}
);
width = 750;
}
);
unicode = 003D;
},
{
color = 3;
glyphname = notequal;
lastChange = "2020-07-16 13:14:08 +0000";
layers = (
{
background = {
paths = (
{
closed = 1;
nodes = (
"277 102 LINE",
"686 812 LINE",
"595 865 LINE",
"186 155 LINE"
);
}
);
};
layerId = "C60226DB-E4D3-4E89-B452-CA8BAB7E3EC0";
paths = (
{
closed = 1;
nodes = (
"483 672 LINE",
"179 139 LINE",
"269 86 LINE",
"573 620 LINE"
);
},
{
closed = 1;
nodes = (
"145 431 LINE",
"605 431 LINE",
"605 536 LINE",
"145 536 LINE"
);
},
{
closed = 1;
nodes = (
"145 221 LINE",
"605 221 LINE",
"605 326 LINE",
"145 326 LINE"
);
}
);
width = 750;
}
);
unicode = 2260;
},
{
color = 3;
glyphname = plusminus;
lastChange = "2020-07-16 13:14:08 +0000";
layers = (
{
layerId = "C60226DB-E4D3-4E89-B452-CA8BAB7E3EC0";
paths = (
{
closed = 1;
nodes = (
"590 201 LINE",
"160 201 LINE",
"160 96 LINE",
"590 96 LINE"
);
},
{
closed = 1;
nodes = (
"590 490 LINE",
"432 490 LINE",
"432 612 LINE",
"318 612 LINE",
"318 490 LINE",
"160 490 LINE",
"160 385 LINE",
"318 385 LINE",
"318 263 LINE",
"432 263 LINE",
"432 385 LINE",
"590 385 LINE"
);
}
);
width = 750;
}
);
unicode = 00B1;
},
{
color = 3;
glyphname = approxequal;
lastChange = "2020-07-16 13:14:08 +0000";
layers = (
{
background = {
paths = (
{
closed = 1;
nodes = (
"324 536 LINE",
"130 536 LINE",
"130 427 LINE",
"283 427 LINE",
"392 317 LINE",
"590 317 LINE",
"590 426 LINE",
"433 426 LINE"
);
},
{
closed = 1;
nodes = (
"324 314 LINE",
"130 314 LINE",
"130 205 LINE",
"283 205 LINE",
"392 95 LINE",
"590 95 LINE",
"590 204 LINE",
"433 204 LINE"
);
}
);
};
layerId = "C60226DB-E4D3-4E89-B452-CA8BAB7E3EC0";
paths = (
{
closed = 1;
nodes = (
"339 536 LINE",
"145 536 LINE",
"145 427 LINE",
"298 427 LINE",
"407 317 LINE",
"605 317 LINE",
"605 426 LINE",
"448 426 LINE"
);
},
{
closed = 1;
nodes = (
"339 314 LINE",
"145 314 LINE",
"145 205 LINE",
"298 205 LINE",
"407 95 LINE",
"605 95 LINE",
"605 204 LINE",
"448 204 LINE"
);
}
);
width = 750;
}
);
unicode = 2248;
},
{
color = 3;
glyphname = asciitilde;
lastChange = "2020-07-16 13:14:08 +0000";
layers = (
{
layerId = "C60226DB-E4D3-4E89-B452-CA8BAB7E3EC0";
paths = (
{
closed = 1;
nodes = (
"339 489 LINE",
"145 489 LINE",
"145 380 LINE",
"298 380 LINE",
"407 270 LINE",
"605 270 LINE",
"605 379 LINE",
"448 379 LINE"
);
}
);
width = 750;
}
);
unicode = 007E;
},
{
color = 3;
glyphname = logicalnot;
lastChange = "2020-07-16 13:14:08 +0000";
layers = (
{
layerId = "C60226DB-E4D3-4E89-B452-CA8BAB7E3EC0";
paths = (
{
closed = 1;
nodes = (
"605 417 LINE",
"135 417 LINE",
"135 312 LINE",
"491 312 LINE",
"491 135 LINE",
"605 135 LINE"
);
}
);
width = 750;
}
);
unicode = 00AC;
},
{
color = 3;
glyphname = emptyset;
lastChange = "2020-07-16 13:14:08 +0000";
layers = (
{
guideLines = (
{
position = "{489, 860}";
}
);
layerId = "C60226DB-E4D3-4E89-B452-CA8BAB7E3EC0";
paths = (
{
closed = 1;
nodes = (
"95 760 LINE",
"95 0 LINE",
"208 0 LINE",
"208 760 LINE"
);
},
{
closed = 1;
nodes = (
"95 760 LINE",
"95 655 LINE",
"725 655 LINE",
"725 760 LINE"
);
},
{
closed = 1;
nodes = (
"725 0 LINE",
"725 760 LINE",
"612 760 LINE",
"612 0 LINE"
);
},
{
closed = 1;
nodes = (
"95 105 LINE",
"95 0 LINE",
"725 0 LINE",
"725 105 LINE"
);
},
{
closed = 1;
nodes = (
"574 860 LINE",
"129 -100 LINE",
"247 -100 LINE",
"692 860 LINE"
);
}
);
width = 820;
}
);
leftMetricsKey = A;
rightMetricsKey = A;
unicode = 2205;
},
{
color = 3;
glyphname = infinity;
lastChange = "2020-07-16 13:14:08 +0000";
layers = (
{
layerId = "C60226DB-E4D3-4E89-B452-CA8BAB7E3EC0";
paths = (
{
closed = 1;
nodes = (
"736 200 LINE",
"736 95 LINE",
"899 95 LINE",
"899 200 LINE"
);
},
{
closed = 1;
nodes = (
"274 560 LINE",
"274 665 LINE",
"95 665 LINE",
"95 560 LINE"
);
},
{
closed = 1;
nodes = (
"95 665 LINE",
"95 95 LINE",
"208 95 LINE",
"208 665 LINE"
);
},
{
closed = 1;
nodes = (
"190 587 LINE",
"736 95 LINE",
"848 147 LINE",
"274 665 LINE"
);
},
{
closed = 1;
nodes = (
"801 665 LINE",
"801 95 LINE",
"914 95 LINE",
"914 665 LINE"
);
},
{
closed = 1;
nodes = (
"448 665 LINE",
"448 95 LINE",
"561 95 LINE",
"561 665 LINE"
);
},
{
closed = 1;
nodes = (
"561 95 LINE",
"561 200 LINE",
"95 200 LINE",
"95 95 LINE"
);
},
{
closed = 1;
nodes = (
"914 560 LINE",
"914 665 LINE",
"448 665 LINE",
"448 560 LINE"
);
}
);
width = 1009;
}
);
leftMetricsKey = A;
rightMetricsKey = A;
unicode = 221E;
},
{
color = 3;
glyphname = percent;
lastChange = "2020-07-16 13:14:08 +0000";
layers = (
{
layerId = "C60226DB-E4D3-4E89-B452-CA8BAB7E3EC0";
paths = (
{
closed = 1;
nodes = (
"287 0 LINE",
"777 760 LINE",
"648 760 LINE",
"158 0 LINE"
);
},
{
closed = 1;
nodes = (
"267 460 LINE",
"380 460 LINE",
"380 760 LINE",
"267 760 LINE"
);
},
{
closed = 1;
nodes = (
"183 760 LINE",
"70 760 LINE",
"70 460 LINE",
"183 460 LINE"
);
},
{
closed = 1;
nodes = (
"70 460 LINE",
"380 460 LINE",
"380 563 LINE",
"70 563 LINE"
);
},
{
closed = 1;
nodes = (
"70 655 LINE",
"380 655 LINE",
"380 760 LINE",
"70 760 LINE"
);
},
{
closed = 1;
nodes = (
"752 0 LINE",
"865 0 LINE",
"865 300 LINE",
"752 300 LINE"
);
},
{
closed = 1;
nodes = (
"668 300 LINE",
"555 300 LINE",
"555 0 LINE",
"668 0 LINE"
);
},
{
closed = 1;
nodes = (
"555 0 LINE",
"865 0 LINE",
"865 103 LINE",
"555 103 LINE"
);
},
{
closed = 1;
nodes = (
"555 195 LINE",
"865 195 LINE",
"865 300 LINE",
"555 300 LINE"
);
}
);
width = 935;
}
);
unicode = 0025;
},
{
color = 3;
glyphname = perthousand;
lastChange = "2020-07-16 13:14:08 +0000";
layers = (
{
layerId = "C60226DB-E4D3-4E89-B452-CA8BAB7E3EC0";
paths = (
{
closed = 1;
nodes = (
"287 0 LINE",
"777 760 LINE",
"648 760 LINE",
"158 0 LINE"
);
},
{
closed = 1;
nodes = (
"267 460 LINE",
"380 460 LINE",
"380 760 LINE",
"267 760 LINE"
);
},
{
closed = 1;
nodes = (
"183 760 LINE",
"70 760 LINE",
"70 460 LINE",
"183 460 LINE"
);
},
{
closed = 1;
nodes = (
"70 460 LINE",
"380 460 LINE",
"380 563 LINE",
"70 563 LINE"
);
},
{
closed = 1;
nodes = (
"70 655 LINE",
"380 655 LINE",
"380 760 LINE",
"70 760 LINE"
);
},
{
closed = 1;
nodes = (
"752 0 LINE",
"865 0 LINE",
"865 300 LINE",
"752 300 LINE"
);
},
{
closed = 1;
nodes = (
"668 300 LINE",
"555 300 LINE",
"555 0 LINE",
"668 0 LINE"
);
},
{
closed = 1;
nodes = (
"555 0 LINE",
"865 0 LINE",
"865 103 LINE",
"555 103 LINE"
);
},
{
closed = 1;
nodes = (
"555 195 LINE",
"865 195 LINE",
"865 300 LINE",
"555 300 LINE"
);
},
{
closed = 1;
nodes = (
"949 0 LINE",
"1062 0 LINE",
"1062 300 LINE",
"949 300 LINE"
);
},
{
closed = 1;
nodes = (
"865 300 LINE",
"752 300 LINE",
"752 0 LINE",
"865 0 LINE"
);
},
{
closed = 1;
nodes = (
"752 0 LINE",
"1062 0 LINE",
"1062 103 LINE",
"752 103 LINE"
);
},
{
closed = 1;
nodes = (
"752 195 LINE",
"1062 195 LINE",
"1062 300 LINE",
"752 300 LINE"
);
}
);
width = 1132;
},
{
associatedMasterId = "C60226DB-E4D3-4E89-B452-CA8BAB7E3EC0";
layerId = "A5088EBE-B4C7-42B6-903E-5AEE07BB8563";
name = "Jul 3 20, 15:36";
paths = (
{
closed = 1;
nodes = (
"702 0 LINE",
"785 0 LINE",
"785 270 LINE",
"702 270 LINE"
);
},
{
closed = 1;
nodes = (
"588 270 LINE",
"505 270 LINE",
"505 0 LINE",
"588 0 LINE"
);
},
{
closed = 1;
nodes = (
"505 0 LINE",
"785 0 LINE",
"785 73 LINE",
"505 73 LINE"
);
},
{
closed = 1;
nodes = (
"505 195 LINE",
"785 195 LINE",
"785 270 LINE",
"505 270 LINE"
);
},
{
closed = 1;
nodes = (
"217 0 LINE",
"707 760 LINE",
"618 760 LINE",
"128 0 LINE"
);
},
{
closed = 1;
nodes = (
"247 490 LINE",
"330 490 LINE",
"330 760 LINE",
"247 760 LINE"
);
},
{
closed = 1;
nodes = (
"133 760 LINE",
"50 760 LINE",
"50 490 LINE",
"133 490 LINE"
);
},
{
closed = 1;
nodes = (
"50 490 LINE",
"330 490 LINE",
"330 563 LINE",
"50 563 LINE"
);
},
{
closed = 1;
nodes = (
"50 685 LINE",
"330 685 LINE",
"330 760 LINE",
"50 760 LINE"
);
},
{
closed = 1;
nodes = (
"899 0 LINE",
"982 0 LINE",
"982 270 LINE",
"899 270 LINE"
);
},
{
closed = 1;
nodes = (
"785 270 LINE",
"702 270 LINE",
"702 0 LINE",
"785 0 LINE"
);
},
{
closed = 1;
nodes = (
"702 0 LINE",
"982 0 LINE",
"982 73 LINE",
"702 73 LINE"
);
},
{
closed = 1;
nodes = (
"702 195 LINE",
"982 195 LINE",
"982 270 LINE",
"702 270 LINE"
);
}
);
width = 1032;
}
);
unicode = 2030;
},
{
color = 3;
glyphname = upArrow;
lastChange = "2020-07-16 13:14:08 +0000";
layers = (
{
background = {
paths = (
{
closed = 1;
nodes = (
"620 439 LINE",
"350 709 LINE",
"80 439 LINE",
"80 328 LINE",
"309 556 LINE",
"309 112 LINE",
"391 112 LINE",
"391 556 LINE",
"620 328 LINE"
);
}
);
};
layerId = "C60226DB-E4D3-4E89-B452-CA8BAB7E3EC0";
paths = (
{
closed = 1;
nodes = (
"645 439 LINE",
"375 709 LINE",
"105 439 LINE",
"105 296 LINE",
"319 509 LINE",
"319 80 LINE",
"431 80 LINE",
"431 509 LINE",
"645 296 LINE"
);
}
);
width = 750;
},
{
associatedMasterId = "C60226DB-E4D3-4E89-B452-CA8BAB7E3EC0";
layerId = "F6A0B77C-9AAD-4614-9729-3D206F412905";
name = "Jul 3 20, 11:46";
paths = (
{
closed = 1;
nodes = (
"620 439 LINE",
"350 709 LINE",
"80 439 LINE",
"80 328 LINE",
"309 556 LINE",
"309 112 LINE",
"391 112 LINE",
"391 556 LINE",
"620 328 LINE"
);
}
);
width = 700;
}
);
unicode = 2191;
},
{
color = 3;
glyphname = northEastArrow;
lastChange = "2020-07-16 13:14:08 +0000";
layers = (
{
layerId = "C60226DB-E4D3-4E89-B452-CA8BAB7E3EC0";
paths = (
{
closed = 1;
nodes = (
"610 240 LINE",
"610 622 LINE",
"229 622 LINE",
"127 521 LINE",
"430 521 LINE",
"126 217 LINE",
"205 138 LINE",
"509 441 LINE",
"509 139 LINE"
);
}
);
width = 750;
},
{
associatedMasterId = "C60226DB-E4D3-4E89-B452-CA8BAB7E3EC0";
layerId = "D5F10DD7-88DD-4B30-AC76-E5BDC9FD9E27";
name = "Jul 3 20, 11:46";
paths = (
{
closed = 1;
nodes = (
"570 240 LINE",
"570 622 LINE",
"188 622 LINE",
"110 543 LINE",
"433 542 LINE",
"119 228 LINE",
"177 170 LINE",
"491 484 LINE",
"492 161 LINE"
);
}
);
visible = 1;
width = 700;
}
);
unicode = 2197;
},
{
color = 3;
glyphname = rightArrow;
lastChange = "2020-07-16 13:14:08 +0000";
layers = (
{
layerId = "C60226DB-E4D3-4E89-B452-CA8BAB7E3EC0";
paths = (
{
closed = 1;
nodes = (
"420 121 LINE",
"690 391 LINE",
"420 661 LINE",
"277 661 LINE",
"490 447 LINE",
"61 447 LINE",
"61 335 LINE",
"490 335 LINE",
"277 121 LINE"
);
}
);
width = 750;
},
{
associatedMasterId = "C60226DB-E4D3-4E89-B452-CA8BAB7E3EC0";
layerId = "58285CAF-F36F-4184-9844-3ABAE40C024C";
name = "Jul 3 20, 11:46";
paths = (
{
closed = 1;
nodes = (
"391 122 LINE",
"660 391 LINE",
"390 662 LINE",
"279 662 LINE",
"507 432 LINE",
"63 432 LINE",
"63 350 LINE",
"507 350 LINE",
"279 122 LINE"
);
}
);
visible = 1;
width = 700;
}
);
unicode = 2192;
},
{
color = 3;
glyphname = southEastArrow;
lastChange = "2020-07-16 13:14:08 +0000";
layers = (
{
layerId = "C60226DB-E4D3-4E89-B452-CA8BAB7E3EC0";
paths = (
{
closed = 1;
nodes = (
"228 180 LINE",
"610 180 LINE",
"610 562 LINE",
"509 663 LINE",
"508 361 LINE",
"205 664 LINE",
"126 585 LINE",
"429 282 LINE",
"127 281 LINE"
);
}
);
width = 750;
},
{
associatedMasterId = "C60226DB-E4D3-4E89-B452-CA8BAB7E3EC0";
layerId = "D7425BF6-BCB3-480B-948C-772F88744CF7";
name = "Jul 3 20, 11:46";
paths = (
{
closed = 1;
nodes = (
"187 180 LINE",
"569 180 LINE",
"570 563 LINE",
"491 641 LINE",
"490 317 LINE",
"176 631 LINE",
"118 573 LINE",
"432 259 LINE",
"110 259 LINE"
);
}
);
visible = 1;
width = 700;
}
);
unicode = 2198;
},
{
color = 3;
glyphname = downArrow;
lastChange = "2020-07-16 13:14:08 +0000";
layers = (
{
layerId = "C60226DB-E4D3-4E89-B452-CA8BAB7E3EC0";
paths = (
{
closed = 1;
nodes = (
"431 280 LINE",
"431 709 LINE",
"319 709 LINE",
"319 280 LINE",
"105 493 LINE",
"105 350 LINE",
"375 80 LINE",
"645 350 LINE",
"645 493 LINE"
);
}
);
width = 750;
},
{
associatedMasterId = "C60226DB-E4D3-4E89-B452-CA8BAB7E3EC0";
layerId = "4C9A92AB-2DFD-4E13-A2C7-9AB7C49669C7";
name = "Jul 3 20, 11:46";
paths = (
{
closed = 1;
nodes = (
"391 265 LINE",
"391 709 LINE",
"309 709 LINE",
"309 265 LINE",
"80 493 LINE",
"80 382 LINE",
"350 112 LINE",
"620 382 LINE",
"620 493 LINE"
);
}
);
visible = 1;
width = 700;
}
);
unicode = 2193;
},
{
color = 3;
glyphname = southWestArrow;
lastChange = "2020-07-16 13:14:08 +0000";
layers = (
{
layerId = "C60226DB-E4D3-4E89-B452-CA8BAB7E3EC0";
paths = (
{
closed = 1;
nodes = (
"321 282 LINE",
"624 585 LINE",
"545 664 LINE",
"242 361 LINE",
"241 663 LINE",
"140 562 LINE",
"140 180 LINE",
"522 180 LINE",
"623 281 LINE"
);
}
);
width = 750;
},
{
associatedMasterId = "C60226DB-E4D3-4E89-B452-CA8BAB7E3EC0";
layerId = "35710CC4-9F95-4CA4-AEF7-ACC0F5A0EC67";
name = "Jul 3 20, 11:46";
paths = (
{
closed = 1;
nodes = (
"130 543 LINE",
"130 161 LINE",
"512 161 LINE",
"590 240 LINE",
"267 241 LINE",
"581 555 LINE",
"523 613 LINE",
"209 299 LINE",
"208 622 LINE"
);
}
);
width = 700;
}
);
unicode = 2199;
},
{
color = 3;
glyphname = leftArrow;
lastChange = "2020-07-16 13:14:08 +0000";
layers = (
{
layerId = "C60226DB-E4D3-4E89-B452-CA8BAB7E3EC0";
paths = (
{
closed = 1;
nodes = (
"260 335 LINE",
"689 335 LINE",
"689 447 LINE",
"260 447 LINE",
"473 661 LINE",
"330 661 LINE",
"60 391 LINE",
"330 121 LINE",
"473 121 LINE"
);
}
);
width = 750;
},
{
associatedMasterId = "C60226DB-E4D3-4E89-B452-CA8BAB7E3EC0";
layerId = "5B9C2E35-FA42-4B0E-82EC-C6048A99B907";
name = "Jul 3 20, 11:46";
paths = (
{
closed = 1;
nodes = (
"193 350 LINE",
"637 350 LINE",
"637 432 LINE",
"193 432 LINE",
"421 662 LINE",
"310 662 LINE",
"40 391 LINE",
"309 122 LINE",
"421 122 LINE"
);
}
);
width = 700;
}
);
unicode = 2190;
},
{
color = 3;
glyphname = northWestArrow;
lastChange = "2020-07-16 13:14:08 +0000";
layers = (
{
layerId = "C60226DB-E4D3-4E89-B452-CA8BAB7E3EC0";
paths = (
{
closed = 1;
nodes = (
"241 441 LINE",
"545 138 LINE",
"624 217 LINE",
"320 521 LINE",
"623 521 LINE",
"521 622 LINE",
"140 622 LINE",
"140 240 LINE",
"241 139 LINE"
);
}
);
width = 750;
},
{
associatedMasterId = "C60226DB-E4D3-4E89-B452-CA8BAB7E3EC0";
layerId = "94E9246F-1883-4261-8289-8C1E140E048B";
name = "Jul 3 20, 11:46";
paths = (
{
closed = 1;
nodes = (
"209 484 LINE",
"523 170 LINE",
"581 228 LINE",
"267 542 LINE",
"590 543 LINE",
"512 622 LINE",
"130 622 LINE",
"130 240 LINE",
"208 161 LINE"
);
}
);
width = 700;
}
);
unicode = 2196;
},
{
color = 3;
glyphname = leftRightArrow;
lastChange = "2020-07-16 13:14:08 +0000";
layers = (
{
layerId = "C60226DB-E4D3-4E89-B452-CA8BAB7E3EC0";
paths = (
{
closed = 1;
nodes = (
"778 437 LINE",
"349 437 LINE",
"349 325 LINE",
"778 325 LINE",
"565 111 LINE",
"708 111 LINE",
"978 381 LINE",
"708 651 LINE",
"565 651 LINE"
);
},
{
closed = 1;
nodes = (
"310 651 LINE",
"40 381 LINE",
"310 111 LINE",
"453 111 LINE",
"240 325 LINE",
"669 325 LINE",
"669 437 LINE",
"240 437 LINE",
"453 651 LINE"
);
}
);
width = 1018;
},
{
associatedMasterId = "C60226DB-E4D3-4E89-B452-CA8BAB7E3EC0";
layerId = "429BE489-1FDE-443E-897F-9554CD66BAAD";
name = "Jul 3 20, 11:46";
paths = (
{
closed = 1;
nodes = (
"310 651 LINE",
"40 381 LINE",
"310 111 LINE",
"421 111 LINE",
"193 340 LINE",
"647 340 LINE",
"647 422 LINE",
"193 422 LINE",
"421 651 LINE"
);
},
{
closed = 1;
nodes = (
"825 422 LINE",
"371 422 LINE",
"371 340 LINE",
"825 340 LINE",
"597 111 LINE",
"708 111 LINE",
"978 381 LINE",
"708 651 LINE",
"597 651 LINE"
);
}
);
visible = 1;
width = 1018;
}
);
unicode = 2194;
},
{
color = 3;
glyphname = upDownArrow;
lastChange = "2020-07-16 13:14:08 +0000";
layers = (
{
layerId = "C60226DB-E4D3-4E89-B452-CA8BAB7E3EC0";
paths = (
{
closed = 1;
nodes = (
"431 112 LINE",
"431 541 LINE",
"319 541 LINE",
"319 112 LINE",
"105 325 LINE",
"105 182 LINE",
"375 -88 LINE",
"645 182 LINE",
"645 325 LINE"
);
},
{
closed = 1;
nodes = (
"645 580 LINE",
"375 850 LINE",
"105 580 LINE",
"105 437 LINE",
"319 650 LINE",
"319 221 LINE",
"431 221 LINE",
"431 650 LINE",
"645 437 LINE"
);
}
);
width = 750;
},
{
associatedMasterId = "C60226DB-E4D3-4E89-B452-CA8BAB7E3EC0";
layerId = "1A8EC4BE-16D2-4639-B21D-51E4B9020536";
name = "Jul 3 20, 11:46";
paths = (
{
closed = 1;
nodes = (
"620 580 LINE",
"350 850 LINE",
"80 580 LINE",
"80 469 LINE",
"309 697 LINE",
"309 243 LINE",
"391 243 LINE",
"391 697 LINE",
"620 469 LINE"
);
},
{
closed = 1;
nodes = (
"391 65 LINE",
"391 519 LINE",
"309 519 LINE",
"309 65 LINE",
"80 293 LINE",
"80 182 LINE",
"350 -88 LINE",
"620 182 LINE",
"620 293 LINE"
);
}
);
visible = 1;
width = 700;
}
);
unicode = 2195;
},
{
color = 3;
glyphname = lozenge;
lastChange = "2020-07-16 13:14:08 +0000";
layers = (
{
layerId = "C60226DB-E4D3-4E89-B452-CA8BAB7E3EC0";
paths = (
{
closed = 1;
nodes = (
"647 380 LINE",
"400 810 LINE",
"334 810 LINE",
"85 380 LINE",
"332 -50 LINE",
"398 -50 LINE"
);
},
{
closed = 1;
nodes = (
"517 375 LINE",
"369 117 LINE",
"215 384 LINE",
"363 643 LINE"
);
}
);
width = 732;
},
{
associatedMasterId = "C60226DB-E4D3-4E89-B452-CA8BAB7E3EC0";
background = {
paths = (
{
closed = 1;
nodes = (
"80 380 LINE",
"327 -50 LINE",
"393 -50 LINE",
"642 380 LINE",
"392 810 LINE",
"325 810 LINE"
);
},
{
closed = 1;
nodes = (
"175 380 LINE",
"353 707 LINE",
"554 380 LINE",
"365 51 LINE"
);
}
);
};
layerId = "191FAD2C-C1C6-423A-AE60-AE01CAE3EE0D";
name = "Jul 3 20, 11:47";
paths = (
{
closed = 1;
nodes = (
"642 380 LINE",
"395 810 LINE",
"329 810 LINE",
"80 380 LINE",
"327 -50 LINE",
"393 -50 LINE"
);
},
{
closed = 1;
nodes = (
"550 374 LINE",
"365 51 LINE",
"172 385 LINE",
"357 709 LINE"
);
}
);
width = 722;
}
);
unicode = 25CA;
},
{
color = 3;
glyphname = at;
lastChange = "2020-07-16 13:14:08 +0000";
layers = (
{
layerId = "C60226DB-E4D3-4E89-B452-CA8BAB7E3EC0";
paths = (
{
closed = 1;
nodes = (
"805 183 LINE",
"805 760 LINE",
"692 760 LINE",
"692 183 LINE"
);
},
{
closed = 1;
nodes = (
"805 0 LINE",
"805 105 LINE",
"100 105 LINE",
"100 0 LINE"
);
},
{
closed = 1;
nodes = (
"100 760 LINE",
"100 0 LINE",
"213 0 LINE",
"213 760 LINE"
);
},
{
closed = 1;
nodes = (
"805 655 LINE",
"805 760 LINE",
"100 760 LINE",
"100 655 LINE"
);
},
{
closed = 1;
nodes = (
"622 565 LINE",
"425 565 LINE",
"279 312 LINE",
"279 183 LINE",
"805 183 LINE",
"805 288 LINE",
"622 288 LINE"
);
},
{
closed = 1;
nodes = (
"392 302 LINE",
"488 460 LINE",
"509 460 LINE",
"509 288 LINE",
"392 288 LINE"
);
}
);
width = 905;
}
);
unicode = 0040;
},
{
color = 3;
glyphname = ampersand;
lastChange = "2020-07-16 13:14:08 +0000";
layers = (
{
layerId = "C60226DB-E4D3-4E89-B452-CA8BAB7E3EC0";
paths = (
{
closed = 1;
nodes = (
"163 655 LINE",
"548 655 LINE",
"548 760 LINE",
"163 760 LINE"
);
},
{
closed = 1;
nodes = (
"193 465 LINE",
"80 465 LINE",
"80 0 LINE",
"193 0 LINE"
);
},
{
closed = 1;
nodes = (
"661 595 LINE",
"548 595 LINE",
"548 0 LINE",
"661 0 LINE"
);
},
{
closed = 1;
nodes = (
"80 0 LINE",
"661 0 LINE",
"661 105 LINE",
"80 105 LINE"
);
},
{
closed = 1;
nodes = (
"80 360 LINE",
"758 360 LINE",
"758 465 LINE",
"80 465 LINE"
);
},
{
closed = 1;
nodes = (
"276 760 LINE",
"163 760 LINE",
"163 360 LINE",
"276 360 LINE"
);
},
{
closed = 1;
nodes = (
"334 437 LINE",
"225 402 LINE",
"410 13 LINE",
"522 43 LINE"
);
}
);
width = 783;
},
{
associatedMasterId = "C60226DB-E4D3-4E89-B452-CA8BAB7E3EC0";
layerId = "81632037-2DFF-4CA8-ABE1-4AF4D8760441";
name = "Jul 3 20, 11:47";
paths = (
{
closed = 1;
nodes = (
"158 685 LINE",
"543 685 LINE",
"543 760 LINE",
"158 760 LINE"
);
},
{
closed = 1;
nodes = (
"158 450 LINE",
"75 450 LINE",
"75 0 LINE",
"158 0 LINE"
);
},
{
closed = 1;
nodes = (
"626 595 LINE",
"543 595 LINE",
"543 0 LINE",
"626 0 LINE"
);
},
{
closed = 1;
nodes = (
"75 0 LINE",
"626 0 LINE",
"626 75 LINE",
"75 75 LINE"
);
},
{
closed = 1;
nodes = (
"75 375 LINE",
"753 375 LINE",
"753 450 LINE",
"75 450 LINE"
);
},
{
closed = 1;
nodes = (
"241 760 LINE",
"158 760 LINE",
"158 375 LINE",
"241 375 LINE"
);
},
{
closed = 1;
nodes = (
"295 436 LINE",
"217 405 LINE",
"406 10 LINE",
"482 45 LINE"
);
}
);
width = 763;
}
);
unicode = 0026;
},
{
color = 3;
glyphname = paragraph;
lastChange = "2020-07-16 13:14:08 +0000";
layers = (
{
layerId = "C60226DB-E4D3-4E89-B452-CA8BAB7E3EC0";
paths = (
{
closed = 1;
nodes = (
"547 760 LINE",
"434 760 LINE",
"434 0 LINE",
"547 0 LINE"
);
},
{
closed = 1;
nodes = (
"769 760 LINE",
"656 760 LINE",
"656 0 LINE",
"769 0 LINE"
);
},
{
closed = 1;
nodes = (
"75 760 LINE",
"75 346 LINE",
"188 346 LINE",
"188 760 LINE"
);
},
{
closed = 1;
nodes = (
"75 760 LINE",
"75 655 LINE",
"547 655 LINE",
"547 760 LINE"
);
},
{
closed = 1;
nodes = (
"75 451 LINE",
"75 346 LINE",
"547 346 LINE",
"547 451 LINE"
);
},
{
closed = 1;
nodes = (
"493 721 LINE",
"390 757 LINE",
"152 415 LINE",
"247 369 LINE"
);
}
);
width = 864;
},
{
associatedMasterId = "C60226DB-E4D3-4E89-B452-CA8BAB7E3EC0";
layerId = "993268E1-8F1D-49D2-88B7-233C7423CF9E";
name = "Jul 3 20, 11:47";
paths = (
{
closed = 1;
nodes = (
"528 760 LINE",
"445 760 LINE",
"445 0 LINE",
"528 0 LINE"
);
},
{
closed = 1;
nodes = (
"678 760 LINE",
"595 760 LINE",
"595 0 LINE",
"678 0 LINE"
);
},
{
closed = 1;
nodes = (
"65 760 LINE",
"65 361 LINE",
"148 361 LINE",
"148 760 LINE"
);
},
{
closed = 1;
nodes = (
"65 760 LINE",
"65 685 LINE",
"528 685 LINE",
"528 760 LINE"
);
},
{
closed = 1;
nodes = (
"65 436 LINE",
"65 361 LINE",
"528 361 LINE",
"528 436 LINE"
);
},
{
closed = 1;
nodes = (
"448 704 LINE",
"380 752 LINE",
"146 419 LINE",
"217 374 LINE"
);
}
);
width = 768;
}
);
rightMetricsKey = A;
unicode = 00B6;
},
{
color = 3;
glyphname = section;
lastChange = "2020-07-16 13:14:08 +0000";
layers = (
{
layerId = "C60226DB-E4D3-4E89-B452-CA8BAB7E3EC0";
paths = (
{
closed = 1;
nodes = (
"452 0 LINE",
"565 0 LINE",
"565 555 LINE",
"452 555 LINE"
);
},
{
closed = 1;
nodes = (
"208 760 LINE",
"95 760 LINE",
"95 215 LINE",
"208 215 LINE"
);
},
{
closed = 1;
nodes = (
"95 215 LINE",
"565 215 LINE",
"565 320 LINE",
"95 320 LINE"
);
},
{
closed = 1;
nodes = (
"95 450 LINE",
"565 450 LINE",
"565 555 LINE",
"95 555 LINE"
);
},
{
closed = 1;
nodes = (
"95 655 LINE",
"515 655 LINE",
"515 760 LINE",
"95 760 LINE"
);
},
{
closed = 1;
nodes = (
"145 0 LINE",
"565 0 LINE",
"565 105 LINE",
"145 105 LINE"
);
}
);
width = 660;
},
{
associatedMasterId = "C60226DB-E4D3-4E89-B452-CA8BAB7E3EC0";
layerId = "A6A5CCE6-92B8-4DC9-8361-46869ED9A6B3";
name = "Jul 3 20, 11:47";
paths = (
{
closed = 1;
nodes = (
"447 0 LINE",
"530 0 LINE",
"530 540 LINE",
"447 540 LINE"
);
},
{
closed = 1;
nodes = (
"173 760 LINE",
"90 760 LINE",
"90 230 LINE",
"173 230 LINE"
);
},
{
closed = 1;
nodes = (
"90 230 LINE",
"530 230 LINE",
"530 303 LINE",
"90 303 LINE"
);
},
{
closed = 1;
nodes = (
"90 465 LINE",
"530 465 LINE",
"530 540 LINE",
"90 540 LINE"
);
},
{
closed = 1;
nodes = (
"90 685 LINE",
"480 685 LINE",
"480 760 LINE",
"90 760 LINE"
);
},
{
closed = 1;
nodes = (
"140 0 LINE",
"530 0 LINE",
"530 75 LINE",
"140 75 LINE"
);
}
);
width = 620;
}
);
leftMetricsKey = A;
rightMetricsKey = A;
unicode = 00A7;
},
{
color = 3;
glyphname = copyright;
lastChange = "2020-07-22 13:34:09 +0000";
layers = (
{
layerId = "C60226DB-E4D3-4E89-B452-CA8BAB7E3EC0";
paths = (
{
closed = 1;
nodes = (
"95 760 LINE",
"95 0 LINE",
"759 0 LINE",
"759 760 LINE"
);
},
{
closed = 1;
nodes = (
"676 80 LINE",
"178 80 LINE",
"178 680 LINE",
"676 680 LINE"
);
},
{
closed = 1;
nodes = (
"238 565 LINE",
"618 565 LINE",
"618 635 LINE",
"238 635 LINE"
);
},
{
closed = 1;
nodes = (
"313 635 LINE",
"238 635 LINE",
"238 125 LINE",
"313 125 LINE"
);
},
{
closed = 1;
nodes = (
"238 125 LINE",
"618 125 LINE",
"618 196 LINE",
"238 196 LINE"
);
},
{
closed = 1;
nodes = (
"294 459 LINE",
"251 393 LINE",
"448 131 LINE",
"515 165 LINE"
);
},
{
closed = 1;
nodes = (
"462 635 LINE",
"387 635 LINE",
"387 240 LINE",
"462 199 LINE"
);
}
);
width = 854;
},
{
associatedMasterId = "C60226DB-E4D3-4E89-B452-CA8BAB7E3EC0";
layerId = "721ADCF3-1ACE-4AFC-BD59-317C3880B6F5";
name = "Jul 3 20, 11:47";
paths = (
{
closed = 1;
nodes = (
"90 760 LINE",
"90 0 LINE",
"746 0 LINE",
"746 760 LINE"
);
},
{
closed = 1;
nodes = (
"595 574 LINE",
"595 635 LINE",
"229 635 LINE",
"229 125 LINE",
"595 125 LINE",
"595 186 LINE",
"485 186 LINE",
"431 257 LINE",
"431 574 LINE"
);
},
{
closed = 1;
nodes = (
"364 346 LINE",
"296 436 LINE",
"296 574 LINE",
"364 574 LINE"
);
},
{
closed = 1;
nodes = (
"296 328 LINE",
"402 186 LINE",
"296 186 LINE"
);
},
{
closed = 1;
nodes = (
"679 61 LINE",
"157 61 LINE",
"157 699 LINE",
"679 699 LINE"
);
}
);
width = 836;
}
);
leftMetricsKey = A;
rightMetricsKey = A;
unicode = 00A9;
},
{
color = 3;
glyphname = registered;
lastChange = "2020-07-16 13:14:08 +0000";
layers = (
{
layerId = "C60226DB-E4D3-4E89-B452-CA8BAB7E3EC0";
paths = (
{
closed = 1;
nodes = (
"317 524 LINE",
"359 524 LINE",
"359 690 LINE",
"317 690 LINE"
);
},
{
closed = 1;
nodes = (
"167 651 LINE",
"359 651 LINE",
"359 690 LINE",
"167 690 LINE"
);
},
{
closed = 1;
nodes = (
"208 690 LINE",
"167 690 LINE",
"167 460 LINE",
"208 460 LINE"
);
},
{
closed = 1;
nodes = (
"167 597 LINE",
"359 597 LINE",
"359 636 LINE",
"167 636 LINE"
);
},
{
closed = 1;
nodes = (
"270 524 LINE",
"359 524 LINE",
"359 563 LINE",
"270 563 LINE"
);
},
{
closed = 1;
nodes = (
"348 460 LINE",
"244 630 LINE",
"205 617 LINE",
"301 460 LINE"
);
},
{
closed = 1;
nodes = (
"80 760 LINE",
"80 393 LINE",
"447 393 LINE",
"447 760 LINE"
);
},
{
closed = 1;
nodes = (
"396 441 LINE",
"130 441 LINE",
"130 712 LINE",
"396 712 LINE"
);
}
);
width = 527;
},
{
associatedMasterId = "C60226DB-E4D3-4E89-B452-CA8BAB7E3EC0";
layerId = "BEE28079-BBA9-4DBE-A5ED-A9E39B5BFEF0";
name = "Jul 3 20, 16:48";
paths = (
{
closed = 1;
nodes = (
"318 525 LINE",
"358 525 LINE",
"358 690 LINE",
"318 690 LINE"
);
},
{
closed = 1;
nodes = (
"168 653 LINE",
"358 653 LINE",
"358 690 LINE",
"168 690 LINE"
);
},
{
closed = 1;
nodes = (
"207 690 LINE",
"168 690 LINE",
"168 460 LINE",
"207 460 LINE"
);
},
{
closed = 1;
nodes = (
"168 599 LINE",
"358 599 LINE",
"358 636 LINE",
"168 636 LINE"
);
},
{
closed = 1;
nodes = (
"270 525 LINE",
"358 525 LINE",
"358 562 LINE",
"270 562 LINE"
);
},
{
closed = 1;
nodes = (
"347 460 LINE",
"243 630 LINE",
"206 617 LINE",
"302 460 LINE"
);
},
{
closed = 1;
nodes = (
"80 760 LINE",
"80 393 LINE",
"447 393 LINE",
"447 760 LINE"
);
},
{
closed = 1;
nodes = (
"403 434 LINE",
"123 434 LINE",
"123 719 LINE",
"403 719 LINE"
);
}
);
visible = 1;
width = 527;
}
);
unicode = 00AE;
},
{
color = 3;
glyphname = trademark;
lastChange = "2020-07-22 13:42:43 +0000";
layers = (
{
anchors = (
{
name = bottom;
position = "{244, 393}";
},
{
name = center;
position = "{244, 577}";
},
{
name = top;
position = "{244, 760}";
}
);
guideLines = (
{
position = "{881, 393}";
}
);
layerId = "C60226DB-E4D3-4E89-B452-CA8BAB7E3EC0";
paths = (
{
closed = 1;
nodes = (
"60 760 LINE",
"60 614 LINE",
"164 614 LINE",
"164 393 LINE",
"324 393 LINE",
"324 614 LINE",
"428 614 LINE",
"428 760 LINE"
);
},
{
closed = 1;
nodes = (
"482 760 LINE",
"482 393 LINE",
"541 393 LINE",
"541 525 LINE",
"590 585 LINE",
"590 393 LINE",
"649 393 LINE",
"649 657 LINE",
"688 704 LINE",
"779 704 LINE",
"779 393 LINE",
"838 393 LINE",
"838 760 LINE"
);
},
{
closed = 1;
nodes = (
"541 704 LINE",
"617 704 LINE",
"541 612 LINE"
);
},
{
closed = 1;
nodes = (
"119 704 LINE",
"164 704 LINE",
"164 670 LINE",
"119 670 LINE"
);
},
{
closed = 1;
nodes = (
"274 670 LINE",
"223 670 LINE",
"223 704 LINE",
"250 704 LINE"
);
},
{
closed = 1;
nodes = (
"344 670 LINE",
"319 704 LINE",
"369 704 LINE",
"369 670 LINE"
);
},
{
closed = 1;
nodes = (
"223 449 LINE",
"223 614 LINE",
"265 614 LINE",
"265 449 LINE"
);
}
);
width = 928;
},
{
associatedMasterId = "C60226DB-E4D3-4E89-B452-CA8BAB7E3EC0";
layerId = "4817B91A-234F-4B04-9ED6-541A6A7FA239";
name = "Jul 3 20, 16:48";
paths = (
{
closed = 1;
nodes = (
"261 393 LINE",
"303 393 LINE",
"303 671 LINE",
"261 671 LINE"
);
},
{
closed = 1;
nodes = (
"60 722 LINE",
"403 722 LINE",
"403 760 LINE",
"60 760 LINE"
);
},
{
closed = 1;
nodes = (
"203 760 LINE",
"161 760 LINE",
"161 393 LINE",
"203 393 LINE"
);
},
{
closed = 1;
nodes = (
"161 393 LINE",
"303 393 LINE",
"303 431 LINE",
"161 431 LINE"
);
},
{
closed = 1;
nodes = (
"60 633 LINE",
"403 633 LINE",
"403 671 LINE",
"60 671 LINE"
);
},
{
closed = 1;
nodes = (
"102 760 LINE",
"60 760 LINE",
"60 633 LINE",
"102 633 LINE"
);
},
{
closed = 1;
nodes = (
"403 760 LINE",
"361 760 LINE",
"361 633 LINE",
"403 633 LINE"
);
},
{
closed = 1;
nodes = (
"341 661 LINE",
"276 753 LINE",
"240 731 LINE",
"304 640 LINE"
);
},
{
closed = 1;
nodes = (
"765 393 LINE",
"807 393 LINE",
"807 760 LINE",
"765 760 LINE"
);
},
{
closed = 1;
nodes = (
"470 722 LINE",
"807 722 LINE",
"807 760 LINE",
"470 760 LINE"
);
},
{
closed = 1;
nodes = (
"512 760 LINE",
"470 760 LINE",
"470 393 LINE",
"512 393 LINE"
);
},
{
closed = 1;
nodes = (
"657 719 LINE",
"615 710 LINE",
"615 393 LINE",
"657 393 LINE"
);
},
{
closed = 1;
nodes = (
"584 760 LINE",
"542 760 LINE",
"542 393 LINE",
"584 393 LINE"
);
},
{
closed = 1;
nodes = (
"650 760 LINE",
"473 543 LINE",
"503 520 LINE",
"681 738 LINE"
);
}
);
width = 897;
}
);
unicode = 2122;
},
{
color = 3;
glyphname = degree;
lastChange = "2020-07-16 13:14:08 +0000";
layers = (
{
layerId = "C60226DB-E4D3-4E89-B452-CA8BAB7E3EC0";
paths = (
{
closed = 1;
nodes = (
"287 460 LINE",
"400 460 LINE",
"400 760 LINE",
"287 760 LINE"
);
},
{
closed = 1;
nodes = (
"203 760 LINE",
"90 760 LINE",
"90 460 LINE",
"203 460 LINE"
);
},
{
closed = 1;
nodes = (
"90 460 LINE",
"400 460 LINE",
"400 565 LINE",
"90 565 LINE"
);
},
{
closed = 1;
nodes = (
"90 655 LINE",
"400 655 LINE",
"400 760 LINE",
"90 760 LINE"
);
}
);
width = 490;
},
{
associatedMasterId = "C60226DB-E4D3-4E89-B452-CA8BAB7E3EC0";
layerId = "0BA70CF4-0F77-4FA7-A105-680EA2D80410";
name = "Jul 3 20, 11:47";
paths = (
{
closed = 1;
nodes = (
"297 490 LINE",
"380 490 LINE",
"380 760 LINE",
"297 760 LINE"
);
},
{
closed = 1;
nodes = (
"183 760 LINE",
"100 760 LINE",
"100 490 LINE",
"183 490 LINE"
);
},
{
closed = 1;
nodes = (
"100 490 LINE",
"380 490 LINE",
"380 565 LINE",
"100 565 LINE"
);
},
{
closed = 1;
nodes = (
"100 685 LINE",
"380 685 LINE",
"380 760 LINE",
"100 760 LINE"
);
}
);
width = 480;
}
);
unicode = 00B0;
},
{
color = 3;
glyphname = bar;
lastChange = "2020-07-16 13:14:08 +0000";
layers = (
{
layerId = "C60226DB-E4D3-4E89-B452-CA8BAB7E3EC0";
paths = (
{
closed = 1;
nodes = (
"213 -200 LINE",
"213 810 LINE",
"100 810 LINE",
"100 -200 LINE"
);
}
);
width = 313;
}
);
unicode = 007C;
},
{
color = 3;
glyphname = brokenbar;
lastChange = "2020-07-16 13:14:08 +0000";
layers = (
{
layerId = "C60226DB-E4D3-4E89-B452-CA8BAB7E3EC0";
paths = (
{
closed = 1;
nodes = (
"100 210 LINE",
"100 -200 LINE",
"213 -200 LINE",
"213 210 LINE"
);
},
{
closed = 1;
nodes = (
"213 400 LINE",
"213 810 LINE",
"100 810 LINE",
"100 400 LINE"
);
}
);
width = 313;
}
);
unicode = 00A6;
},
{
color = 3;
glyphname = dagger;
lastChange = "2020-07-16 13:14:08 +0000";
layers = (
{
layerId = "C60226DB-E4D3-4E89-B452-CA8BAB7E3EC0";
paths = (
{
closed = 1;
nodes = (
"373 -200 LINE",
"373 810 LINE",
"260 810 LINE",
"260 -200 LINE"
);
},
{
closed = 1;
nodes = (
"75 460 LINE",
"558 460 LINE",
"558 565 LINE",
"75 565 LINE"
);
}
);
width = 633;
}
);
unicode = 2020;
},
{
color = 3;
glyphname = daggerdbl;
lastChange = "2020-07-16 13:14:08 +0000";
layers = (
{
layerId = "C60226DB-E4D3-4E89-B452-CA8BAB7E3EC0";
paths = (
{
closed = 1;
nodes = (
"373 -200 LINE",
"373 810 LINE",
"260 810 LINE",
"260 -200 LINE"
);
},
{
closed = 1;
nodes = (
"75 460 LINE",
"558 460 LINE",
"558 565 LINE",
"75 565 LINE"
);
},
{
closed = 1;
nodes = (
"75 70 LINE",
"558 70 LINE",
"558 175 LINE",
"75 175 LINE"
);
}
);
width = 633;
}
);
unicode = 2021;
},
{
color = 3;
glyphname = beerMug;
lastChange = "2020-07-16 13:14:08 +0000";
layers = (
{
layerId = "C60226DB-E4D3-4E89-B452-CA8BAB7E3EC0";
paths = (
{
closed = 1;
nodes = (
"95 655 LINE",
"652 655 LINE",
"652 760 LINE",
"95 760 LINE"
);
},
{
closed = 1;
nodes = (
"208 760 LINE",
"95 760 LINE",
"95 0 LINE",
"208 0 LINE"
);
},
{
closed = 1;
nodes = (
"652 760 LINE",
"539 760 LINE",
"539 0 LINE",
"652 0 LINE"
);
},
{
closed = 1;
nodes = (
"95 0 LINE",
"652 0 LINE",
"652 105 LINE",
"95 105 LINE"
);
},
{
closed = 1;
nodes = (
"539 425 LINE",
"832 425 LINE",
"832 530 LINE",
"539 530 LINE"
);
},
{
closed = 1;
nodes = (
"430 0 LINE",
"430 587 LINE",
"317 587 LINE",
"317 0 LINE"
);
},
{
closed = 1;
nodes = (
"539 155 LINE",
"832 155 LINE",
"832 260 LINE",
"539 260 LINE"
);
},
{
closed = 1;
nodes = (
"832 530 LINE",
"719 530 LINE",
"719 155 LINE",
"832 155 LINE"
);
},
{
closed = 1;
nodes = (
"95 482 LINE",
"652 482 LINE",
"652 587 LINE",
"95 587 LINE"
);
}
);
width = 897;
}
);
leftMetricsKey = A;
unicode = 1F37A;
},
{
color = 3;
glyphname = chequeredFlag;
lastChange = "2020-07-22 11:26:45 +0000";
layers = (
{
layerId = "C60226DB-E4D3-4E89-B452-CA8BAB7E3EC0";
paths = (
{
closed = 1;
nodes = (
"573 680 LINE",
"464 760 LINE",
"95 760 LINE",
"95 0 LINE",
"208 0 LINE",
"208 250 LINE",
"382 250 LINE",
"491 170 LINE",
"819 170 LINE",
"819 680 LINE"
);
},
{
closed = 1;
nodes = (
"208 655 LINE",
"423 655 LINE",
"532 575 LINE",
"706 575 LINE",
"706 275 LINE",
"532 275 LINE",
"423 355 LINE",
"208 355 LINE"
);
},
{
closed = 1;
nodes = (
"623 500 LINE",
"623 425 LINE",
"706 425 LINE",
"706 350 LINE",
"623 350 LINE",
"623 275 LINE",
"540 275 LINE",
"540 350 LINE",
"532 350 LINE",
"457 405 LINE",
"457 330 LINE",
"423 355 LINE",
"374 355 LINE",
"374 430 LINE",
"291 430 LINE",
"291 355 LINE",
"208 355 LINE",
"208 430 LINE",
"291 430 LINE",
"291 505 LINE",
"208 505 LINE",
"208 580 LINE",
"291 580 LINE",
"291 655 LINE",
"374 655 LINE",
"374 580 LINE",
"423 580 LINE",
"457 555 LINE",
"457 630 LINE",
"532 575 LINE",
"540 575 LINE",
"540 500 LINE",
"623 500 LINE",
"623 575 LINE",
"706 575 LINE",
"706 500 LINE"
);
},
{
closed = 1;
nodes = (
"291 580 LINE",
"291 505 LINE",
"374 505 LINE",
"374 580 LINE"
);
},
{
closed = 1;
nodes = (
"540 425 LINE",
"540 500 LINE",
"532 500 LINE",
"457 555 LINE",
"457 480 LINE",
"532 425 LINE"
);
},
{
closed = 1;
nodes = (
"374 505 LINE",
"374 430 LINE",
"423 430 LINE",
"457 405 LINE",
"457 480 LINE",
"423 505 LINE"
);
},
{
closed = 1;
nodes = (
"623 350 LINE",
"623 425 LINE",
"540 425 LINE",
"540 350 LINE"
);
}
);
width = 894;
},
{
associatedMasterId = "C60226DB-E4D3-4E89-B452-CA8BAB7E3EC0";
layerId = "10E2A74E-2B91-45E5-A071-3941D47BC0F3";
name = "Jul 1 20, 17:09";
paths = (
{
closed = 1;
nodes = (
"399 760 LINE",
"100 760 LINE",
"100 685 LINE",
"358 685 LINE",
"467 605 LINE",
"716 605 LINE",
"716 680 LINE",
"508 680 LINE"
);
},
{
closed = 1;
nodes = (
"100 385 LINE",
"100 310 LINE",
"358 310 LINE",
"467 230 LINE",
"716 230 LINE",
"716 305 LINE",
"508 305 LINE",
"399 385 LINE"
);
},
{
closed = 1;
nodes = (
"100 760 LINE",
"100 0 LINE",
"183 0 LINE",
"183 760 LINE"
);
},
{
closed = 1;
nodes = (
"681 680 LINE",
"681 230 LINE",
"764 230 LINE",
"764 680 LINE"
);
},
{
closed = 1;
nodes = (
"100 760 LINE",
"100 0 LINE",
"183 0 LINE",
"183 760 LINE"
);
},
{
closed = 1;
nodes = (
"349 535 LINE",
"358 535 LINE",
"432 481 LINE",
"432 556 LINE",
"358 610 LINE",
"349 610 LINE"
);
},
{
closed = 1;
nodes = (
"183 535 LINE",
"266 535 LINE",
"266 610 LINE",
"183 610 LINE"
);
},
{
closed = 1;
nodes = (
"266 460 LINE",
"349 460 LINE",
"349 535 LINE",
"266 535 LINE"
);
},
{
closed = 1;
nodes = (
"183 385 LINE",
"266 385 LINE",
"266 460 LINE",
"183 460 LINE"
);
},
{
closed = 1;
nodes = (
"598 530 LINE",
"681 530 LINE",
"681 605 LINE",
"598 605 LINE"
);
},
{
closed = 1;
nodes = (
"515 455 LINE",
"598 455 LINE",
"598 530 LINE",
"515 530 LINE"
);
},
{
closed = 1;
nodes = (
"598 380 LINE",
"681 380 LINE",
"681 455 LINE",
"598 455 LINE"
);
},
{
closed = 1;
nodes = (
"515 305 LINE",
"598 305 LINE",
"598 380 LINE",
"515 380 LINE"
);
},
{
closed = 1;
nodes = (
"266 610 LINE",
"349 610 LINE",
"349 685 LINE",
"266 685 LINE"
);
},
{
closed = 1;
nodes = (
"432 556 LINE",
"467 530 LINE",
"515 530 LINE",
"515 605 LINE",
"467 605 LINE",
"432 631 LINE"
);
},
{
closed = 1;
nodes = (
"349 385 LINE",
"358 385 LINE",
"419 340 LINE",
"432 340 LINE",
"432 406 LINE",
"358 460 LINE",
"349 460 LINE"
);
},
{
closed = 1;
nodes = (
"432 406 LINE",
"467 380 LINE",
"515 380 LINE",
"515 455 LINE",
"467 455 LINE",
"432 481 LINE"
);
}
);
width = 796;
},
{
associatedMasterId = "C60226DB-E4D3-4E89-B452-CA8BAB7E3EC0";
layerId = "09FD67D3-5EA1-4F4F-B1AC-19197B94D557";
name = "Jul 1 20, 17:56";
paths = (
{
closed = 1;
nodes = (
"439 760 LINE",
"100 760 LINE",
"100 685 LINE",
"398 685 LINE",
"507 605 LINE",
"716 605 LINE",
"716 680 LINE",
"548 680 LINE"
);
},
{
closed = 1;
nodes = (
"100 385 LINE",
"100 310 LINE",
"328 310 LINE",
"437 230 LINE",
"716 230 LINE",
"716 305 LINE",
"478 305 LINE",
"369 385 LINE"
);
},
{
closed = 1;
nodes = (
"100 760 LINE",
"100 0 LINE",
"183 0 LINE",
"183 760 LINE"
);
},
{
closed = 1;
nodes = (
"681 680 LINE",
"681 230 LINE",
"764 230 LINE",
"764 680 LINE"
);
},
{
closed = 1;
nodes = (
"100 760 LINE",
"100 0 LINE",
"183 0 LINE",
"183 760 LINE"
);
}
);
width = 796;
},
{
associatedMasterId = "C60226DB-E4D3-4E89-B452-CA8BAB7E3EC0";
background = {
paths = (
{
closed = 1;
nodes = (
"100 585 LINE",
"100 510 LINE",
"347 510 LINE",
"456 610 LINE",
"764 610 LINE",
"764 685 LINE",
"415 685 LINE",
"306 585 LINE"
);
},
{
closed = 1;
nodes = (
"141 510 LINE",
"141 435 LINE",
"388 435 LINE",
"497 535 LINE",
"805 535 LINE",
"805 610 LINE",
"456 610 LINE",
"347 510 LINE"
);
},
{
closed = 1;
nodes = (
"182 435 LINE",
"182 360 LINE",
"429 360 LINE",
"538 460 LINE",
"846 460 LINE",
"846 535 LINE",
"497 535 LINE",
"388 435 LINE"
);
},
{
closed = 1;
nodes = (
"223 360 LINE",
"223 285 LINE",
"470 285 LINE",
"579 385 LINE",
"887 385 LINE",
"887 460 LINE",
"538 460 LINE",
"429 360 LINE"
);
},
{
closed = 1;
nodes = (
"59 660 LINE",
"59 585 LINE",
"306 585 LINE",
"415 685 LINE",
"723 685 LINE",
"723 760 LINE",
"374 760 LINE",
"265 660 LINE"
);
},
{
closed = 1;
nodes = (
"183 760 LINE",
"183 0 LINE",
"266 0 LINE",
"266 760 LINE"
);
},
{
closed = 1;
nodes = (
"266 760 LINE",
"266 0 LINE",
"349 0 LINE",
"349 760 LINE"
);
},
{
closed = 1;
nodes = (
"349 760 LINE",
"349 0 LINE",
"432 0 LINE",
"432 760 LINE"
);
},
{
closed = 1;
nodes = (
"432 760 LINE",
"432 0 LINE",
"515 0 LINE",
"515 760 LINE"
);
},
{
closed = 1;
nodes = (
"515 760 LINE",
"515 0 LINE",
"598 0 LINE",
"598 760 LINE"
);
},
{
closed = 1;
nodes = (
"598 760 LINE",
"598 0 LINE",
"681 0 LINE",
"681 760 LINE"
);
}
);
};
layerId = "10E9DD73-F15D-4529-B0F6-8C1958E72291";
name = "Jul 1 20, 17:59";
paths = (
{
closed = 1;
nodes = (
"100 660 LINE",
"100 585 LINE",
"306 585 LINE",
"415 685 LINE",
"764 685 LINE",
"764 760 LINE",
"374 760 LINE",
"265 660 LINE"
);
},
{
closed = 1;
nodes = (
"430 360 LINE",
"100 360 LINE",
"100 285 LINE",
"471 285 LINE",
"580 385 LINE",
"764 385 LINE",
"764 460 LINE",
"539 460 LINE"
);
},
{
closed = 1;
nodes = (
"100 760 LINE",
"100 0 LINE",
"183 0 LINE",
"183 760 LINE"
);
},
{
closed = 1;
nodes = (
"681 760 LINE",
"681 385 LINE",
"764 385 LINE",
"764 760 LINE"
);
},
{
closed = 1;
nodes = (
"100 760 LINE",
"100 0 LINE",
"183 0 LINE",
"183 760 LINE"
);
},
{
closed = 1;
nodes = (
"183 510 LINE",
"266 510 LINE",
"266 585 LINE",
"183 585 LINE"
);
},
{
closed = 1;
nodes = (
"183 360 LINE",
"266 360 LINE",
"266 435 LINE",
"183 435 LINE"
);
},
{
closed = 1;
nodes = (
"266 435 LINE",
"349 435 LINE",
"349 512 LINE",
"347 510 LINE",
"266 510 LINE"
);
},
{
closed = 1;
nodes = (
"349 360 LINE",
"432 360 LINE",
"432 475 LINE",
"388 435 LINE",
"349 435 LINE"
);
},
{
closed = 1;
nodes = (
"349 512 LINE",
"432 588 LINE",
"432 686 LINE",
"349 690 LINE"
);
},
{
closed = 1;
nodes = (
"515 438 LINE",
"539 460 LINE",
"598 460 LINE",
"598 535 LINE",
"515 535 LINE"
);
},
{
closed = 1;
nodes = (
"598 535 LINE",
"681 535 LINE",
"681 610 LINE",
"598 610 LINE"
);
},
{
closed = 1;
nodes = (
"515 610 LINE",
"598 610 LINE",
"598 685 LINE",
"515 685 LINE"
);
},
{
closed = 1;
nodes = (
"432 588 LINE",
"432 475 LINE",
"497 535 LINE",
"515 535 LINE",
"515 610 LINE",
"456 610 LINE"
);
}
);
width = 796;
}
);
leftMetricsKey = A;
unicode = 1F3C1;
},
